<svg width="350" height="350" viewBox="0 0 350 350" fill="none" xmlns="http://www.w3.org/2000/svg">
<path d="M334.894 198.087C327.894 194.546 318.974 198.84 318.974 198.84C316.419 200.077 312.626 201.208 310.574 201.355C308.476 201.513 304.73 200.579 302.174 199.291L258.578 177.137H303.386C306.216 177.137 309.984 177.995 311.765 179.084C313.568 180.144 316.419 182.878 318.135 185.128C318.135 185.128 324.147 193.018 331.982 193.018C341.93 193.018 350 184.95 350 174.998C350 165.057 341.93 156.982 331.982 156.982C324.147 156.982 318.135 164.869 318.135 164.869C316.419 167.122 313.568 169.866 311.765 170.935C309.984 172.002 306.216 172.873 303.386 172.873H258.578L302.174 150.717C304.73 149.428 308.476 148.497 310.574 148.645C312.626 148.81 316.419 149.943 318.974 151.157C318.974 151.157 327.894 155.462 334.894 151.911C343.773 147.407 347.296 136.565 342.791 127.702C338.285 118.83 327.436 115.289 318.552 119.795C311.577 123.357 309.795 133.097 309.795 133.097C309.271 135.895 307.973 139.614 306.863 141.374C305.773 143.133 302.8 145.638 300.264 146.926L249.195 172.873H213.369C210.524 172.873 205.911 172.506 203.126 172.045C200.361 171.585 194.766 171.208 191.941 171.208H184.146L189.634 165.709C191.646 163.708 194.685 160.198 196.38 157.903C196.38 157.903 195.336 159.495 196.991 157.191C198.625 154.907 201.619 151.389 203.63 149.378L228.958 124.027L283.423 106.283C286.126 105.401 289.98 105.066 292.012 105.539C294.043 106.01 297.628 107.705 299.949 109.309C299.949 109.309 308.1 114.933 315.538 112.504C324.982 109.434 330.16 99.2638 327.08 89.8031C324 80.3455 313.842 75.1701 304.393 78.2603C296.935 80.6894 293.666 90.0452 293.666 90.0452C292.725 92.7259 290.841 96.2137 289.497 97.7767C288.138 99.3477 284.828 101.359 282.125 102.237L235.618 117.407L267.269 85.7072C269.285 83.7188 272.594 81.6541 274.605 81.1627C276.616 80.6588 280.572 80.5546 283.383 80.9309C283.383 80.9309 293.203 82.2625 298.737 76.7202C305.773 69.7014 305.773 58.2934 298.737 51.2549C291.696 44.2257 280.302 44.2257 273.261 51.2549C267.732 56.7967 269.051 66.6211 269.051 66.6211C269.448 69.4291 269.346 73.3678 268.842 75.4017C268.338 77.423 266.287 80.7125 264.275 82.7233L232.603 114.391L247.77 67.8787C248.646 65.1878 250.662 61.8654 252.21 60.5038C253.803 59.1413 257.28 57.2679 259.938 56.3362C259.938 56.3362 269.306 53.0572 271.754 45.6077C274.814 36.1506 269.662 25.9772 260.192 22.9199C250.723 19.8192 240.561 24.9946 237.501 34.4523C235.053 41.9012 240.688 50.0506 240.688 50.0506C242.302 52.3979 243.998 55.9593 244.481 57.9807C244.939 60.0023 244.583 63.8771 243.728 66.5704L225.96 121.03L200.611 146.381C198.6 148.382 195.102 151.366 192.801 153.023C190.515 154.678 186.305 158.344 184.294 160.355L178.785 165.865V158.072C178.785 155.233 178.449 150.613 178.032 147.804C178.032 147.804 178.429 149.66 177.966 146.863C177.508 144.098 177.131 139.487 177.131 136.638V100.814L203.085 49.7345C204.363 47.2018 206.858 44.2257 208.614 43.1259C210.396 42.0258 214.123 40.7074 216.913 40.2031C216.913 40.2031 226.652 38.4236 230.19 31.4252C234.696 22.5634 231.178 11.7109 222.314 7.20718C213.436 2.70138 202.601 6.2425 198.081 15.1142C194.537 22.0925 198.834 31.0286 198.834 31.0286C200.092 33.5844 201.201 37.3747 201.344 39.4395C201.492 41.5117 200.57 45.2746 199.292 47.8076L177.131 91.4272V46.6035C177.131 43.7646 178.011 39.9946 179.08 38.2124C180.144 36.443 182.868 33.5844 185.134 31.8456C185.134 31.8456 193.01 25.8526 193.01 18.0064C193.01 8.06519 184.966 0 174.992 0C165.064 0 157 8.06519 157 18.0064C157 25.8526 164.876 31.8456 164.876 31.8456C167.116 33.5844 169.861 36.443 170.929 38.2124C171.999 39.9946 172.88 43.7646 172.88 46.6035V91.4272L150.713 47.8076C149.435 45.2746 148.493 41.5117 148.661 39.4395C148.809 37.3747 149.939 33.5844 151.176 31.0286C151.176 31.0286 155.468 22.0925 151.909 15.1142C147.404 6.2425 136.575 2.70138 127.711 7.20718C118.853 11.7109 115.309 22.5634 119.815 31.4252C123.353 38.4236 133.097 40.2031 133.097 40.2031C135.903 40.7074 139.609 42.0258 141.391 43.1259C143.152 44.2257 145.642 47.2018 146.945 49.7345L172.88 100.814V136.638C172.88 139.487 172.523 144.098 172.06 146.863C171.576 149.66 171.22 155.233 171.22 158.072V165.865L165.711 160.355C163.7 158.344 160.182 155.327 157.922 153.629C157.922 153.629 159.49 154.678 157.209 153.023C154.903 151.366 151.385 148.382 149.374 146.381L124.046 121.03L106.283 66.5704C105.402 63.8771 105.066 60.0023 105.529 57.9807C106.007 55.9593 107.708 52.3979 109.322 50.0506C109.322 50.0506 114.932 41.9012 112.524 34.4523C109.444 24.9946 99.262 19.8192 89.818 22.9199C80.348 25.9772 75.1962 36.1506 78.2762 45.6077C80.7047 53.0572 90.0672 56.3362 90.0672 56.3362C92.7296 57.2679 96.207 59.1413 97.7751 60.5038C99.3687 61.8654 101.359 65.1878 102.24 67.8787L117.406 114.391L85.7298 82.7233C83.7184 80.7125 81.6671 77.423 81.1629 75.4017C80.6844 73.3678 80.5774 69.4291 80.9543 66.6211C80.9543 66.6211 82.2728 56.7967 76.7437 51.2549C69.7077 44.2257 58.2884 44.2257 51.2624 51.2549C44.2218 58.2934 44.2218 69.7014 51.2624 76.7202C56.8225 82.2625 66.6277 80.9309 66.6277 80.9309C69.4532 80.5546 73.3939 80.6588 75.4048 81.1627C77.4156 81.6541 80.7047 83.7188 82.716 85.7072L114.408 117.407L67.9054 102.237C65.2024 101.359 61.8726 99.3477 60.5084 97.7767C59.1689 96.2137 57.2854 92.7259 56.3388 90.0452C56.3388 90.0452 53.06 80.6894 45.6268 78.2603C36.1573 75.1701 25.9956 80.3455 22.915 89.8031C19.8403 99.2638 24.9926 109.434 34.4418 112.504C41.8952 114.933 50.0457 109.309 50.0457 109.309C52.3927 107.705 55.982 106.01 57.9933 105.539C60.0094 105.066 63.8835 105.401 66.587 106.283L121.032 124.027L146.375 149.378C148.386 151.389 151.385 154.907 153.039 157.191C154.674 159.495 158.359 163.708 160.351 165.709L165.859 171.208H158.09C155.239 171.208 150.611 171.564 147.8 171.982C147.8 171.982 149.644 171.585 146.879 172.045C144.074 172.506 139.487 172.873 136.656 172.873H100.815L49.7303 146.926C47.195 145.638 44.2422 143.133 43.1323 141.374C42.0223 139.614 40.7242 135.895 40.1998 133.097C40.1998 133.097 38.4179 123.357 31.4227 119.795C22.5589 115.289 11.73 118.83 7.2043 127.702C2.70354 136.565 6.24193 147.407 15.1055 151.911C22.0804 155.462 31.0254 151.157 31.0254 151.157C33.5811 149.943 37.3944 148.81 39.4256 148.645C41.5182 148.497 45.2703 149.428 47.806 150.717L91.4315 172.873H46.6299C43.784 172.873 40.0112 172.002 38.2291 170.935C36.427 169.866 33.5811 167.122 31.8606 164.869C31.8606 164.869 25.8474 156.982 17.9922 156.982C8.0645 156.982 0 165.057 0 174.998C0 184.95 8.0645 193.018 17.9922 193.018C25.8474 193.018 31.8606 185.128 31.8606 185.128C33.5811 182.878 36.427 180.144 38.2291 179.084C40.0112 177.995 43.784 177.137 46.6299 177.137H91.4315L47.806 199.291C45.2703 200.579 41.5182 201.513 39.4256 201.355C37.3944 201.208 33.5811 200.077 31.0254 198.84C31.0254 198.84 22.0804 194.546 15.1055 198.087C6.24193 202.59 2.70354 213.432 7.2043 222.315C11.73 231.167 22.5589 234.708 31.4227 230.205C38.4179 226.643 40.1998 216.91 40.1998 216.91C40.7242 214.115 42.0223 210.385 43.1323 208.626C44.2422 206.854 47.195 204.372 49.7303 203.084L100.815 177.137H136.656C139.487 177.137 144.074 177.494 146.879 177.965C149.644 178.415 155.239 178.792 158.09 178.792H165.859L160.351 184.301C158.359 186.292 155.32 189.81 153.625 192.107C153.625 192.107 154.674 190.513 153.039 192.807C151.385 195.09 148.386 198.611 146.355 200.622L121.032 225.971L66.587 243.738C63.8835 244.596 60.0094 244.952 57.9933 244.481C55.982 244.01 52.3927 242.312 50.0457 240.69C50.0457 240.69 41.8952 235.064 34.4418 237.496C24.9926 240.574 19.8403 250.736 22.8948 260.204C25.9956 269.654 36.1573 274.827 45.6268 271.75C53.06 269.318 56.3388 259.955 56.3388 259.955C57.2854 257.271 59.1689 253.794 60.5084 252.223C61.8726 250.652 65.2024 248.662 67.9054 247.76L114.408 232.592L82.716 264.27C80.7047 266.302 77.4156 268.343 75.4048 268.847C73.3939 269.339 69.4532 269.446 66.6277 269.056C66.6277 269.056 56.8225 267.727 51.2624 273.279C44.2218 280.319 44.2218 291.714 51.2624 298.753C58.2884 305.772 69.7077 305.772 76.7437 298.753C82.2728 293.223 80.9543 283.397 80.9543 283.397C80.5774 280.568 80.6844 276.63 81.1629 274.598C81.6671 272.587 83.7184 269.298 85.7298 267.287L117.406 235.609L102.24 282.118C101.359 284.822 99.3687 288.132 97.7751 289.494C96.207 290.855 92.7296 292.732 90.0672 293.664C90.0672 293.664 80.7047 296.943 78.2762 304.389C75.1962 313.86 80.348 324.02 89.818 327.1C99.262 330.181 109.444 325.005 112.524 315.555C114.932 308.099 109.322 299.949 109.322 299.949C107.708 297.623 106.007 294.061 105.529 292.009C105.066 289.998 105.402 286.141 106.283 283.44L124.046 228.987L149.374 203.628C151.385 201.618 154.903 198.632 157.209 196.997C159.49 195.342 163.7 191.656 165.711 189.655L171.22 184.156V191.928C171.22 194.777 171.576 199.395 171.978 202.193C171.978 202.193 171.576 200.349 172.06 203.135C172.523 205.912 172.88 210.531 172.88 213.359V249.206L146.945 300.283C145.642 302.819 143.152 305.772 141.391 306.871C139.609 307.971 135.903 309.293 133.097 309.807C133.097 309.807 123.353 311.597 119.815 318.585C115.309 327.436 118.853 338.287 127.711 342.793C136.575 347.307 147.404 343.755 151.909 334.893C155.468 327.917 151.176 318.992 151.176 318.992C149.939 316.436 148.809 312.645 148.661 310.581C148.493 308.495 149.435 304.725 150.713 302.2L172.88 258.593V303.394C172.88 306.222 171.999 310.005 170.929 311.785C169.861 313.567 167.116 316.436 164.876 318.165C164.876 318.165 157 324.157 157 331.991C157 341.943 165.064 350 174.992 350C184.945 350 193.01 341.943 193.01 331.991C193.01 324.157 185.134 318.165 185.134 318.165C182.868 316.436 180.144 313.567 179.08 311.785C178.011 310.005 177.131 306.222 177.131 303.394V258.593L199.292 302.2C200.57 304.725 201.492 308.495 201.344 310.581C201.201 312.645 200.092 316.436 198.834 318.992C198.834 318.992 194.537 327.917 198.081 334.893C202.601 343.755 213.436 347.307 222.314 342.793C231.178 338.287 234.696 327.436 230.19 318.585C226.652 311.597 216.913 309.807 216.913 309.807C214.123 309.293 210.396 307.971 208.614 306.871C206.858 305.772 204.363 302.819 203.085 300.283L177.131 249.206V213.359C177.131 210.531 177.508 205.912 177.966 203.135C178.429 200.349 178.785 194.777 178.785 191.928V184.156L184.294 189.655C186.305 191.656 189.823 194.673 192.088 196.368C192.088 196.368 190.515 195.342 192.801 196.997C195.102 198.632 198.6 201.618 200.611 203.628L225.96 228.987L243.728 283.44C244.603 286.141 244.939 289.998 244.481 292.009C243.998 294.061 242.302 297.623 240.688 299.949C240.688 299.949 235.053 308.099 237.501 315.555C240.561 325.005 250.723 330.181 260.192 327.1C269.662 324.02 274.814 313.86 271.754 304.389C269.306 296.943 259.938 293.664 259.938 293.664C257.28 292.732 253.803 290.855 252.21 289.494C250.662 288.132 248.646 284.822 247.77 282.118L232.603 235.609L264.275 267.287C266.287 269.298 268.338 272.587 268.822 274.598C269.346 276.63 269.448 280.568 269.051 283.397C269.051 283.397 267.732 293.223 273.261 298.753C280.302 305.772 291.696 305.772 298.737 298.753C305.773 291.714 305.773 280.319 298.737 273.279C293.203 267.727 283.383 269.056 283.383 269.056C280.572 269.446 276.616 269.339 274.605 268.847C272.594 268.343 269.285 266.302 267.269 264.29L235.618 232.592L282.125 247.76C284.828 248.662 288.138 250.652 289.497 252.223C290.841 253.794 292.725 257.271 293.666 259.955C293.666 259.955 296.935 269.318 304.393 271.75C313.842 274.827 324 269.654 327.08 260.204C330.16 250.736 324.982 240.574 315.538 237.496C308.1 235.064 299.949 240.69 299.949 240.69C297.628 242.312 294.043 244.01 292.012 244.481C289.98 244.952 286.126 244.596 283.423 243.738L228.958 225.971L203.63 200.622C201.619 198.611 198.625 195.09 196.991 192.807C195.336 190.513 191.646 186.292 189.634 184.301L184.146 178.792H191.941C194.766 178.792 199.399 178.436 202.184 178.026C202.184 178.026 200.361 178.415 203.126 177.965C205.911 177.494 210.524 177.137 213.369 177.137H249.195L300.264 203.084C302.8 204.372 305.773 206.854 306.863 208.626C307.973 210.385 309.271 214.115 309.795 216.91C309.795 216.91 311.577 226.643 318.552 230.205C327.436 234.708 338.285 231.167 342.791 222.315C347.296 213.432 343.773 202.59 334.894 198.087Z" fill="#808080"/>
</svg>
