<svg width="420" height="509" viewBox="0 0 420 509" fill="none" xmlns="http://www.w3.org/2000/svg">
<path fill-rule="evenodd" clip-rule="evenodd" d="M117.652 465.926C118.992 453.314 130.022 308.228 58.7754 367.891C33.3648 389.17 42.4238 404.97 52.0099 416.096C36.3269 407.17 -2.50919 434.919 3.66006 469.364C12.3263 517.752 130.022 490.974 130.022 490.974L117.652 465.926Z" fill="url(#paint0_linear_2030_41)"/>
<path d="M57.8125 366.741C75.7334 351.734 89.1523 349.042 98.9951 354.981C103.816 357.89 107.538 362.755 110.418 368.712C113.302 374.677 115.396 381.846 116.905 389.516C122.806 419.498 119.94 458.097 119.186 465.644L131.367 490.31L132.209 492.015L130.354 492.437L130.022 490.975L130.353 492.438C130.352 492.438 130.35 492.438 130.349 492.439C130.345 492.439 130.339 492.441 130.331 492.443C130.316 492.446 130.294 492.451 130.265 492.457C130.206 492.47 130.121 492.49 130.008 492.515C129.782 492.565 129.446 492.638 129.011 492.731C128.14 492.916 126.864 493.182 125.238 493.502C121.987 494.143 117.336 495.003 111.729 495.884C100.522 497.644 85.4676 499.49 70.123 499.815C54.8055 500.139 39.0691 498.953 26.5645 494.57C14.0349 490.179 4.48242 482.464 2.18359 469.629C-1.01707 451.758 7.47013 435.727 18.6191 425.366C24.2011 420.179 30.5169 416.346 36.5039 414.384C40.3864 413.111 44.231 412.598 47.668 413.097C44.0563 408.236 41.0073 402.49 40.7695 395.855C40.46 387.216 44.9139 377.543 57.8125 366.741Z" stroke="#F3F3F3" stroke-opacity="0.92" stroke-width="3"/>
<path fill-rule="evenodd" clip-rule="evenodd" d="M129.176 398.261C126.186 383.792 93.4018 369.909 83.2518 377.495C69.4107 387.838 46.9624 402.025 67.0717 429.921C27.4603 424.582 6.75922 451.387 23.155 478.91C38.4267 504.546 138.968 500.574 138.968 500.574L129.176 398.261Z" fill="#899188" stroke="#D4D4D4"/>
<path opacity="0.73" d="M96.5029 386.906C101.208 386.34 105.537 387.345 109.481 389.463C117.343 393.686 123.674 402.33 128.528 411.783C133.391 421.252 136.811 431.61 138.817 439.362C139.819 443.238 140.471 446.475 140.772 448.631C140.921 449.7 140.989 450.536 140.96 451.058C140.953 451.19 140.939 451.318 140.913 451.432C140.898 451.498 140.871 451.586 140.824 451.675L158.696 486.366L158.985 486.926L158.377 487.079L158.252 486.594L158.375 487.079C158.374 487.079 158.373 487.08 158.372 487.08C158.369 487.081 158.365 487.082 158.359 487.083C158.348 487.086 158.33 487.09 158.308 487.096C158.262 487.107 158.195 487.124 158.106 487.146C157.929 487.189 157.665 487.254 157.321 487.337C156.633 487.503 155.622 487.741 154.331 488.035C151.748 488.624 148.043 489.432 143.549 490.313C134.563 492.076 122.418 494.134 109.792 495.308C97.1721 496.481 84.0427 496.774 73.0983 494.997C62.1827 493.224 53.2856 489.365 49.354 482.09C43.375 471.026 46.3273 459.801 54.5021 452.635C62.3574 445.748 74.9985 442.628 89.1245 446.861C83.2768 439.988 76.7308 432.106 73.7314 423.501C72.1291 418.904 71.5307 414.084 72.5926 409.091C73.6545 404.098 76.3677 398.971 81.3249 393.746L81.3524 393.717L81.3847 393.693C86.7633 389.602 91.8027 387.472 96.5029 386.906ZM140.454 451.116L140.502 451.084C140.492 451.076 140.477 451.067 140.458 451.057C140.457 451.077 140.455 451.097 140.454 451.116Z" fill="#26FC00" stroke="black"/>
<path opacity="0.931447" fill-rule="evenodd" clip-rule="evenodd" d="M88.262 2.68542V398.002C88.262 398.002 82.7705 506.685 150.916 506.685C219.057 506.685 344.36 506.685 344.36 506.685C344.36 506.685 418.002 460.246 418.002 385.326C418.002 310.409 418.002 2.68542 418.002 2.68542L348.756 45.3304H170.701L88.262 2.68542Z" fill="url(#paint1_linear_2030_41)" stroke="#FFF8F8" stroke-width="3"/>
<path d="M238.728 193.81C238.728 226.567 213.403 253.122 182.166 253.122C150.925 253.122 125.6 226.567 125.6 193.81C125.6 161.05 150.925 134.498 182.166 134.498C213.403 134.498 238.728 161.05 238.728 193.81Z" fill="#26FC00" stroke="white" stroke-width="5.00844"/>
<path d="M381.997 193.81C381.997 226.567 356.672 253.122 325.43 253.122C294.193 253.122 268.869 226.567 268.869 193.81C268.869 161.05 294.193 134.498 325.43 134.498C356.672 134.498 381.997 161.05 381.997 193.81Z" fill="#26FC00" stroke="white" stroke-width="5.00844"/>
<path d="M182.166 168.647C182.166 182.543 171.424 193.81 158.17 193.81C144.912 193.81 134.173 182.543 134.173 168.647C134.173 154.752 144.912 143.485 158.17 143.485C171.424 143.485 182.166 154.752 182.166 168.647Z" fill="#1A1919"/>
<path d="M325.43 168.647C325.43 182.543 314.693 193.81 301.438 193.81C288.18 193.81 277.442 182.543 277.442 168.647C277.442 154.752 288.18 143.485 301.438 143.485C314.693 143.485 325.43 154.752 325.43 168.647Z" fill="#1A1919"/>
<path fill-rule="evenodd" clip-rule="evenodd" d="M253.082 304.795L243.058 282.305L233.034 259.816H253.082H273.124L263.101 282.305L253.082 304.795Z" fill="#26FC00" stroke="white" stroke-width="5.00844"/>
<defs>
<linearGradient id="paint0_linear_2030_41" x1="100.688" y1="309.36" x2="21.5015" y2="571.386" gradientUnits="userSpaceOnUse">
<stop stop-color="#845454"/>
<stop offset="0.245192" stop-color="#6B4444"/>
<stop offset="0.413462" stop-color="#1E1313"/>
<stop offset="0.610577" stop-color="#714949"/>
<stop offset="0.759615" stop-color="#1E1313"/>
<stop offset="0.971154" stop-color="#6F4848"/>
</linearGradient>
<linearGradient id="paint1_linear_2030_41" x1="60.4818" y1="184.463" x2="348.037" y2="368.106" gradientUnits="userSpaceOnUse">
<stop stop-color="#535355"/>
<stop offset="0.149038" stop-color="#3F3F46"/>
<stop offset="0.293269" stop-color="#070707"/>
<stop offset="0.483238" stop-color="#433E4C"/>
<stop offset="0.552885"/>
<stop offset="0.724589" stop-color="#91899E"/>
<stop offset="0.855769" stop-color="#231D1D"/>
</linearGradient>
</defs>
</svg>
