<svg width="596" height="422" viewBox="0 0 596 422" fill="none" xmlns="http://www.w3.org/2000/svg">
<path fill-rule="evenodd" clip-rule="evenodd" d="M539.345 215C548.977 209.752 540.587 214.953 588.844 198C603.077 193 591.453 190.5 528.796 164C464.587 134 460.377 126 463.377 135.5C466.911 153.5 488.498 217.848 488.498 217.848L539.345 215Z" fill="#26FC00" stroke="white" stroke-width="2"/>
<path d="M2.71094 79.2426C2.71094 79.2426 106.727 -25.2834 196.175 108.827C285.623 242.961 323.075 284.375 406.273 264.66C429.158 254.79 479.086 203.507 464.519 138.412C464.519 138.412 518.606 187.735 587.261 197.581C587.261 197.581 462.452 248.888 414.59 296.204C366.753 343.544 268.988 426.395 146.246 351.43C23.5043 276.489 117.111 121.496 2.71094 79.2426Z" fill="black" fill-opacity="0.41"/>
<path d="M2.71094 79.2426C2.71094 79.2426 106.727 -25.2834 196.175 108.827C285.623 242.961 323.075 284.375 406.273 264.66C429.158 254.79 479.086 203.507 464.519 138.412C464.519 138.412 518.606 187.735 587.261 197.581C587.261 197.581 462.452 248.888 414.59 296.204C366.753 343.544 268.988 426.395 146.246 351.43C23.5043 276.489 117.111 121.496 2.71094 79.2426Z" fill="url(#paint0_linear_93_103)" fill-opacity="0.57"/>
<path d="M2.71094 79.2426C2.71094 79.2426 106.727 -25.2834 196.175 108.827C285.623 242.961 323.075 284.375 406.273 264.66C429.158 254.79 479.086 203.507 464.519 138.412C464.519 138.412 518.606 187.735 587.261 197.581C587.261 197.581 462.452 248.888 414.59 296.204C366.753 343.544 268.988 426.395 146.246 351.43C23.5043 276.489 117.111 121.496 2.71094 79.2426Z" fill="black" fill-opacity="0.13"/>
<path d="M2.71094 79.2426C2.71094 79.2426 106.727 -25.2834 196.175 108.827C285.623 242.961 323.075 284.375 406.273 264.66C429.158 254.79 479.086 203.507 464.519 138.412C464.519 138.412 518.606 187.735 587.261 197.581C587.261 197.581 462.452 248.888 414.59 296.204C366.753 343.544 268.988 426.395 146.246 351.43C23.5043 276.489 117.111 121.496 2.71094 79.2426Z" stroke="white" stroke-width="3"/>
<path d="M70.3813 83C70.3813 94.597 80.6798 104 93.3813 104C106.083 104 116.381 94.597 116.381 83C116.381 71.403 106.083 62 93.3813 62C80.6798 62 70.3813 71.403 70.3813 83Z" fill="#FFE500"/>
<path d="M71.3813 79C71.3813 86.1791 78.3216 92 86.8813 92C95.4411 92 102.381 86.1791 102.381 79C102.381 71.8209 95.4411 66 86.8813 66C78.3216 66 71.3813 71.8209 71.3813 79Z" fill="black"/>
<defs>
<linearGradient id="paint0_linear_93_103" x1="739.947" y1="323.656" x2="304.53" y2="-214.89" gradientUnits="userSpaceOnUse">
<stop offset="0.0336538" stop-color="#231D1D"/>
<stop offset="0.0337538"/>
<stop offset="0.177885"/>
<stop offset="0.216346" stop-color="#313135"/>
<stop offset="0.293269"/>
<stop offset="0.341346" stop-color="#5F5F60"/>
<stop offset="0.447115"/>
<stop offset="0.447215" stop-color="#010101"/>
<stop offset="0.447315" stop-color="#252424"/>
<stop offset="0.538462" stop-color="#020202"/>
<stop offset="0.591346" stop-color="#6E6A6A"/>
<stop offset="0.668269" stop-color="#1F1B1C"/>
<stop offset="0.706731" stop-color="#1A1819"/>
<stop offset="0.75"/>
<stop offset="0.899038" stop-color="#3F3F46"/>
</linearGradient>
</defs>
</svg>
