<svg width="459" height="445" viewBox="0 0 459 445" fill="none" xmlns="http://www.w3.org/2000/svg">
<path d="M164.239 50.9367C172.547 47.8999 182.428 51.7896 192.016 60.1296C201.2 68.1173 210.352 80.3782 218.034 95.3806C223.017 79.0956 229.897 65.1907 237.538 55.4802C245.507 45.3515 254.525 39.5246 263.221 40.8393L263.629 40.9054C272.152 42.4027 278.431 50.5033 282.195 62.2328C285.852 73.6246 287.249 88.7398 285.975 105.561C298.722 93.6275 311.855 84.7211 323.448 79.8576C335.537 74.7862 346.304 73.9752 353.075 79.2889C359.89 84.6355 361.076 94.9144 358.105 107.188C355.264 118.921 348.554 132.836 338.678 146.963C355.8 142.589 371.648 141.045 384.073 142.312C396.84 143.614 406.393 147.937 409.567 155.662L409.714 156.033L409.714 156.034C412.724 163.995 408.349 173.572 399.406 182.912C390.843 191.855 377.833 200.872 362.003 208.563C378.862 212.919 393.195 219.138 403.151 226.183C413.557 233.548 419.514 242.073 417.913 250.496C416.323 258.901 407.616 265.218 395.099 269.153C383.098 272.926 367.25 274.627 349.689 273.797C361.817 285.701 370.799 298.015 375.606 308.965C380.634 320.422 381.225 330.731 375.483 337.351L375.48 337.353C369.739 343.928 359.034 345.327 346.269 342.795C334.03 340.368 319.578 334.275 304.968 325.129C309.139 341.412 310.381 356.558 308.752 368.497C307.051 380.975 302.156 390.278 293.825 393.332L293.824 393.332C285.488 396.376 275.613 392.485 266.031 384.142C256.854 376.153 247.709 363.892 240.012 348.894C235.055 365.172 228.182 379.07 220.537 388.779C212.561 398.908 203.524 404.738 194.804 403.44L194.803 403.439C186.082 402.129 179.667 393.953 175.845 382.038C172.191 370.646 170.794 355.534 172.073 338.728C159.314 350.656 146.181 359.56 134.588 364.421C122.498 369.491 111.731 370.3 104.952 364.99L104.95 364.989C98.1433 359.631 96.9509 349.355 99.9127 337.084C102.744 325.352 109.441 311.438 119.307 297.305C102.227 301.659 86.3933 303.2 73.9748 301.936C61.0133 300.617 51.3567 296.188 48.3497 288.236C45.3274 280.268 49.6915 270.689 58.6301 261.35C67.1883 252.408 80.1975 243.394 96.0369 235.71C79.1618 231.35 64.8431 225.128 54.9058 218.079C44.5173 210.711 38.5878 202.185 40.189 193.763C41.7674 185.351 50.4598 179.038 62.9694 175.108C74.9642 171.339 90.8134 169.64 108.39 170.467C96.254 158.565 87.2721 146.247 82.4654 135.295C77.4366 123.836 76.8454 113.527 82.5806 106.918L82.5823 106.917C88.3116 100.333 99.0133 98.9375 111.773 101.47C124.008 103.898 138.454 109.992 153.053 119.131C148.893 102.855 147.668 87.7093 149.305 75.7699C151.017 63.2926 155.917 53.9884 164.238 50.9369L164.239 50.9367ZM228.102 211.338C227.326 212.008 226.469 212.517 225.529 212.85L225.53 212.851C225.526 212.852 225.521 212.853 225.517 212.855C225.515 212.856 225.513 212.857 225.511 212.858L225.509 212.857C224.569 213.207 223.584 213.376 222.562 213.373C222.235 214.321 221.736 215.188 221.14 215.905L221.117 215.933L221.092 215.958C220.411 216.667 219.627 217.266 218.749 217.76C218.952 218.7 218.964 219.669 218.791 220.615L218.789 220.623C218.604 221.582 218.244 222.475 217.717 223.299C218.323 223.94 218.8 224.668 219.143 225.481L219.232 225.703L219.235 225.711C219.569 226.604 219.71 227.561 219.676 228.519C220.601 228.802 221.453 229.221 222.237 229.833L222.432 229.982C223.153 230.552 223.726 231.243 224.148 232.047C225.139 231.844 226.138 231.768 227.151 231.937L227.15 231.937C228.145 232.08 229.081 232.411 229.959 232.917C230.599 232.359 231.303 231.91 232.075 231.577L232.52 231.401C233.488 231.043 234.483 230.874 235.5 230.888C235.82 229.973 236.283 229.086 236.981 228.308L236.987 228.302C237.646 227.58 238.457 226.983 239.321 226.5C239.142 225.571 239.112 224.595 239.293 223.642C239.455 222.66 239.851 221.777 240.351 220.978C239.702 220.273 239.199 219.467 238.852 218.563L238.768 218.338C238.477 217.501 238.353 216.632 238.391 215.739C237.454 215.471 236.547 215.062 235.79 214.437L235.79 214.436C235.023 213.812 234.395 213.076 233.907 212.233C232.928 212.432 231.935 212.471 230.931 212.343L230.917 212.341C229.913 212.2 228.973 211.86 228.102 211.338Z" fill="#242424"/>
<path d="M164.239 50.9367C172.547 47.8999 182.428 51.7896 192.016 60.1296C201.2 68.1173 210.352 80.3782 218.034 95.3806C223.017 79.0956 229.897 65.1907 237.538 55.4802C245.507 45.3515 254.525 39.5246 263.221 40.8393L263.629 40.9054C272.152 42.4027 278.431 50.5033 282.195 62.2328C285.852 73.6246 287.249 88.7398 285.975 105.561C298.722 93.6275 311.855 84.7211 323.448 79.8576C335.537 74.7862 346.304 73.9752 353.075 79.2889C359.89 84.6355 361.076 94.9144 358.105 107.188C355.264 118.921 348.554 132.836 338.678 146.963C355.8 142.589 371.648 141.045 384.073 142.312C396.84 143.614 406.393 147.937 409.567 155.662L409.714 156.033L409.714 156.034C412.724 163.995 408.349 173.572 399.406 182.912C390.843 191.855 377.833 200.872 362.003 208.563C378.862 212.919 393.195 219.138 403.151 226.183C413.557 233.548 419.514 242.073 417.913 250.496C416.323 258.901 407.616 265.218 395.099 269.153C383.098 272.926 367.25 274.627 349.689 273.797C361.817 285.701 370.799 298.015 375.606 308.965C380.634 320.422 381.225 330.731 375.483 337.351L375.48 337.353C369.739 343.928 359.034 345.327 346.269 342.795C334.03 340.368 319.578 334.275 304.968 325.129C309.139 341.412 310.381 356.558 308.752 368.497C307.051 380.975 302.156 390.278 293.825 393.332L293.824 393.332C285.488 396.376 275.613 392.485 266.031 384.142C256.854 376.153 247.709 363.892 240.012 348.894C235.055 365.172 228.182 379.07 220.537 388.779C212.561 398.908 203.524 404.738 194.804 403.44L194.803 403.439C186.082 402.129 179.667 393.953 175.845 382.038C172.191 370.646 170.794 355.534 172.073 338.728C159.314 350.656 146.181 359.56 134.588 364.421C122.498 369.491 111.731 370.3 104.952 364.99L104.95 364.989C98.1433 359.631 96.9509 349.355 99.9127 337.084C102.744 325.352 109.441 311.438 119.307 297.305C102.227 301.659 86.3933 303.2 73.9748 301.936C61.0133 300.617 51.3567 296.188 48.3497 288.236C45.3274 280.268 49.6915 270.689 58.6301 261.35C67.1883 252.408 80.1975 243.394 96.0369 235.71C79.1618 231.35 64.8431 225.128 54.9058 218.079C44.5173 210.711 38.5878 202.185 40.189 193.763C41.7674 185.351 50.4598 179.038 62.9694 175.108C74.9642 171.339 90.8134 169.64 108.39 170.467C96.254 158.565 87.2721 146.247 82.4654 135.295C77.4366 123.836 76.8454 113.527 82.5806 106.918L82.5823 106.917C88.3116 100.333 99.0133 98.9375 111.773 101.47C124.008 103.898 138.454 109.992 153.053 119.131C148.893 102.855 147.668 87.7093 149.305 75.7699C151.017 63.2926 155.917 53.9884 164.238 50.9369L164.239 50.9367ZM228.102 211.338C227.326 212.008 226.469 212.517 225.529 212.85L225.53 212.851C225.526 212.852 225.521 212.853 225.517 212.855C225.515 212.856 225.513 212.857 225.511 212.858L225.509 212.857C224.569 213.207 223.584 213.376 222.562 213.373C222.235 214.321 221.736 215.188 221.14 215.905L221.117 215.933L221.092 215.958C220.411 216.667 219.627 217.266 218.749 217.76C218.952 218.7 218.964 219.669 218.791 220.615L218.789 220.623C218.604 221.582 218.244 222.475 217.717 223.299C218.323 223.94 218.8 224.668 219.143 225.481L219.232 225.703L219.235 225.711C219.569 226.604 219.71 227.561 219.676 228.519C220.601 228.802 221.453 229.221 222.237 229.833L222.432 229.982C223.153 230.552 223.726 231.243 224.148 232.047C225.139 231.844 226.138 231.768 227.151 231.937L227.15 231.937C228.145 232.08 229.081 232.411 229.959 232.917C230.599 232.359 231.303 231.91 232.075 231.577L232.52 231.401C233.488 231.043 234.483 230.874 235.5 230.888C235.82 229.973 236.283 229.086 236.981 228.308L236.987 228.302C237.646 227.58 238.457 226.983 239.321 226.5C239.142 225.571 239.112 224.595 239.293 223.642C239.455 222.66 239.851 221.777 240.351 220.978C239.702 220.273 239.199 219.467 238.852 218.563L238.768 218.338C238.477 217.501 238.353 216.632 238.391 215.739C237.454 215.471 236.547 215.062 235.79 214.437L235.79 214.436C235.023 213.812 234.395 213.076 233.907 212.233C232.928 212.432 231.935 212.471 230.931 212.343L230.917 212.341C229.913 212.2 228.973 211.86 228.102 211.338Z" stroke="#F5DE2F" stroke-width="2"/>
<path fill-rule="evenodd" clip-rule="evenodd" d="M373.481 117.879C382.091 129.652 368.318 152.988 342.083 173.458C376.27 173.945 402.668 182.311 403.841 198.206C405.014 214.075 380.603 229.504 346.935 235.621C376.237 253.94 393.769 277.427 387.22 291.81C380.645 306.218 352.211 306.77 320.221 294.368C336.824 325.707 340.792 355.211 328.284 364.246C315.751 373.305 290.922 358.834 269.113 331.305C268.635 367.175 257.981 394.886 242.838 396.163C227.719 397.416 213.189 371.836 207.414 336.481C189.927 367.274 167.529 385.724 153.823 378.914C140.166 372.056 139.7 342.18 151.583 308.534C121.779 326.084 93.6182 330.259 85.0476 317.179C76.4786 304.049 90.2881 277.913 116.599 254.913C82.4817 254.492 56.1422 243.364 54.9689 227.494C53.7717 211.624 78.2059 196.221 111.875 190.079C82.573 171.735 64.963 152.444 71.466 139.62C77.9705 126.751 106.377 126.346 138.426 137.543C121.701 109.477 117.69 83.0265 130.144 74.9824C142.599 66.9383 167.496 79.9407 189.365 104.659C189.753 72.5721 200.342 47.8167 215.457 46.721C230.546 45.6471 245.227 68.5565 251.065 100.247C268.478 72.7104 290.816 56.2758 304.494 62.4322C318.218 68.6126 318.732 95.3171 306.979 125.425C336.702 109.795 364.847 106.127 373.481 117.879ZM238.028 206.634C237.466 205.714 237.115 204.683 236.974 203.541C235.905 203.576 234.884 203.361 233.91 202.897C232.983 202.451 232.199 201.767 231.557 200.844C230.615 201.452 229.641 201.791 228.635 201.861C227.597 201.947 226.574 201.774 225.567 201.342C225.083 202.357 224.341 203.188 223.51 203.79C222.648 204.383 221.673 204.755 220.585 204.907C220.646 206.063 220.446 207.136 219.986 208.126C219.543 209.1 218.88 209.941 217.998 210.651C218.576 211.588 218.912 212.611 219.006 213.718C219.069 214.807 218.885 215.88 218.455 216.938C219.419 217.494 220.163 218.169 220.756 219.115C221.383 219.987 221.743 221.002 221.836 222.159C222.953 222.109 223.974 222.315 224.901 222.778C225.811 223.24 226.603 223.933 227.276 224.856C228.203 224.248 229.177 223.91 230.199 223.84C231.253 223.738 232.268 223.91 233.242 224.358C233.774 223.37 234.421 222.511 235.323 221.911C236.154 221.308 237.169 220.937 238.226 220.768C238.211 219.664 238.411 218.565 238.847 217.575C239.26 216.558 239.977 215.777 240.811 215.049C240.25 214.095 239.922 213.073 239.828 211.983C239.749 210.893 239.94 209.82 240.402 208.763C239.415 208.215 238.623 207.505 238.028 206.634Z" fill="black" fill-opacity="0.41"/>
<path fill-rule="evenodd" clip-rule="evenodd" d="M373.481 117.879C382.091 129.652 368.318 152.988 342.083 173.458C376.27 173.945 402.668 182.311 403.841 198.206C405.014 214.075 380.603 229.504 346.935 235.621C376.237 253.94 393.769 277.427 387.22 291.81C380.645 306.218 352.211 306.77 320.221 294.368C336.824 325.707 340.792 355.211 328.284 364.246C315.751 373.305 290.922 358.834 269.113 331.305C268.635 367.175 257.981 394.886 242.838 396.163C227.719 397.416 213.189 371.836 207.414 336.481C189.927 367.274 167.529 385.724 153.823 378.914C140.166 372.056 139.7 342.18 151.583 308.534C121.779 326.084 93.6182 330.259 85.0476 317.179C76.4786 304.049 90.2881 277.913 116.599 254.913C82.4817 254.492 56.1422 243.364 54.9689 227.494C53.7717 211.624 78.2059 196.221 111.875 190.079C82.573 171.735 64.963 152.444 71.466 139.62C77.9705 126.751 106.377 126.346 138.426 137.543C121.701 109.477 117.69 83.0265 130.144 74.9824C142.599 66.9383 167.496 79.9407 189.365 104.659C189.753 72.5721 200.342 47.8167 215.457 46.721C230.546 45.6471 245.227 68.5565 251.065 100.247C268.478 72.7104 290.816 56.2758 304.494 62.4322C318.218 68.6126 318.732 95.3171 306.979 125.425C336.702 109.795 364.847 106.127 373.481 117.879ZM238.028 206.634C237.466 205.714 237.115 204.683 236.974 203.541C235.905 203.576 234.884 203.361 233.91 202.897C232.983 202.451 232.199 201.767 231.557 200.844C230.615 201.452 229.641 201.791 228.635 201.861C227.597 201.947 226.574 201.774 225.567 201.342C225.083 202.357 224.341 203.188 223.51 203.79C222.648 204.383 221.673 204.755 220.585 204.907C220.646 206.063 220.446 207.136 219.986 208.126C219.543 209.1 218.88 209.941 217.998 210.651C218.576 211.588 218.912 212.611 219.006 213.718C219.069 214.807 218.885 215.88 218.455 216.938C219.419 217.494 220.163 218.169 220.756 219.115C221.383 219.987 221.743 221.002 221.836 222.159C222.953 222.109 223.974 222.315 224.901 222.778C225.811 223.24 226.603 223.933 227.276 224.856C228.203 224.248 229.177 223.91 230.199 223.84C231.253 223.738 232.268 223.91 233.242 224.358C233.774 223.37 234.421 222.511 235.323 221.911C236.154 221.308 237.169 220.937 238.226 220.768C238.211 219.664 238.411 218.565 238.847 217.575C239.26 216.558 239.977 215.777 240.811 215.049C240.25 214.095 239.922 213.073 239.828 211.983C239.749 210.893 239.94 209.82 240.402 208.763C239.415 208.215 238.623 207.505 238.028 206.634Z" fill="url(#paint0_linear_93_10)" fill-opacity="0.57"/>
<path fill-rule="evenodd" clip-rule="evenodd" d="M373.481 117.879C382.091 129.652 368.318 152.988 342.083 173.458C376.27 173.945 402.668 182.311 403.841 198.206C405.014 214.075 380.603 229.504 346.935 235.621C376.237 253.94 393.769 277.427 387.22 291.81C380.645 306.218 352.211 306.77 320.221 294.368C336.824 325.707 340.792 355.211 328.284 364.246C315.751 373.305 290.922 358.834 269.113 331.305C268.635 367.175 257.981 394.886 242.838 396.163C227.719 397.416 213.189 371.836 207.414 336.481C189.927 367.274 167.529 385.724 153.823 378.914C140.166 372.056 139.7 342.18 151.583 308.534C121.779 326.084 93.6182 330.259 85.0476 317.179C76.4786 304.049 90.2881 277.913 116.599 254.913C82.4817 254.492 56.1422 243.364 54.9689 227.494C53.7717 211.624 78.2059 196.221 111.875 190.079C82.573 171.735 64.963 152.444 71.466 139.62C77.9705 126.751 106.377 126.346 138.426 137.543C121.701 109.477 117.69 83.0265 130.144 74.9824C142.599 66.9383 167.496 79.9407 189.365 104.659C189.753 72.5721 200.342 47.8167 215.457 46.721C230.546 45.6471 245.227 68.5565 251.065 100.247C268.478 72.7104 290.816 56.2758 304.494 62.4322C318.218 68.6126 318.732 95.3171 306.979 125.425C336.702 109.795 364.847 106.127 373.481 117.879ZM238.028 206.634C237.466 205.714 237.115 204.683 236.974 203.541C235.905 203.576 234.884 203.361 233.91 202.897C232.983 202.451 232.199 201.767 231.557 200.844C230.615 201.452 229.641 201.791 228.635 201.861C227.597 201.947 226.574 201.774 225.567 201.342C225.083 202.357 224.341 203.188 223.51 203.79C222.648 204.383 221.673 204.755 220.585 204.907C220.646 206.063 220.446 207.136 219.986 208.126C219.543 209.1 218.88 209.941 217.998 210.651C218.576 211.588 218.912 212.611 219.006 213.718C219.069 214.807 218.885 215.88 218.455 216.938C219.419 217.494 220.163 218.169 220.756 219.115C221.383 219.987 221.743 221.002 221.836 222.159C222.953 222.109 223.974 222.315 224.901 222.778C225.811 223.24 226.603 223.933 227.276 224.856C228.203 224.248 229.177 223.91 230.199 223.84C231.253 223.738 232.268 223.91 233.242 224.358C233.774 223.37 234.421 222.511 235.323 221.911C236.154 221.308 237.169 220.937 238.226 220.768C238.211 219.664 238.411 218.565 238.847 217.575C239.26 216.558 239.977 215.777 240.811 215.049C240.25 214.095 239.922 213.073 239.828 211.983C239.749 210.893 239.94 209.82 240.402 208.763C239.415 208.215 238.623 207.505 238.028 206.634Z" fill="black" fill-opacity="0.13"/>
<path fill-rule="evenodd" clip-rule="evenodd" d="M373.481 117.879C382.091 129.652 368.318 152.988 342.083 173.458C376.27 173.945 402.668 182.311 403.841 198.206C405.014 214.075 380.603 229.504 346.935 235.621C376.237 253.94 393.769 277.427 387.22 291.81C380.645 306.218 352.211 306.77 320.221 294.368C336.824 325.707 340.792 355.211 328.284 364.246C315.751 373.305 290.922 358.834 269.113 331.305C268.635 367.175 257.981 394.886 242.838 396.163C227.719 397.416 213.189 371.836 207.414 336.481C189.927 367.274 167.529 385.724 153.823 378.914C140.166 372.056 139.7 342.18 151.583 308.534C121.779 326.084 93.6182 330.259 85.0476 317.179C76.4786 304.049 90.2881 277.913 116.599 254.913C82.4817 254.492 56.1422 243.364 54.9689 227.494C53.7717 211.624 78.2059 196.221 111.875 190.079C82.573 171.735 64.963 152.444 71.466 139.62C77.9705 126.751 106.377 126.346 138.426 137.543C121.701 109.477 117.69 83.0265 130.144 74.9824C142.599 66.9383 167.496 79.9407 189.365 104.659C189.753 72.5721 200.342 47.8167 215.457 46.721C230.546 45.6471 245.227 68.5565 251.065 100.247C268.478 72.7104 290.816 56.2758 304.494 62.4322C318.218 68.6126 318.732 95.3171 306.979 125.425C336.702 109.795 364.847 106.127 373.481 117.879ZM238.028 206.634C237.466 205.714 237.115 204.683 236.974 203.541C235.905 203.576 234.884 203.361 233.91 202.897C232.983 202.451 232.199 201.767 231.557 200.844C230.615 201.452 229.641 201.791 228.635 201.861C227.597 201.947 226.574 201.774 225.567 201.342C225.083 202.357 224.341 203.188 223.51 203.79C222.648 204.383 221.673 204.755 220.585 204.907C220.646 206.063 220.446 207.136 219.986 208.126C219.543 209.1 218.88 209.941 217.998 210.651C218.576 211.588 218.912 212.611 219.006 213.718C219.069 214.807 218.885 215.88 218.455 216.938C219.419 217.494 220.163 218.169 220.756 219.115C221.383 219.987 221.743 221.002 221.836 222.159C222.953 222.109 223.974 222.315 224.901 222.778C225.811 223.24 226.603 223.933 227.276 224.856C228.203 224.248 229.177 223.91 230.199 223.84C231.253 223.738 232.268 223.91 233.242 224.358C233.774 223.37 234.421 222.511 235.323 221.911C236.154 221.308 237.169 220.937 238.226 220.768C238.211 219.664 238.411 218.565 238.847 217.575C239.26 216.558 239.977 215.777 240.811 215.049C240.25 214.095 239.922 213.073 239.828 211.983C239.749 210.893 239.94 209.82 240.402 208.763C239.415 208.215 238.623 207.505 238.028 206.634Z" stroke="white" stroke-width="3"/>
<path d="M219.833 110.284L218.515 111C219.751 110.329 219.828 110.288 219.833 110.285L219.834 110.287C219.835 110.288 219.836 110.29 219.837 110.291C219.839 110.295 219.841 110.3 219.845 110.306C219.851 110.318 219.86 110.336 219.872 110.359C219.896 110.404 219.931 110.47 219.976 110.556C220.065 110.728 220.195 110.982 220.359 111.314C220.689 111.978 221.159 112.959 221.729 114.239C222.871 116.798 224.415 120.555 226.042 125.374C228.716 133.295 231.615 144.091 233.316 157.156C237.569 141.108 244.529 124.974 255.975 112.704L258.089 110.438L258.555 113.502L257.072 113.728C258.472 113.515 258.55 113.504 258.555 113.504L258.556 113.505C258.556 113.506 258.555 113.508 258.556 113.51C258.556 113.514 258.558 113.52 258.559 113.527C258.561 113.54 258.563 113.56 258.566 113.585C258.574 113.635 258.584 113.708 258.597 113.803C258.622 113.993 258.657 114.272 258.698 114.636C258.781 115.364 258.887 116.433 258.985 117.815C259.182 120.579 259.346 124.597 259.224 129.644C259.023 137.901 258.051 148.917 255.193 161.709C264.73 147.81 276.921 134.659 291.97 126.447L294.798 124.904L294.159 128.061L292.688 127.763C294.07 128.042 294.153 128.06 294.158 128.062V128.064C294.158 128.065 294.158 128.067 294.157 128.069C294.156 128.072 294.156 128.078 294.154 128.084C294.151 128.098 294.147 128.117 294.142 128.142C294.131 128.191 294.115 128.263 294.095 128.357C294.053 128.544 293.991 128.817 293.905 129.173C293.733 129.885 293.465 130.928 293.082 132.264C292.316 134.936 291.089 138.786 289.234 143.529C286.217 151.247 281.536 161.336 274.482 172.57C288.276 162.219 304.3 153.341 321.359 149.997L324.7 149.342L322.929 152.249L321.648 151.469L322.929 152.25L322.928 152.251C322.927 152.252 322.926 152.253 322.926 152.254C322.924 152.256 322.923 152.259 322.921 152.263C322.916 152.27 322.91 152.281 322.901 152.294C322.885 152.321 322.861 152.361 322.829 152.411C322.766 152.512 322.672 152.659 322.548 152.851C322.3 153.234 321.928 153.794 321.433 154.512C320.441 155.948 318.948 158.016 316.93 160.568C313.774 164.557 309.329 169.728 303.507 175.515C314.845 171.663 326.684 169.219 338.463 169.261L341.976 169.274L339.538 171.802L338.458 170.761L339.537 171.803L339.534 171.806C339.532 171.808 339.53 171.811 339.526 171.815C339.52 171.821 339.51 171.831 339.498 171.843C339.474 171.868 339.439 171.903 339.394 171.949C339.302 172.042 339.168 172.176 338.99 172.35C338.635 172.698 338.108 173.205 337.41 173.849C336.014 175.138 333.935 176.978 331.183 179.2C326.771 182.763 320.627 187.308 312.797 192.149C323.832 191.078 334.912 191.298 345.361 193.649L348.812 194.425L345.854 196.366L345.853 196.367C345.851 196.368 345.85 196.369 345.849 196.37C345.845 196.373 345.84 196.375 345.834 196.379C345.822 196.387 345.805 196.398 345.783 196.412C345.739 196.441 345.675 196.483 345.59 196.536C345.42 196.644 345.17 196.8 344.841 197C344.182 197.401 343.208 197.977 341.929 198.692C339.371 200.12 335.595 202.1 330.699 204.318C322.775 207.908 311.911 212.124 298.521 215.647C316.057 217.132 334.086 221.031 348.747 229.445L351.849 231.225L348.404 232.19L348 230.745C348.376 232.088 348.402 232.183 348.403 232.19L348.402 232.191C348.401 232.191 348.399 232.191 348.397 232.192C348.394 232.193 348.388 232.195 348.381 232.197C348.367 232.2 348.347 232.206 348.321 232.213C348.27 232.227 348.194 232.247 348.096 232.273C347.899 232.324 347.609 232.399 347.229 232.492C346.468 232.679 345.346 232.939 343.89 233.24C340.976 233.843 336.72 234.609 331.321 235.272C322.564 236.346 310.794 237.148 296.864 236.533C312.946 243.102 328.662 252.108 339.659 264.412L341.977 267.005L338.501 266.911L338.541 265.412L338.5 266.911H338.493C338.489 266.911 338.483 266.911 338.476 266.91C338.461 266.91 338.441 266.909 338.414 266.908C338.36 266.907 338.282 266.904 338.18 266.9C337.975 266.891 337.673 266.876 337.28 266.853C336.494 266.806 335.339 266.723 333.853 266.58C330.88 266.295 326.576 265.77 321.224 264.809C312.497 263.242 300.978 260.515 287.894 255.78C300.906 266.768 312.763 279.989 318.957 294.967L320.227 298.037L317.084 296.959L317.57 295.54C317.096 296.921 317.084 296.958 317.083 296.959L317.081 296.958C317.08 296.958 317.078 296.957 317.076 296.956C317.072 296.955 317.067 296.954 317.061 296.951C317.047 296.947 317.027 296.94 317.002 296.931C316.952 296.913 316.879 296.887 316.783 296.853C316.592 296.784 316.312 296.68 315.947 296.541C315.218 296.264 314.153 295.843 312.794 295.268C310.076 294.117 306.179 292.345 301.438 289.85C293.68 285.767 283.655 279.744 272.833 271.337C281.443 285.613 288.143 301.71 288.834 317.743L288.97 320.912L286.435 319.007L287.335 317.808C286.471 318.958 286.435 319.005 286.434 319.007L286.432 319.006C286.431 319.005 286.429 319.004 286.428 319.003C286.425 319.001 286.421 318.997 286.415 318.992C286.404 318.984 286.387 318.972 286.366 318.956C286.325 318.924 286.264 318.878 286.186 318.817C286.028 318.694 285.798 318.513 285.501 318.274C284.906 317.794 284.042 317.081 282.953 316.133C280.774 314.238 277.692 311.407 274.055 307.646C268.069 301.456 260.576 292.74 253.132 281.526C256.452 297.709 257.321 315.06 252.455 330.509L251.534 333.434L249.791 330.91L251.024 330.058C249.791 330.911 249.79 330.91 249.79 330.909L249.789 330.908C249.788 330.907 249.787 330.906 249.786 330.905C249.784 330.901 249.781 330.896 249.777 330.891C249.769 330.879 249.758 330.862 249.743 330.841C249.714 330.798 249.672 330.736 249.618 330.655C249.51 330.492 249.352 330.251 249.15 329.936C248.748 329.305 248.17 328.372 247.458 327.152C246.034 324.711 244.076 321.117 241.919 316.479C238.369 308.846 234.279 298.38 231.148 285.569C228.663 301.888 223.484 318.642 213.499 331.903L211.644 334.367L210.852 331.385L212.301 331C210.947 331.36 210.858 331.383 210.852 331.384L210.851 331.382C210.85 331.381 210.85 331.38 210.85 331.378C210.849 331.374 210.847 331.368 210.846 331.362C210.842 331.348 210.836 331.329 210.83 331.305C210.818 331.256 210.8 331.184 210.777 331.091C210.732 330.905 210.666 330.631 210.585 330.273C210.423 329.557 210.201 328.503 209.951 327.138C209.452 324.407 208.847 320.426 208.411 315.393C207.695 307.122 207.436 296.003 208.863 282.917C200.893 297.69 190.288 312.059 176.197 321.652L173.573 323.438L173.859 320.277L175.353 320.412C173.937 320.284 173.863 320.277 173.859 320.276V320.269C173.86 320.265 173.861 320.26 173.861 320.253C173.863 320.239 173.865 320.22 173.867 320.195C173.872 320.144 173.879 320.071 173.89 319.976C173.91 319.786 173.943 319.508 173.989 319.146C174.083 318.421 174.234 317.359 174.468 315.994C174.935 313.264 175.731 309.319 177.05 304.427C179.205 296.432 182.757 285.903 188.553 274.008C175.952 285.608 160.97 296.033 144.38 300.97L141.191 301.919L142.592 298.902L143.952 299.532C142.622 298.915 142.592 298.901 142.592 298.901L142.603 298.879C142.608 298.867 142.616 298.848 142.627 298.825C142.649 298.779 142.681 298.712 142.724 298.625C142.808 298.451 142.934 298.196 143.103 297.866C143.44 297.206 143.948 296.243 144.638 295.017C146.018 292.563 148.128 289.053 151.063 284.8C155.824 277.903 162.755 269.048 172.261 259.566C156.354 266.837 138.664 272.229 121.297 271.995L117.814 271.948L120.241 269.45L121.317 270.495C120.282 269.489 120.243 269.451 120.242 269.449L120.259 269.433C120.269 269.423 120.283 269.408 120.301 269.39C120.337 269.353 120.391 269.299 120.461 269.229C120.601 269.089 120.81 268.885 121.084 268.622C121.633 268.096 122.448 267.333 123.528 266.373C125.689 264.454 128.907 261.749 133.161 258.582C140.032 253.468 149.606 247.149 161.791 240.993C144.34 243.166 125.798 243.023 109.531 237.675L106.146 236.563L109.309 234.919L110 236.25C109.351 235 109.312 234.924 109.31 234.919L109.311 234.918C109.312 234.918 109.314 234.917 109.315 234.916C109.319 234.914 109.324 234.912 109.33 234.908C109.343 234.902 109.361 234.892 109.385 234.88C109.432 234.856 109.501 234.822 109.591 234.777C109.771 234.687 110.037 234.556 110.387 234.389C111.086 234.055 112.119 233.577 113.47 232.991C116.172 231.82 120.146 230.219 125.261 228.488C133.548 225.682 144.835 222.531 158.562 220.308C141.262 217.147 123.729 211.579 110.122 201.784L107.234 199.706L110.739 199.09L110.999 200.568C110.739 199.09 110.74 199.09 110.74 199.09H110.741C110.742 199.09 110.744 199.089 110.746 199.089C110.75 199.088 110.756 199.087 110.763 199.086C110.777 199.084 110.798 199.08 110.824 199.075C110.877 199.067 110.954 199.054 111.055 199.038C111.256 199.006 111.554 198.96 111.942 198.905C112.72 198.794 113.864 198.644 115.347 198.487C118.312 198.171 122.632 197.823 128.079 197.686C136.931 197.462 148.766 197.796 162.607 199.737C147.269 191.648 132.584 181.172 123.014 167.894L121.005 165.108L124.414 165.529L124.23 167.017C124.414 165.528 124.414 165.528 124.415 165.529H124.416C124.417 165.529 124.419 165.529 124.421 165.53C124.425 165.53 124.431 165.531 124.438 165.531C124.453 165.533 124.474 165.536 124.5 165.539C124.553 165.546 124.631 165.556 124.732 165.571C124.935 165.599 125.234 165.643 125.622 165.703C126.399 165.825 127.539 166.017 129.003 166.3C131.931 166.866 136.159 167.797 141.382 169.258C149.904 171.642 161.084 175.44 173.604 181.375C161.829 169.241 151.518 154.988 147.006 139.49L146.093 136.355L149.066 137.704L148.446 139.071C149.066 137.705 149.067 137.705 149.067 137.705L149.068 137.706C149.07 137.707 149.071 137.707 149.073 137.708C149.077 137.71 149.082 137.712 149.089 137.715C149.102 137.721 149.121 137.729 149.145 137.74C149.193 137.763 149.262 137.796 149.354 137.839C149.536 137.926 149.804 138.054 150.15 138.226C150.844 138.57 151.856 139.086 153.143 139.784C155.717 141.181 159.394 143.307 163.831 146.231C171.103 151.022 180.422 157.963 190.278 167.366C183.263 152.34 178.366 135.728 179.487 119.65L179.704 116.538L181.999 118.65L180.984 119.753C181.939 118.716 181.996 118.654 182 118.651L182.001 118.652C182.002 118.652 182.003 118.653 182.005 118.655C182.008 118.657 182.012 118.661 182.018 118.666C182.028 118.676 182.043 118.69 182.062 118.707C182.1 118.743 182.155 118.794 182.227 118.863C182.37 118.999 182.579 119.201 182.849 119.467C183.388 119.999 184.169 120.789 185.149 121.833C187.109 123.921 189.864 127.026 193.068 131.109C198.338 137.824 204.825 147.194 210.983 159.056C209.454 142.664 210.531 125.322 217.144 110.393L218.378 107.605L219.833 110.284Z" fill="#FFE500" stroke="#746F6F" stroke-width="3"/>
<path d="M227.79 177.835L225.578 179C227.79 177.835 227.791 177.836 227.791 177.837L227.792 177.838C227.793 177.839 227.793 177.841 227.794 177.842C227.795 177.845 227.797 177.847 227.799 177.851C227.803 177.858 227.807 177.868 227.812 177.879C227.824 177.902 227.84 177.932 227.859 177.971C227.898 178.048 227.953 178.157 228.02 178.296C228.153 178.575 228.34 178.977 228.564 179.495C229.013 180.533 229.612 182.04 230.24 183.963C230.714 185.412 231.205 187.099 231.66 189.001C233.253 185.155 235.368 181.486 238.173 178.393L241.736 174.463L242.499 179.713L240.024 180.073C242.498 179.713 242.499 179.714 242.499 179.715V179.716C242.499 179.717 242.5 179.719 242.5 179.72C242.5 179.723 242.5 179.727 242.501 179.731C242.502 179.739 242.504 179.749 242.506 179.762C242.509 179.787 242.513 179.821 242.519 179.864C242.529 179.948 242.544 180.068 242.561 180.22C242.593 180.525 242.634 180.964 242.672 181.524C242.747 182.644 242.808 184.254 242.759 186.267C242.722 187.747 242.625 189.446 242.43 191.33C245.206 188.19 248.412 185.373 252.078 183.295L256.806 180.615L255.765 185.949L253.311 185.47C255.617 185.92 255.756 185.948 255.764 185.95V185.952C255.763 185.954 255.763 185.955 255.763 185.956C255.762 185.959 255.762 185.963 255.761 185.967C255.759 185.975 255.757 185.985 255.755 185.997C255.75 186.022 255.742 186.056 255.733 186.098C255.715 186.182 255.689 186.3 255.654 186.449C255.584 186.749 255.478 187.177 255.328 187.72C255.027 188.805 254.55 190.35 253.833 192.243C253.317 193.607 252.674 195.151 251.885 196.836C255.54 194.719 259.484 193.036 263.614 192.191L269.09 191.07L266.275 195.899L264.115 194.64L266.275 195.9L266.272 195.903C266.271 195.904 266.271 195.907 266.27 195.909C266.267 195.914 266.263 195.92 266.259 195.927C266.25 195.941 266.239 195.96 266.225 195.984C266.197 196.03 266.157 196.095 266.106 196.177C266.005 196.341 265.857 196.572 265.663 196.865C265.274 197.452 264.696 198.286 263.918 199.307C263.666 199.637 263.391 199.986 263.097 200.354C265.509 199.865 267.96 199.591 270.416 199.609L276.096 199.649L272.229 203.81L270.398 202.108L272.229 203.811L272.221 203.82C272.217 203.824 272.212 203.829 272.206 203.835C272.194 203.848 272.178 203.865 272.158 203.886C272.118 203.928 272.061 203.987 271.988 204.061C271.843 204.209 271.633 204.418 271.358 204.681C270.81 205.207 270.003 205.947 268.942 206.835C268.412 207.279 267.817 207.759 267.16 208.27C269.275 208.366 271.377 208.627 273.438 209.099L279.058 210.386L274.277 213.61L272.88 211.536L274.275 213.61L274.274 213.611L274.236 213.636C274.215 213.65 274.187 213.669 274.15 213.693C274.078 213.74 273.974 213.806 273.842 213.889C273.576 214.055 273.191 214.289 272.691 214.576C271.692 215.151 270.233 215.938 268.352 216.819C267.036 217.434 265.51 218.093 263.791 218.759C267.835 219.661 271.781 221.054 275.281 223.143L280.23 226.097L274.691 227.693L274 225.29L274.69 227.693L274.688 227.694C274.688 227.694 274.687 227.694 274.686 227.695C274.683 227.695 274.679 227.696 274.675 227.698C274.667 227.7 274.657 227.702 274.646 227.705C274.621 227.712 274.587 227.721 274.545 227.733C274.46 227.756 274.34 227.788 274.187 227.826C273.879 227.904 273.434 228.01 272.863 228.131C271.721 228.374 270.07 228.68 267.986 228.944C266.508 229.131 264.81 229.295 262.921 229.403C266.452 231.49 269.722 234.008 272.334 237.044L276.036 241.348L270.361 241.173L270.438 238.674L270.36 241.173H270.354C270.352 241.173 270.349 241.172 270.345 241.172C270.337 241.172 270.326 241.172 270.313 241.171C270.288 241.17 270.253 241.168 270.21 241.166C270.123 241.162 269.999 241.156 269.841 241.146C269.525 241.125 269.07 241.09 268.49 241.031C267.331 240.914 265.67 240.702 263.612 240.319C262.106 240.038 260.386 239.664 258.493 239.17C261.166 242.25 263.444 245.661 264.917 249.358L266.956 254.475L261.763 252.641L262.595 250.283L261.761 252.64H261.76C261.759 252.64 261.757 252.639 261.756 252.639C261.753 252.638 261.75 252.636 261.746 252.635C261.738 252.632 261.729 252.629 261.717 252.624C261.693 252.616 261.66 252.603 261.619 252.588C261.537 252.558 261.422 252.515 261.275 252.457C260.982 252.342 260.562 252.171 260.031 251.94C258.97 251.477 257.465 250.772 255.641 249.782C254.277 249.043 252.734 248.144 251.064 247.07C252.601 250.837 253.652 254.815 253.808 258.838L254.015 264.176L249.783 260.915L251.31 258.935C249.783 260.915 249.783 260.915 249.782 260.914L249.778 260.91C249.776 260.909 249.773 260.907 249.77 260.905C249.763 260.9 249.755 260.893 249.745 260.885C249.725 260.869 249.698 260.848 249.664 260.821C249.596 260.766 249.5 260.689 249.38 260.589C249.139 260.389 248.796 260.098 248.369 259.715C247.515 258.949 246.321 257.816 244.92 256.315C243.858 255.177 242.677 253.826 241.434 252.263C241.64 256.359 241.306 260.501 240.091 264.409L238.531 269.427L235.622 265.052L237.704 263.667L235.621 265.05L235.62 265.049L235.595 265.011C235.581 264.99 235.562 264.96 235.539 264.924C235.493 264.851 235.428 264.748 235.347 264.616C235.184 264.352 234.957 263.97 234.68 263.476C234.125 262.487 233.369 261.045 232.54 259.194C231.913 257.793 231.243 256.156 230.585 254.3C229.417 258.277 227.719 262.13 225.275 265.475L222.149 269.754L220.835 264.62L223.257 264C220.835 264.62 220.835 264.619 220.835 264.618V264.617C220.835 264.616 220.834 264.615 220.834 264.614C220.833 264.611 220.832 264.607 220.831 264.603C220.829 264.595 220.826 264.585 220.823 264.573C220.817 264.548 220.81 264.515 220.8 264.474C220.78 264.391 220.752 264.273 220.72 264.123C220.655 263.823 220.567 263.391 220.47 262.838C220.275 261.732 220.042 260.137 219.875 258.13C219.751 256.638 219.663 254.916 219.655 252.996C217.225 256.417 214.332 259.551 210.892 261.977L206.492 265.078L206.961 259.716L209.451 259.933C207.078 259.726 206.966 259.715 206.961 259.714V259.709C206.961 259.706 206.962 259.702 206.962 259.698C206.963 259.69 206.964 259.68 206.965 259.667C206.967 259.642 206.971 259.608 206.976 259.566C206.985 259.481 206.998 259.361 207.017 259.208C207.055 258.903 207.114 258.466 207.206 257.911C207.389 256.802 207.699 255.217 208.207 253.263C208.577 251.842 209.053 250.225 209.663 248.451C206.242 250.924 202.487 252.995 198.477 254.258L193.163 255.931L195.445 250.849L197.726 251.873C195.475 250.863 195.445 250.849 195.445 250.848L195.446 250.846C195.447 250.845 195.448 250.844 195.448 250.843C195.449 250.84 195.451 250.837 195.452 250.833C195.456 250.826 195.461 250.816 195.466 250.805C195.476 250.782 195.49 250.75 195.509 250.711C195.546 250.633 195.598 250.524 195.667 250.385C195.804 250.107 196.006 249.711 196.277 249.212C196.82 248.215 197.64 246.806 198.773 245.11C199.578 243.904 200.543 242.553 201.678 241.1C197.651 242.376 193.451 243.174 189.258 243.133L183.569 243.077L187.457 238.925L189.282 240.634C187.527 238.991 187.46 238.927 187.458 238.924L187.462 238.92C187.464 238.918 187.466 238.915 187.469 238.912C187.474 238.906 187.482 238.899 187.49 238.89C187.508 238.872 187.532 238.847 187.562 238.816C187.622 238.754 187.707 238.666 187.817 238.556C188.038 238.336 188.36 238.025 188.781 237.637C189.623 236.862 190.865 235.781 192.498 234.522C193.638 233.643 194.97 232.678 196.491 231.667C192.312 231.643 188.118 231.118 184.205 229.805L178.765 227.98L183.806 225.238L185 227.435C183.844 225.309 183.807 225.24 183.807 225.238L183.809 225.237C183.81 225.236 183.81 225.235 183.812 225.235C183.814 225.233 183.818 225.232 183.821 225.23C183.828 225.226 183.838 225.221 183.849 225.215C183.871 225.203 183.902 225.186 183.94 225.166C184.018 225.126 184.128 225.07 184.269 224.999C184.551 224.858 184.96 224.661 185.488 224.421C186.545 223.942 188.084 223.296 190.056 222.6C191.444 222.11 193.049 221.595 194.853 221.097C190.922 219.798 187.153 218.027 183.908 215.613L179.304 212.187L184.948 211.148L185.4 213.607C184.948 211.148 184.949 211.148 184.949 211.148H184.951C184.952 211.148 184.953 211.147 184.954 211.147C184.957 211.146 184.961 211.145 184.965 211.145C184.973 211.143 184.983 211.141 184.995 211.139C185.02 211.135 185.055 211.13 185.098 211.122C185.184 211.108 185.306 211.088 185.463 211.065C185.776 211.018 186.229 210.956 186.809 210.891C187.967 210.761 189.638 210.619 191.734 210.562C193.229 210.521 194.942 210.524 196.842 210.604C193.565 208.188 190.596 205.372 188.312 202.096L185.103 197.493L190.671 198.185L190.362 200.666C190.654 198.315 190.67 198.192 190.672 198.186H190.678C190.68 198.186 190.684 198.187 190.688 198.188C190.696 198.189 190.706 198.19 190.719 198.192C190.744 198.195 190.779 198.199 190.822 198.205C190.909 198.218 191.031 198.236 191.188 198.261C191.5 198.311 191.95 198.388 192.521 198.501C193.662 198.727 195.294 199.095 197.302 199.673C198.771 200.096 200.444 200.634 202.275 201.309C199.943 197.993 198.035 194.381 196.959 190.545L195.481 185.28L200.431 187.608L199.366 189.87C200.384 187.706 200.429 187.612 200.432 187.609L200.434 187.61C200.434 187.61 200.436 187.61 200.437 187.611C200.439 187.612 200.443 187.614 200.446 187.615C200.454 187.619 200.463 187.624 200.475 187.629C200.497 187.64 200.528 187.655 200.567 187.674C200.646 187.713 200.756 187.768 200.896 187.84C201.177 187.984 201.578 188.196 202.082 188.479C203.091 189.045 204.517 189.896 206.229 191.061C207.522 191.939 208.979 192.998 210.545 194.246C209.419 190.323 208.809 186.241 209.077 182.199L209.433 176.837L213.306 180.563L211.572 182.365C213.295 180.574 213.306 180.563 213.307 180.564L213.308 180.566C213.308 180.566 213.31 180.567 213.311 180.568C213.313 180.57 213.315 180.573 213.317 180.575C213.323 180.581 213.331 180.588 213.34 180.597C213.358 180.615 213.383 180.639 213.413 180.669C213.474 180.73 213.56 180.816 213.668 180.927C213.884 181.15 214.19 181.475 214.571 181.899C215.333 182.746 216.392 183.991 217.62 185.62C218.559 186.866 219.597 188.339 220.677 190.031C220.902 185.915 221.672 181.806 223.277 178.024L225.336 173.174L227.79 177.835ZM186.191 229.632H186.192L186.193 229.631L186.192 229.63L186.191 229.632Z" fill="black" stroke="white" stroke-width="5"/>
<defs>
<linearGradient id="paint0_linear_93_10" x1="-108.085" y1="36.6969" x2="359.064" y2="-104.295" gradientUnits="userSpaceOnUse">
<stop offset="0.0336538" stop-color="#231D1D"/>
<stop offset="0.0337538"/>
<stop offset="0.177885"/>
<stop offset="0.216346" stop-color="#313135"/>
<stop offset="0.293269"/>
<stop offset="0.341346" stop-color="#5F5F60"/>
<stop offset="0.447115"/>
<stop offset="0.447215" stop-color="#010101"/>
<stop offset="0.447315" stop-color="#252424"/>
<stop offset="0.538462" stop-color="#020202"/>
<stop offset="0.591346" stop-color="#6E6A6A"/>
<stop offset="0.668269" stop-color="#1F1B1C"/>
<stop offset="0.706731" stop-color="#1A1819"/>
<stop offset="0.75"/>
<stop offset="0.899038" stop-color="#3F3F46"/>
</linearGradient>
</defs>
</svg>
