<svg width="455" height="601" viewBox="0 0 455 601" fill="none" xmlns="http://www.w3.org/2000/svg">
<path d="M373.825 82.6036C338.263 82.6036 309.442 109.727 309.442 143.166C309.442 160.363 317.085 175.836 329.296 186.849C316.295 195.846 303.661 205.241 291.168 214.795C281.975 221.987 272.866 229.232 263.898 236.716L235.697 258.505C235.302 234.673 234.71 210.841 233.638 186.982C232.774 165.326 231.589 143.67 230.085 122.014C261.501 118.007 285.754 92.715 285.754 62.0623C285.754 28.5965 256.932 1.5 221.399 1.5C185.866 1.5 157.045 28.5965 157.045 62.0623C157.045 94.5197 184.202 120.953 218.325 122.465C216.803 143.989 215.703 165.485 214.8 186.982C213.757 210.23 213.136 233.479 212.742 256.727L178.901 230.559C169.961 223.102 160.824 215.83 151.63 208.638C138.968 198.978 126.222 189.477 113.052 180.374C125.516 169.334 133.328 153.702 133.328 136.345C133.328 102.88 104.535 75.783 68.9739 75.783C33.4409 75.783 4.61963 102.88 4.61963 136.345C4.61963 169.785 33.4409 196.908 68.9739 196.908C82.4821 196.908 95.0032 192.98 105.353 186.292C117.79 197.147 130.734 207.47 143.734 217.688C153.012 224.747 162.319 231.754 171.822 238.574L212.572 270.103C212.535 272.226 212.507 274.349 212.488 276.472L212.121 276.764L212.46 277.136C212.309 290.034 212.196 302.932 212.121 315.83C212.262 346.058 212.601 376.286 213.418 406.514V576.072H234.992V406.381C235.838 376.206 236.177 346.031 236.318 315.83C236.224 301.18 236.083 286.53 235.895 271.881L270.976 244.731C280.48 237.911 289.786 230.904 299.064 223.845C311.924 213.733 324.699 203.542 337.023 192.821C347.457 199.694 360.119 203.728 373.825 203.728C409.358 203.728 438.179 176.632 438.179 143.166C438.179 109.727 409.358 82.6036 373.825 82.6036Z" fill="black" fill-opacity="0.41"/>
<path d="M373.825 82.6036C338.263 82.6036 309.442 109.727 309.442 143.166C309.442 160.363 317.085 175.836 329.296 186.849C316.295 195.846 303.661 205.241 291.168 214.795C281.975 221.987 272.866 229.232 263.898 236.716L235.697 258.505C235.302 234.673 234.71 210.841 233.638 186.982C232.774 165.326 231.589 143.67 230.085 122.014C261.501 118.007 285.754 92.715 285.754 62.0623C285.754 28.5965 256.932 1.5 221.399 1.5C185.866 1.5 157.045 28.5965 157.045 62.0623C157.045 94.5197 184.202 120.953 218.325 122.465C216.803 143.989 215.703 165.485 214.8 186.982C213.757 210.23 213.136 233.479 212.742 256.727L178.901 230.559C169.961 223.102 160.824 215.83 151.63 208.638C138.968 198.978 126.222 189.477 113.052 180.374C125.516 169.334 133.328 153.702 133.328 136.345C133.328 102.88 104.535 75.783 68.9739 75.783C33.4409 75.783 4.61963 102.88 4.61963 136.345C4.61963 169.785 33.4409 196.908 68.9739 196.908C82.4821 196.908 95.0032 192.98 105.353 186.292C117.79 197.147 130.734 207.47 143.734 217.688C153.012 224.747 162.319 231.754 171.822 238.574L212.572 270.103C212.535 272.226 212.507 274.349 212.488 276.472L212.121 276.764L212.46 277.136C212.309 290.034 212.196 302.932 212.121 315.83C212.262 346.058 212.601 376.286 213.418 406.514V576.072H234.992V406.381C235.838 376.206 236.177 346.031 236.318 315.83C236.224 301.18 236.083 286.53 235.895 271.881L270.976 244.731C280.48 237.911 289.786 230.904 299.064 223.845C311.924 213.733 324.699 203.542 337.023 192.821C347.457 199.694 360.119 203.728 373.825 203.728C409.358 203.728 438.179 176.632 438.179 143.166C438.179 109.727 409.358 82.6036 373.825 82.6036Z" fill="url(#paint0_linear_93_112)" fill-opacity="0.57"/>
<path d="M373.825 82.6036C338.263 82.6036 309.442 109.727 309.442 143.166C309.442 160.363 317.085 175.836 329.296 186.849C316.295 195.846 303.661 205.241 291.168 214.795C281.975 221.987 272.866 229.232 263.898 236.716L235.697 258.505C235.302 234.673 234.71 210.841 233.638 186.982C232.774 165.326 231.589 143.67 230.085 122.014C261.501 118.007 285.754 92.715 285.754 62.0623C285.754 28.5965 256.932 1.5 221.399 1.5C185.866 1.5 157.045 28.5965 157.045 62.0623C157.045 94.5197 184.202 120.953 218.325 122.465C216.803 143.989 215.703 165.485 214.8 186.982C213.757 210.23 213.136 233.479 212.742 256.727L178.901 230.559C169.961 223.102 160.824 215.83 151.63 208.638C138.968 198.978 126.222 189.477 113.052 180.374C125.516 169.334 133.328 153.702 133.328 136.345C133.328 102.88 104.535 75.783 68.9739 75.783C33.4409 75.783 4.61963 102.88 4.61963 136.345C4.61963 169.785 33.4409 196.908 68.9739 196.908C82.4821 196.908 95.0032 192.98 105.353 186.292C117.79 197.147 130.734 207.47 143.734 217.688C153.012 224.747 162.319 231.754 171.822 238.574L212.572 270.103C212.535 272.226 212.507 274.349 212.488 276.472L212.121 276.764L212.46 277.136C212.309 290.034 212.196 302.932 212.121 315.83C212.262 346.058 212.601 376.286 213.418 406.514V576.072H234.992V406.381C235.838 376.206 236.177 346.031 236.318 315.83C236.224 301.18 236.083 286.53 235.895 271.881L270.976 244.731C280.48 237.911 289.786 230.904 299.064 223.845C311.924 213.733 324.699 203.542 337.023 192.821C347.457 199.694 360.119 203.728 373.825 203.728C409.358 203.728 438.179 176.632 438.179 143.166C438.179 109.727 409.358 82.6036 373.825 82.6036Z" fill="black" fill-opacity="0.13"/>
<path d="M373.825 82.6036C338.263 82.6036 309.442 109.727 309.442 143.166C309.442 160.363 317.085 175.836 329.296 186.849C316.295 195.846 303.661 205.241 291.168 214.795C281.975 221.987 272.866 229.232 263.898 236.716L235.697 258.505C235.302 234.673 234.71 210.841 233.638 186.982C232.774 165.326 231.589 143.67 230.085 122.014C261.501 118.007 285.754 92.715 285.754 62.0623C285.754 28.5965 256.932 1.5 221.399 1.5C185.866 1.5 157.045 28.5965 157.045 62.0623C157.045 94.5197 184.202 120.953 218.325 122.465C216.803 143.989 215.703 165.485 214.8 186.982C213.757 210.23 213.136 233.479 212.742 256.727L178.901 230.559C169.961 223.102 160.824 215.83 151.63 208.638C138.968 198.978 126.222 189.477 113.052 180.374C125.516 169.334 133.328 153.702 133.328 136.345C133.328 102.88 104.535 75.783 68.9739 75.783C33.4409 75.783 4.61963 102.88 4.61963 136.345C4.61963 169.785 33.4409 196.908 68.9739 196.908C82.4821 196.908 95.0032 192.98 105.353 186.292C117.79 197.147 130.734 207.47 143.734 217.688C153.012 224.747 162.319 231.754 171.822 238.574L212.572 270.103C212.535 272.226 212.507 274.349 212.488 276.472L212.121 276.764L212.46 277.136C212.309 290.034 212.196 302.932 212.121 315.83C212.262 346.058 212.601 376.286 213.418 406.514V576.072H234.992V406.381C235.838 376.206 236.177 346.031 236.318 315.83C236.224 301.18 236.083 286.53 235.895 271.881L270.976 244.731C280.48 237.911 289.786 230.904 299.064 223.845C311.924 213.733 324.699 203.542 337.023 192.821C347.457 199.694 360.119 203.728 373.825 203.728C409.358 203.728 438.179 176.632 438.179 143.166C438.179 109.727 409.358 82.6036 373.825 82.6036Z" fill="#FFE500"/>
<path d="M373.825 82.6036C338.263 82.6036 309.442 109.727 309.442 143.166C309.442 160.363 317.085 175.836 329.296 186.849C316.295 195.846 303.661 205.241 291.168 214.795C281.975 221.987 272.866 229.232 263.898 236.716L235.697 258.505C235.302 234.673 234.71 210.841 233.638 186.982C232.774 165.326 231.589 143.67 230.085 122.014C261.501 118.007 285.754 92.715 285.754 62.0623C285.754 28.5965 256.932 1.5 221.399 1.5C185.866 1.5 157.045 28.5965 157.045 62.0623C157.045 94.5197 184.202 120.953 218.325 122.465C216.803 143.989 215.703 165.485 214.8 186.982C213.757 210.23 213.136 233.479 212.742 256.727L178.901 230.559C169.961 223.102 160.824 215.83 151.63 208.638C138.968 198.978 126.222 189.477 113.052 180.374C125.516 169.334 133.328 153.702 133.328 136.345C133.328 102.88 104.535 75.783 68.9739 75.783C33.4409 75.783 4.61963 102.88 4.61963 136.345C4.61963 169.785 33.4409 196.908 68.9739 196.908C82.4821 196.908 95.0032 192.98 105.353 186.292C117.79 197.147 130.734 207.47 143.734 217.688C153.012 224.747 162.319 231.754 171.822 238.574L212.572 270.103C212.535 272.226 212.507 274.349 212.488 276.472L212.121 276.764L212.46 277.136C212.309 290.034 212.196 302.932 212.121 315.83C212.262 346.058 212.601 376.286 213.418 406.514V576.072H234.992V406.381C235.838 376.206 236.177 346.031 236.318 315.83C236.224 301.18 236.083 286.53 235.895 271.881L270.976 244.731C280.48 237.911 289.786 230.904 299.064 223.845C311.924 213.733 324.699 203.542 337.023 192.821C347.457 199.694 360.119 203.728 373.825 203.728C409.358 203.728 438.179 176.632 438.179 143.166C438.179 109.727 409.358 82.6036 373.825 82.6036Z" stroke="white" stroke-width="3"/>
<ellipse cx="69.2484" cy="137.458" rx="43.6679" ry="43.7432" fill="black" fill-opacity="0.41"/>
<ellipse cx="69.2484" cy="137.458" rx="43.6679" ry="43.7432" fill="url(#paint1_linear_93_112)" fill-opacity="0.57"/>
<ellipse cx="69.2484" cy="137.458" rx="43.6679" ry="43.7432" fill="black" fill-opacity="0.13"/>
<ellipse cx="69.2484" cy="137.458" rx="43.6679" ry="43.7432" stroke="white" stroke-width="3"/>
<ellipse cx="221.795" cy="60.6124" rx="43.6679" ry="43.7432" fill="black" fill-opacity="0.41"/>
<ellipse cx="221.795" cy="60.6124" rx="43.6679" ry="43.7432" fill="url(#paint2_linear_93_112)" fill-opacity="0.57"/>
<ellipse cx="221.795" cy="60.6124" rx="43.6679" ry="43.7432" fill="black" fill-opacity="0.13"/>
<ellipse cx="221.795" cy="60.6124" rx="43.6679" ry="43.7432" stroke="white" stroke-width="3"/>
<ellipse cx="373.177" cy="143.37" rx="43.6679" ry="43.7432" fill="black" fill-opacity="0.41"/>
<ellipse cx="373.177" cy="143.37" rx="43.6679" ry="43.7432" fill="url(#paint3_linear_93_112)" fill-opacity="0.57"/>
<ellipse cx="373.177" cy="143.37" rx="43.6679" ry="43.7432" fill="black" fill-opacity="0.13"/>
<ellipse cx="373.177" cy="143.37" rx="43.6679" ry="43.7432" stroke="white" stroke-width="3"/>
<path d="M231.483 576.664L395.528 535.608C395.528 535.608 506.723 519.366 420.626 391.951C328.522 255.646 231.483 576.664 231.483 576.664Z" fill="black" fill-opacity="0.41"/>
<path d="M231.483 576.664L395.528 535.608C395.528 535.608 506.723 519.366 420.626 391.951C328.522 255.646 231.483 576.664 231.483 576.664Z" fill="url(#paint4_linear_93_112)" fill-opacity="0.57"/>
<path d="M231.483 576.664L395.528 535.608C395.528 535.608 506.723 519.366 420.626 391.951C328.522 255.646 231.483 576.664 231.483 576.664Z" fill="black" fill-opacity="0.13"/>
<path d="M231.483 576.664L395.528 535.608C395.528 535.608 506.723 519.366 420.626 391.951C328.522 255.646 231.483 576.664 231.483 576.664Z" stroke="white" stroke-width="3"/>
<path d="M215.043 576.664L54.6081 524.381C54.6081 524.381 -55.0367 500.523 40.7615 379.398C143.243 249.808 215.043 576.664 215.043 576.664Z" fill="black" fill-opacity="0.41"/>
<path d="M215.043 576.664L54.6081 524.381C54.6081 524.381 -55.0367 500.523 40.7615 379.398C143.243 249.808 215.043 576.664 215.043 576.664Z" fill="url(#paint5_linear_93_112)" fill-opacity="0.57"/>
<path d="M215.043 576.664L54.6081 524.381C54.6081 524.381 -55.0367 500.523 40.7615 379.398C143.243 249.808 215.043 576.664 215.043 576.664Z" fill="black" fill-opacity="0.13"/>
<path d="M215.043 576.664L54.6081 524.381C54.6081 524.381 -55.0367 500.523 40.7615 379.398C143.243 249.808 215.043 576.664 215.043 576.664Z" stroke="white" stroke-width="3"/>
<defs>
<linearGradient id="paint0_linear_93_112" x1="239.262" y1="485.63" x2="137.403" y2="-367.015" gradientUnits="userSpaceOnUse">
<stop stop-color="#FFE500"/>
<stop offset="0.0890353" stop-color="#FFE500"/>
<stop offset="0.447115"/>
<stop offset="0.447315" stop-color="#252424"/>
<stop offset="0.5" stop-color="#231D1D"/>
<stop offset="0.706731" stop-color="#1A1819"/>
<stop offset="0.75"/>
</linearGradient>
<linearGradient id="paint1_linear_93_112" x1="2.76826" y1="166.353" x2="111.105" y2="88.2978" gradientUnits="userSpaceOnUse">
<stop offset="0.0336538" stop-color="#231D1D"/>
<stop offset="0.0337538"/>
<stop offset="0.177885"/>
<stop offset="0.216346" stop-color="#313135"/>
<stop offset="0.293269"/>
<stop offset="0.341346" stop-color="#5F5F60"/>
<stop offset="0.447115"/>
<stop offset="0.447215" stop-color="#010101"/>
<stop offset="0.447315" stop-color="#252424"/>
<stop offset="0.538462" stop-color="#020202"/>
<stop offset="0.591346" stop-color="#6E6A6A"/>
<stop offset="0.668269" stop-color="#1F1B1C"/>
<stop offset="0.706731" stop-color="#1A1819"/>
<stop offset="0.75"/>
<stop offset="0.899038" stop-color="#3F3F46"/>
</linearGradient>
<linearGradient id="paint2_linear_93_112" x1="139.699" y1="99.0355" x2="259.313" y2="7.76957" gradientUnits="userSpaceOnUse">
<stop offset="0.0336538" stop-color="#231D1D"/>
<stop offset="0.0337538"/>
<stop offset="0.177885"/>
<stop offset="0.216346" stop-color="#313135"/>
<stop offset="0.293269"/>
<stop offset="0.341346" stop-color="#5F5F60"/>
<stop offset="0.447115"/>
<stop offset="0.447215" stop-color="#010101"/>
<stop offset="0.447315" stop-color="#252424"/>
<stop offset="0.538462" stop-color="#020202"/>
<stop offset="0.591346" stop-color="#6E6A6A"/>
<stop offset="0.668269" stop-color="#1F1B1C"/>
<stop offset="0.706731" stop-color="#1A1819"/>
<stop offset="0.75"/>
<stop offset="0.899038" stop-color="#3F3F46"/>
</linearGradient>
<linearGradient id="paint3_linear_93_112" x1="411.022" y1="171.744" x2="229.694" y2="133.39" gradientUnits="userSpaceOnUse">
<stop offset="0.0336538" stop-color="#231D1D"/>
<stop offset="0.0337538"/>
<stop offset="0.177885"/>
<stop offset="0.216346" stop-color="#313135"/>
<stop offset="0.293269"/>
<stop offset="0.341346" stop-color="#5F5F60"/>
<stop offset="0.447115"/>
<stop offset="0.447215" stop-color="#010101"/>
<stop offset="0.447315" stop-color="#252424"/>
<stop offset="0.538462" stop-color="#020202"/>
<stop offset="0.591346" stop-color="#6E6A6A"/>
<stop offset="0.668269" stop-color="#1F1B1C"/>
<stop offset="0.706731" stop-color="#1A1819"/>
<stop offset="0.75"/>
<stop offset="0.899038" stop-color="#3F3F46"/>
</linearGradient>
<linearGradient id="paint4_linear_93_112" x1="173.54" y1="539.591" x2="445.465" y2="340.275" gradientUnits="userSpaceOnUse">
<stop offset="0.0336538" stop-color="#231D1D"/>
<stop offset="0.0337538"/>
<stop offset="0.177885"/>
<stop offset="0.216346" stop-color="#313135"/>
<stop offset="0.293269"/>
<stop offset="0.341346" stop-color="#5F5F60"/>
<stop offset="0.447115"/>
<stop offset="0.447215" stop-color="#010101"/>
<stop offset="0.447315" stop-color="#252424"/>
<stop offset="0.538462" stop-color="#020202"/>
<stop offset="0.591346" stop-color="#6E6A6A"/>
<stop offset="0.668269" stop-color="#1F1B1C"/>
<stop offset="0.706731" stop-color="#1A1819"/>
<stop offset="0.75"/>
<stop offset="0.899038" stop-color="#3F3F46"/>
</linearGradient>
<linearGradient id="paint5_linear_93_112" x1="-54.2778" y1="538.026" x2="221.653" y2="351.221" gradientUnits="userSpaceOnUse">
<stop offset="0.0336538" stop-color="#231D1D"/>
<stop offset="0.0337538"/>
<stop offset="0.177885"/>
<stop offset="0.216346" stop-color="#313135"/>
<stop offset="0.293269"/>
<stop offset="0.341346" stop-color="#5F5F60"/>
<stop offset="0.447115"/>
<stop offset="0.447215" stop-color="#010101"/>
<stop offset="0.447315" stop-color="#252424"/>
<stop offset="0.538462" stop-color="#020202"/>
<stop offset="0.591346" stop-color="#6E6A6A"/>
<stop offset="0.668269" stop-color="#1F1B1C"/>
<stop offset="0.706731" stop-color="#1A1819"/>
<stop offset="0.75"/>
<stop offset="0.899038" stop-color="#3F3F46"/>
</linearGradient>
</defs>
</svg>
