<svg width="278" height="495" viewBox="0 0 278 495" fill="none" xmlns="http://www.w3.org/2000/svg">
<path d="M132.547 13.0645C150.862 3.69346 172.255 1.02044 192.539 1.56836C212.835 2.11662 232.134 5.89342 246.343 9.52539C253.451 11.3424 259.296 13.1257 263.367 14.4561C265.403 15.1213 266.996 15.6738 268.082 16.0605C268.625 16.2539 269.042 16.4056 269.324 16.5098C269.465 16.5619 269.573 16.6025 269.646 16.6299C269.682 16.6435 269.71 16.654 269.729 16.6611C269.738 16.6646 269.745 16.667 269.75 16.6689C269.752 16.6698 269.755 16.6704 269.756 16.6709C269.757 16.6715 269.759 16.6723 269.224 18.0732L269.759 16.6719L269.424 18.4844L269.913 19.3955C268.14 20.3467 266.154 22.1349 264.059 24.7529C261.975 27.3556 259.843 30.7028 257.756 34.6758C253.583 42.6209 249.641 52.971 246.644 64.6377C240.643 87.9937 238.482 116.409 245.637 141.154C256.331 178.124 294.337 284.457 265.629 404.042C257.786 436.699 237.82 458.034 212.381 471.622C186.991 485.183 156.15 491.034 126.41 492.844C96.6532 494.654 67.8859 492.425 46.5713 489.748C35.9107 488.409 27.1058 486.958 20.9629 485.84C17.8914 485.281 15.4845 484.805 13.8438 484.469C13.0233 484.301 12.3937 484.167 11.9688 484.075C11.7565 484.029 11.5952 483.994 11.4863 483.97C11.4319 483.958 11.3903 483.949 11.3623 483.942C11.3484 483.939 11.3373 483.937 11.3301 483.936C11.3267 483.935 11.324 483.934 11.3223 483.934C11.3202 483.933 11.3188 483.933 11.6484 482.47L11.3184 483.933L5.82422 482.695L11.207 481.036C19.1689 478.582 26.0449 472.06 32.0059 461.987C37.9613 451.924 42.9036 438.48 47.0615 422.495C55.3762 390.53 60.4741 348.73 64.4297 304.274C66.4066 282.057 68.0962 259.198 69.7607 236.596C71.4249 213.997 73.0646 191.653 74.9395 170.482C78.6859 128.179 83.384 90.4231 91.1562 64.6045V64.6035C99.0021 38.5518 114.178 22.4627 132.547 13.0645Z" fill="url(#paint0_linear_93_106)" fill-opacity="0.91" stroke="white" stroke-width="3"/>
<path d="M187.648 482C150.068 285.633 255.648 176 255.648 176C255.648 176 274.285 227.85 275.647 317C275.689 362.84 267.148 398 259.148 422C241.148 461.5 187.648 482 187.648 482Z" fill="#26FB00" stroke="white" stroke-width="3"/>
<path d="M38.9272 334.953C38.9272 334.953 148.429 322.653 165.843 199.141C165.843 199.141 90.6911 175.886 56.4252 248.08C34.3882 297.478 38.9272 334.953 38.9272 334.953Z" fill="#8FFF00" stroke="white" stroke-width="3"/>
<path d="M178.014 23.5C187.908 23.5001 195.874 31.7041 195.874 41.7529C195.874 51.802 187.908 60.0067 178.014 60.0068C168.115 60.0068 160.148 51.8023 160.148 41.7529C160.149 31.7038 168.116 23.5 178.014 23.5Z" fill="#8FFF00" stroke="white" stroke-width="3"/>
<path d="M186.648 54.5C191.711 54.5 194.648 47.6285 194.648 41C194.148 35.5 193.194 30.7176 189.148 29.7752C188.598 29.6121 187.807 29.5 186.648 29.5C181.581 29.5 176.648 34.7409 176.648 41.3694C176.648 47.9979 181.581 54.5 186.648 54.5Z" fill="black"/>
<defs>
<linearGradient id="paint0_linear_93_106" x1="69.5159" y1="489.474" x2="298.263" y2="103.781" gradientUnits="userSpaceOnUse">
<stop offset="0.0211774" stop-opacity="0.82"/>
<stop offset="0.219259" stop-color="#010C11" stop-opacity="0.826323"/>
<stop offset="0.246631"/>
<stop offset="0.373337" stop-color="#23272A"/>
<stop offset="0.380774" stop-color="#202020"/>
<stop offset="0.552885" stop-color="#616364"/>
<stop offset="0.62029" stop-color="#0D0D0D"/>
<stop offset="0.674903" stop-color="#383737"/>
<stop offset="0.725962"/>
<stop offset="0.836538" stop-color="#353535"/>
<stop offset="0.908522" stop-color="#2A2828"/>
<stop offset="0.971154"/>
</linearGradient>
</defs>
</svg>
