<svg width="350" height="350" viewBox="0 0 350 350" fill="none" xmlns="http://www.w3.org/2000/svg">
<path d="M334.894 198.087C327.894 194.545 318.975 198.84 318.975 198.84C316.419 200.077 312.626 201.208 310.574 201.355C308.477 201.513 304.73 200.579 302.174 199.29L258.578 177.137H303.386C306.216 177.137 309.984 177.995 311.766 179.084C313.568 180.144 316.419 182.878 318.135 185.128C318.135 185.128 324.147 193.018 331.982 193.018C341.93 193.018 350 184.95 350 174.998C350 165.057 341.93 156.982 331.982 156.982C324.147 156.982 318.135 164.869 318.135 164.869C316.419 167.122 313.568 169.866 311.766 170.935C309.984 172.002 306.216 172.873 303.386 172.873H258.578L302.174 150.716C304.73 149.428 308.477 148.497 310.574 148.644C312.626 148.81 316.419 149.943 318.975 151.157C318.975 151.157 327.894 155.462 334.894 151.91C343.773 147.407 347.296 136.564 342.791 127.702C338.285 118.83 327.436 115.289 318.552 119.795C311.577 123.357 309.795 133.097 309.795 133.097C309.271 135.895 307.973 139.614 306.863 141.374C305.773 143.133 302.8 145.638 300.264 146.926L249.195 172.873H213.369C210.523 172.873 205.911 172.506 203.126 172.046C200.361 171.585 194.766 171.208 191.941 171.208H184.146L189.634 165.709C191.646 163.708 194.685 160.197 196.38 157.903C196.38 157.903 195.337 159.494 196.991 157.19C198.625 154.907 201.619 151.388 203.63 149.378L228.958 124.026L283.423 106.282C286.126 105.401 289.98 105.065 292.012 105.539C294.044 106.01 297.628 107.705 299.949 109.309C299.949 109.309 308.1 114.933 315.538 112.504C324.983 109.433 330.16 99.2633 327.08 89.8033C324 80.3451 313.842 75.17 304.393 78.2604C296.935 80.6891 293.666 90.0452 293.666 90.0452C292.725 92.7257 290.841 96.2132 289.497 97.7768C288.138 99.3476 284.828 101.358 282.125 102.237L235.618 117.407L267.269 85.7072C269.285 83.7184 272.594 81.6539 274.605 81.1626C276.616 80.6585 280.572 80.5541 283.383 80.9304C283.383 80.9304 293.203 82.2624 298.737 76.7201C305.773 69.701 305.773 58.2931 298.737 51.2545C291.696 44.2256 280.302 44.2256 273.261 51.2545C267.732 56.7962 269.051 66.621 269.051 66.621C269.448 69.4291 269.346 73.3676 268.842 75.4016C268.338 77.4227 266.287 80.7123 264.275 82.7231L232.603 114.39L247.77 67.8784C248.646 65.1876 250.662 61.8656 252.21 60.5037C253.803 59.1412 257.28 57.2679 259.938 56.3361C259.938 56.3361 269.306 53.0569 271.754 45.6076C274.814 36.1501 269.662 25.977 260.192 22.9196C250.723 19.8188 240.561 24.9945 237.501 34.4521C235.053 41.9014 240.688 50.0502 240.688 50.0502C242.302 52.3976 243.998 55.9591 244.481 57.9803C244.939 60.0021 244.583 63.877 243.727 66.5702L225.96 121.03L200.611 146.381C198.6 148.382 195.103 151.366 192.801 153.023C190.515 154.678 186.305 158.344 184.294 160.355L178.785 165.864V158.071C178.785 155.233 178.449 150.612 178.032 147.804C178.032 147.804 178.429 149.661 177.966 146.863C177.508 144.097 177.131 139.487 177.131 136.638V100.813L203.085 49.7343C204.363 47.2017 206.858 44.2256 208.614 43.1258C210.396 42.026 214.123 40.7069 216.913 40.2028C216.913 40.2028 226.652 38.4236 230.19 31.4253C234.696 22.5628 231.178 11.7103 222.314 7.20667C213.435 2.7012 202.601 6.24252 198.081 15.1142C194.537 22.0923 198.834 31.0281 198.834 31.0281C200.092 33.5839 201.201 37.3745 201.344 39.4391C201.492 41.5115 200.57 45.2747 199.292 47.8072L177.131 91.4273V46.6036C177.131 43.7643 178.011 39.9944 179.08 38.2122C180.144 36.4427 182.868 33.5839 185.134 31.845C185.134 31.845 193.01 25.8524 193.01 18.006C193.01 8.06512 184.966 0 174.992 0C165.064 0 157 8.06512 157 18.006C157 25.8524 164.876 31.845 164.876 31.845C167.116 33.5839 169.861 36.4427 170.929 38.2122C171.998 39.9944 172.88 43.7643 172.88 46.6036V91.4273L150.713 47.8072C149.435 45.2747 148.493 41.5115 148.661 39.4391C148.809 37.3745 149.939 33.5839 151.176 31.0281C151.176 31.0281 155.468 22.0923 151.909 15.1142C147.404 6.24252 136.575 2.7012 127.711 7.20667C118.853 11.7103 115.309 22.5628 119.815 31.4253C123.353 38.4236 133.097 40.2028 133.097 40.2028C135.903 40.7069 139.609 42.026 141.391 43.1258C143.152 44.2256 145.642 47.2017 146.946 49.7343L172.88 100.813V136.638C172.88 139.487 172.523 144.097 172.06 146.863C171.576 149.661 171.22 155.233 171.22 158.071V165.864L165.711 160.355C163.7 158.344 160.182 155.327 157.922 153.629C157.922 153.629 159.49 154.678 157.209 153.023C154.903 151.366 151.385 148.382 149.374 146.381L124.046 121.03L106.283 66.5702C105.402 63.877 105.066 60.0021 105.529 57.9803C106.007 55.9591 107.708 52.3976 109.322 50.0502C109.322 50.0502 114.932 41.9014 112.524 34.4521C109.444 24.9945 99.262 19.8188 89.8179 22.9196C80.3481 25.977 75.1961 36.1501 78.2761 45.6076C80.7046 53.0569 90.0671 56.3361 90.0671 56.3361C92.7296 57.2679 96.2071 59.1412 97.775 60.5037C99.3686 61.8656 101.359 65.1876 102.24 67.8784L117.406 114.39L85.7298 82.7231C83.7183 80.7123 81.6671 77.4227 81.1628 75.4016C80.6844 73.3676 80.5775 69.4291 80.9541 66.621C80.9541 66.621 82.2728 56.7962 76.7436 51.2545C69.7077 44.2256 58.2884 44.2256 51.2624 51.2545C44.2216 58.2931 44.2216 69.701 51.2624 76.7201C56.8225 82.2624 66.6277 80.9304 66.6277 80.9304C69.4533 80.5541 73.3938 80.6585 75.4047 81.1626C77.4156 81.6539 80.7046 83.7184 82.7161 85.7072L114.408 117.407L67.9055 102.237C65.2024 101.358 61.8725 99.3476 60.5083 97.7768C59.1688 96.2132 57.2853 92.7257 56.3386 90.0452C56.3386 90.0452 53.06 80.6891 45.6268 78.2604C36.1573 75.17 25.9956 80.3451 22.915 89.8033C19.8401 99.2633 24.9924 109.433 34.4418 112.504C41.8952 114.933 50.0457 109.309 50.0457 109.309C52.3926 107.705 55.9818 106.01 57.9933 105.539C60.0094 105.065 63.8834 105.401 66.5871 106.282L121.031 124.026L146.375 149.378C148.386 151.388 151.385 154.907 153.039 157.19C154.674 159.494 158.359 163.708 160.351 165.709L165.859 171.208H158.09C155.239 171.208 150.611 171.564 147.801 171.981C147.801 171.981 149.643 171.585 146.879 172.046C144.074 172.506 139.487 172.873 136.656 172.873H100.814L49.7301 146.926C47.1951 145.638 44.2421 143.133 43.1323 141.374C42.0223 139.614 40.724 135.895 40.1999 133.097C40.1999 133.097 38.4178 123.357 31.4225 119.795C22.5588 115.289 11.73 118.83 7.20415 127.702C2.70339 136.564 6.24193 147.407 15.1054 151.91C22.0804 155.462 31.0254 151.157 31.0254 151.157C33.581 149.943 37.3944 148.81 39.4255 148.644C41.5183 148.497 45.2703 149.428 47.806 150.716L91.4314 172.873H46.63C43.7839 172.873 40.0111 172.002 38.229 170.935C36.427 169.866 33.581 167.122 31.8606 164.869C31.8606 164.869 25.8475 156.982 17.992 156.982C8.06435 156.982 0 165.057 0 174.998C0 184.95 8.06435 193.018 17.992 193.018C25.8475 193.018 31.8606 185.128 31.8606 185.128C33.581 182.878 36.427 180.144 38.229 179.084C40.0111 177.995 43.7839 177.137 46.63 177.137H91.4314L47.806 199.29C45.2703 200.579 41.5183 201.513 39.4255 201.355C37.3944 201.208 33.581 200.077 31.0254 198.84C31.0254 198.84 22.0804 194.545 15.1054 198.087C6.24193 202.59 2.70339 213.432 7.20415 222.315C11.73 231.167 22.5588 234.708 31.4225 230.204C38.4178 226.643 40.1999 216.91 40.1999 216.91C40.724 214.115 42.0223 210.385 43.1323 208.626C44.2421 206.854 47.1951 204.372 49.7301 203.084L100.814 177.137H136.656C139.487 177.137 144.074 177.494 146.879 177.964C149.643 178.415 155.239 178.792 158.09 178.792H165.859L160.351 184.301C158.359 186.292 155.32 189.81 153.625 192.106C153.625 192.106 154.674 190.513 153.039 192.806C151.385 195.09 148.386 198.611 146.355 200.622L121.031 225.971L66.5871 243.738C63.8834 244.596 60.0094 244.952 57.9933 244.481C55.9818 244.01 52.3926 242.312 50.0457 240.69C50.0457 240.69 41.8952 235.064 34.4418 237.496C24.9924 240.573 19.8401 250.736 22.8948 260.204C25.9956 269.654 36.1573 274.828 45.6268 271.749C53.06 269.318 56.3386 259.955 56.3386 259.955C57.2853 257.271 59.1688 253.793 60.5083 252.223C61.8725 250.652 65.2024 248.662 67.9055 247.761L114.408 232.592L82.7161 264.27C80.7046 266.302 77.4156 268.343 75.4047 268.847C73.3938 269.338 69.4533 269.445 66.6277 269.056C66.6277 269.056 56.8225 267.727 51.2624 273.279C44.2216 280.319 44.2216 291.714 51.2624 298.753C58.2884 305.772 69.7077 305.772 76.7436 298.753C82.2728 293.223 80.9541 283.397 80.9541 283.397C80.5775 280.568 80.6844 276.629 81.1628 274.598C81.6671 272.587 83.7183 269.298 85.7298 267.287L117.406 235.609L102.24 282.119C101.359 284.822 99.3686 288.132 97.775 289.494C96.2071 290.856 92.7296 292.732 90.0671 293.664C90.0671 293.664 80.7046 296.943 78.2761 304.389C75.1961 313.86 80.3481 324.02 89.8179 327.101C99.262 330.181 109.444 325.005 112.524 315.555C114.932 308.099 109.322 299.95 109.322 299.95C107.708 297.623 106.007 294.061 105.529 292.009C105.066 289.998 105.402 286.141 106.283 283.44L124.046 228.987L149.374 203.628C151.385 201.618 154.903 198.632 157.209 196.997C159.49 195.342 163.7 191.656 165.711 189.655L171.22 184.156V191.928C171.22 194.777 171.576 199.395 171.978 202.193C171.978 202.193 171.576 200.349 172.06 203.135C172.523 205.912 172.88 210.53 172.88 213.359V249.206L146.946 300.283C145.642 302.818 143.152 305.772 141.391 306.871C139.609 307.971 135.903 309.292 133.097 309.807C133.097 309.807 123.353 311.597 119.815 318.585C115.309 327.436 118.853 338.287 127.711 342.793C136.575 347.307 147.404 343.755 151.909 334.893C155.468 327.917 151.176 318.992 151.176 318.992C149.939 316.436 148.809 312.645 148.661 310.58C148.493 308.495 149.435 304.725 150.713 302.2L172.88 258.592V303.394C172.88 306.222 171.998 310.006 170.929 311.785C169.861 313.567 167.116 316.436 164.876 318.165C164.876 318.165 157 324.157 157 331.991C157 341.943 165.064 350 174.992 350C184.945 350 193.01 341.943 193.01 331.991C193.01 324.157 185.134 318.165 185.134 318.165C182.868 316.436 180.144 313.567 179.08 311.785C178.011 310.006 177.131 306.222 177.131 303.394V258.592L199.292 302.2C200.57 304.725 201.492 308.495 201.344 310.58C201.201 312.645 200.092 316.436 198.834 318.992C198.834 318.992 194.537 327.917 198.081 334.893C202.601 343.755 213.435 347.307 222.314 342.793C231.178 338.287 234.696 327.436 230.19 318.585C226.652 311.597 216.913 309.807 216.913 309.807C214.123 309.292 210.396 307.971 208.614 306.871C206.858 305.772 204.363 302.818 203.085 300.283L177.131 249.206V213.359C177.131 210.53 177.508 205.912 177.966 203.135C178.429 200.349 178.785 194.777 178.785 191.928V184.156L184.294 189.655C186.305 191.656 189.823 194.672 192.088 196.368C192.088 196.368 190.515 195.342 192.801 196.997C195.103 198.632 198.6 201.618 200.611 203.628L225.96 228.987L243.727 283.44C244.604 286.141 244.939 289.998 244.481 292.009C243.998 294.061 242.302 297.623 240.688 299.95C240.688 299.95 235.053 308.099 237.501 315.555C240.561 325.005 250.723 330.181 260.192 327.101C269.662 324.02 274.814 313.86 271.754 304.389C269.306 296.943 259.938 293.664 259.938 293.664C257.28 292.732 253.803 290.856 252.21 289.494C250.662 288.132 248.646 284.822 247.77 282.119L232.603 235.609L264.275 267.287C266.287 269.298 268.338 272.587 268.822 274.598C269.346 276.629 269.448 280.568 269.051 283.397C269.051 283.397 267.732 293.223 273.261 298.753C280.302 305.772 291.696 305.772 298.737 298.753C305.773 291.714 305.773 280.319 298.737 273.279C293.203 267.727 283.383 269.056 283.383 269.056C280.572 269.445 276.616 269.338 274.605 268.847C272.594 268.343 269.285 266.302 267.269 264.29L235.618 232.592L282.125 247.761C284.828 248.662 288.138 250.652 289.497 252.223C290.841 253.793 292.725 257.271 293.666 259.955C293.666 259.955 296.935 269.318 304.393 271.749C313.842 274.828 324 269.654 327.08 260.204C330.16 250.736 324.983 240.573 315.538 237.496C308.1 235.064 299.949 240.69 299.949 240.69C297.628 242.312 294.044 244.01 292.012 244.481C289.98 244.952 286.126 244.596 283.423 243.738L228.958 225.971L203.63 200.622C201.619 198.611 198.625 195.09 196.991 192.806C195.337 190.513 191.646 186.292 189.634 184.301L184.146 178.792H191.941C194.766 178.792 199.399 178.435 202.184 178.025C202.184 178.025 200.361 178.415 203.126 177.964C205.911 177.494 210.523 177.137 213.369 177.137H249.195L300.264 203.084C302.8 204.372 305.773 206.854 306.863 208.626C307.973 210.385 309.271 214.115 309.795 216.91C309.795 216.91 311.577 226.643 318.552 230.204C327.436 234.708 338.285 231.167 342.791 222.315C347.296 213.432 343.773 202.59 334.894 198.087Z" fill="black"/>
</svg>
