<svg width="1555" height="2393" viewBox="0 0 1555 2393" fill="none" xmlns="http://www.w3.org/2000/svg">
<g opacity="0.64">
<path d="M1472 827.263C1472 1101.69 1203.11 1325.16 942.934 1325.16H942.256C0 1325.16 0 2628.53 0 2354.09V497.011C0 222.483 210.924 -0.0100077 471.098 3.37621e-07H942.934C1203.11 3.37621e-07 1472 221.482 1472 496.01V827.263Z" fill="#FFE500" fill-opacity="0.73"/>
<path d="M1367 789.203C1367 1050.68 1163.12 1262.66 911.592 1262.66H910.936C0 1262.66 0 2620.1 0 2358.6V473.572C0 211.991 203.913 -0.00953577 455.44 3.21699e-07H911.592C1163.12 3.21699e-07 1367 211.991 1367 473.572V789.203Z" fill="#757575" fill-opacity="0.86"/>
</g>
</svg>
