<svg width="1555" height="2393" viewBox="0 0 1555 2393" fill="none" xmlns="http://www.w3.org/2000/svg">
<g opacity="0.64">
<path d="M83 827.263C83 1101.69 351.892 1325.16 612.066 1325.16H612.744C1555 1325.16 1555 2628.53 1555 2354.09V497.011C1555 222.483 1344.08 -0.0100077 1083.9 3.37621e-07H612.066C351.892 3.37621e-07 83 221.482 83 496.01V827.263Z" fill="#FFE500" fill-opacity="0.73"/>
<path d="M188 789.203C188 1050.68 391.882 1262.66 643.408 1262.66H644.064C1555 1262.66 1555 2620.1 1555 2358.6V473.572C1555 211.991 1351.09 -0.00953577 1099.56 3.21699e-07H643.408C391.882 3.21699e-07 188 211.991 188 473.572V789.203Z" fill="#757575" fill-opacity="0.86"/>
</g>
</svg>
