<svg width="1078" height="1077" viewBox="0 0 1078 1077" fill="none" xmlns="http://www.w3.org/2000/svg">
<mask id="mask0_53_6" style="mask-type:luminance" maskUnits="userSpaceOnUse" x="0" y="0" width="1078" height="1077">
<path d="M1077.06 1076.87V0H0V1076.87H1077.06Z" fill="white"/>
</mask>
<g mask="url(#mask0_53_6)">
<path d="M1076.06 533.65L1076.02 538.546L1054.47 538.556C1054.21 530.64 1054.35 522.538 1053.99 514.616C1053.1 497.775 1051.49 480.979 1049.17 464.274C1033.78 358.676 985.99 260.461 912.386 183.195C817.728 83.3159 687.002 25.5215 549.42 22.7262C412.818 19.7317 280.636 71.2294 182.063 165.851C82.2695 260.988 24.8482 392.209 22.6901 530.066C20.4846 664.247 70.7999 793.981 162.909 891.58C242.332 976.367 348.111 1031.78 463.033 1048.82C489.599 1052.74 511.964 1053.86 538.572 1054.5C538.935 1061.04 538.735 1069.31 538.546 1075.87C527.202 1075.2 515.433 1075.52 503.495 1074.82C495.162 1073.92 486.693 1073.48 478.271 1072.54C461.085 1070.58 443.994 1067.82 427.061 1064.27C328.641 1043.26 238.09 995.053 165.699 925.136C62.0728 825.621 2.75121 688.665 1.04052 545.004C-0.685963 404.474 52.814 268.878 150.034 167.386C248.749 63.884 384.678 4.03699 527.676 1.11173C671.714 -1.82622 810.883 53.2814 913.862 154.032C1016.5 253.799 1074.92 390.516 1076.06 533.65Z" fill="#757575"/>
<path d="M1013.19 521.112C1013.49 526.755 1013.4 532.723 1013.42 538.402L991.935 538.423C991.499 517.369 990.253 494.975 987.241 474.175C973.79 380.223 931.144 292.874 865.333 224.476C779.363 136.647 667.623 86.2489 544.161 84.9759C423.239 83.2391 306.667 130.026 220.507 214.874C134.648 298.891 85.7806 413.632 84.6972 533.748C83.4561 654.386 130.456 770.527 215.254 856.361C300.408 942.968 416.765 991.784 538.234 991.863C538.397 998.983 538.402 1006.1 538.239 1013.22C530.045 1013.36 521.852 1013.16 513.679 1012.62C490.886 1011.13 473.169 1009.42 450.418 1005.17C368.476 989.671 292.057 952.864 228.869 898.447C133.265 816.62 74.0897 700.173 64.3499 574.725C54.6311 448.338 95.9569 323.325 179.103 227.629C261.418 132.388 378.185 73.7171 503.75 64.507C631.066 55.28 756.736 97.7153 852.388 182.234C931.275 251.66 984.905 345.285 1004.88 448.446C1009.93 474.71 1011.46 494.658 1013.19 521.112Z" fill="#FFE500"/>
<path d="M951.102 528.027C951.282 531.424 951.237 534.984 951.249 538.407L929.685 538.402C929.517 529.5 929.562 518.429 928.852 509.689C922.172 419.686 884.614 334.749 822.527 269.238C751.109 193.695 652.579 149.641 548.652 146.786C444.922 144.068 344.364 182.633 269.059 254.008C193.307 325.503 149.215 424.264 146.565 528.385C144.025 632.196 182.847 732.769 254.486 807.955C315.823 872.588 397.38 914.364 485.685 926.384C505.081 928.96 518.849 929.455 538.223 929.802C538.465 936.879 538.318 944.088 538.255 951.176C528.194 951.255 518.128 950.945 508.094 950.24C497.187 950.209 473.7 946.528 462.892 944.535C384.869 929.996 312.688 893.294 254.986 838.82C87.9316 682.38 81.2684 421.15 237.831 254.89C312.504 175.627 415.477 129.074 524.323 125.373C633.562 121.757 739.779 161.593 819.69 236.148C901.192 311.653 948.605 416.962 951.102 528.027Z" fill="#757575"/>
<path d="M889.076 519.673C889.45 525.893 889.373 532.166 889.379 538.396H867.86C867.921 452.387 834.312 369.767 774.224 308.214C713.757 246.081 631.189 210.347 544.497 208.789C456.266 206.982 371.016 240.753 307.971 302.492C245.377 363.293 209.616 446.536 208.606 533.785C207.333 622.08 241.638 707.172 303.8 769.902C365.705 832.594 450.097 867.945 538.207 868.087C538.57 874.707 538.349 882.684 538.197 889.314C530.761 889.33 521.752 889.367 514.447 888.73C434.446 883.267 358.742 850.546 299.945 796.035C230.715 732.301 189.984 643.444 186.891 549.407C178.887 356.549 335.828 192.56 528.578 187.141C716.086 181.868 881.738 330.612 889.076 519.673Z" fill="#FFE500"/>
<path d="M827.552 528.091C827.796 531.056 827.715 535.326 827.736 538.391C820.503 538.475 813.17 538.402 805.928 538.391C804.608 467.079 780.841 404.428 731.065 352.624C628.115 245.481 458.154 243.149 351.442 346.471C300.466 395.924 271.32 463.66 270.463 534.668C269.453 605.806 296.906 674.403 346.72 725.208C398.017 777.863 465.012 805.226 538.207 806.13C538.528 812.876 538.318 820.785 538.281 827.631C528.378 827.852 517.818 826.811 507.899 825.985C449.55 820.921 390.696 793.632 346.919 755.126C289.769 704.927 254.739 634.205 249.427 558.33C244.026 480.962 270.016 404.676 321.529 346.687C371.726 289.818 442.293 254.98 517.971 249.704C597.979 244.911 671.587 269.765 731.608 323.172C778.658 365.315 810.58 421.727 822.477 483.754C825.469 499.372 826.613 512.185 827.552 528.091Z" fill="#757575"/>
<path d="M765.489 529.342C765.667 532.139 765.639 535.546 765.684 538.396C758.431 538.433 751.179 538.428 743.926 538.386C743.722 531.561 743.672 523.76 742.937 517.056C738.413 472.871 719.656 431.351 689.489 398.747C651.526 357.591 598.455 333.639 542.473 332.396C488.425 331.35 436.129 351.567 396.849 388.695C357.232 426.016 334.035 477.517 332.341 531.908C330.711 586.913 351.179 640.278 389.171 680.098C429.729 722.773 479.921 742.643 538.192 744.168C538.491 751.246 538.318 758.502 538.255 765.595C528.457 765.622 518.67 765.027 508.951 763.823C463.424 757.193 423.418 739.962 388.619 709.433C343.059 669.682 315.16 613.467 311.058 553.151C307.203 492.433 327.808 432.695 368.271 387.254C408.419 342.115 464.859 314.775 525.175 311.251C585.252 307.833 644.236 328.36 689.208 368.337C737.158 411.065 761.774 465.733 765.489 529.342Z" fill="#FFE500"/>
<path d="M703.441 527.275C703.703 530.525 703.631 535.042 703.667 538.396L682.212 538.402C681.089 501.026 670.19 469.915 645.005 441.782C592.011 382.584 499.627 378.345 441.241 431.914C412.521 457.95 395.597 494.522 394.346 533.259C393.005 571.665 407.088 609.003 433.452 636.96C461.909 667.152 497.334 681.134 538.197 682.422C538.591 688.937 538.344 697.113 538.192 703.654C526.785 703.665 520.747 702.992 509.582 701.267C481.294 697.208 451.159 681.791 429.671 663.104C396.397 634.294 375.986 593.407 372.967 549.502C370.022 505.855 384.511 462.823 413.262 429.846C442.392 396.256 483.823 375.812 528.21 373.127C571.801 370.477 614.67 385.183 647.452 414.032C680.415 442.849 700.558 483.592 703.441 527.275Z" fill="#757575"/>
</g>
</svg>
