<svg width="1077" height="1078" viewBox="0 0 1077 1078" fill="none" xmlns="http://www.w3.org/2000/svg">
<g clip-path="url(#clip0_53_6)">
<mask id="mask0_53_6" style="mask-type:luminance" maskUnits="userSpaceOnUse" x="0" y="0" width="1077" height="1078">
<path d="M0.130005 0.939941H1077V1078H0.130005V0.939941Z" fill="white"/>
</mask>
<g mask="url(#mask0_53_6)">
<path d="M543.35 1.93994L538.454 1.97998L538.444 23.53C546.36 23.79 554.462 23.65 562.384 24.01C579.225 24.9 596.021 26.51 612.726 28.83C718.324 44.22 816.539 92.01 893.805 165.614C993.684 260.272 1051.48 390.998 1054.27 528.58C1057.27 665.182 1005.77 797.364 911.149 895.937C816.012 995.73 684.791 1053.15 546.934 1055.31C412.753 1057.52 283.019 1007.2 185.42 915.091C100.633 835.668 45.2201 729.889 28.1801 614.967C24.2601 588.401 23.14 566.036 22.5 539.428C15.96 539.065 7.69 539.265 1.13 539.454C1.8 550.798 1.48005 562.567 2.18005 574.505C3.08005 582.838 3.51996 591.307 4.45996 599.729C6.41996 616.915 9.17998 634.006 12.73 650.939C33.74 749.359 81.947 839.91 151.864 912.301C251.379 1015.93 388.335 1075.25 531.996 1076.96C672.526 1078.69 808.122 1025.19 909.614 927.966C1013.12 829.251 1072.96 693.322 1075.89 550.324C1078.83 406.286 1023.72 267.117 922.968 164.138C823.201 61.5 686.484 3.07994 543.35 1.93994Z" fill="#757575"/>
<path d="M555.888 64.8099C550.245 64.5099 544.277 64.5999 538.598 64.5799L538.577 86.0649C559.631 86.5009 582.025 87.7469 602.825 90.7589C696.777 104.21 784.126 146.856 852.524 212.667C940.353 298.637 990.751 410.377 992.024 533.839C993.761 654.761 946.974 771.333 862.126 857.493C778.109 943.352 663.368 992.219 543.252 993.303C422.614 994.544 306.473 947.544 220.639 862.746C134.032 777.592 85.216 661.235 85.137 539.766C78.017 539.603 70.9 539.598 63.78 539.761C63.64 547.955 63.84 556.148 64.38 564.321C65.87 587.114 67.58 604.831 71.83 627.582C87.329 709.524 124.136 785.943 178.553 849.131C260.38 944.735 376.827 1003.91 502.275 1013.65C628.662 1023.37 753.675 982.043 849.371 898.897C944.612 816.582 1003.28 699.815 1012.49 574.25C1021.72 446.934 979.285 321.264 894.766 225.612C825.34 146.725 731.715 93.0949 628.554 73.1199C602.29 68.0699 582.342 66.5399 555.888 64.8099Z" fill="#FFE500"/>
<path d="M548.973 126.898C545.576 126.718 542.016 126.763 538.593 126.751L538.598 148.315C547.5 148.483 558.571 148.438 567.311 149.148C657.314 155.828 742.251 193.386 807.762 255.473C883.305 326.891 927.359 425.421 930.214 529.348C932.932 633.078 894.367 733.636 822.992 808.941C751.497 884.693 652.736 928.785 548.615 931.435C444.804 933.975 344.231 895.153 269.045 823.514C204.412 762.177 162.636 680.62 150.616 592.315C148.04 572.919 147.545 559.151 147.198 539.777C140.121 539.535 132.912 539.682 125.824 539.745C125.745 549.806 126.055 559.872 126.76 569.906C126.791 580.813 130.472 604.3 132.465 615.108C147.004 693.131 183.706 765.312 238.18 823.014C394.62 990.068 655.85 996.732 822.11 840.169C901.373 765.496 947.926 662.523 951.627 553.677C955.243 444.438 915.407 338.221 840.852 258.31C765.347 176.808 660.038 129.395 548.973 126.898Z" fill="#757575"/>
<path d="M557.327 188.924C551.107 188.55 544.834 188.627 538.604 188.621V210.14C624.613 210.079 707.233 243.688 768.786 303.776C830.919 364.243 866.653 446.811 868.211 533.503C870.018 621.734 836.247 706.984 774.508 770.029C713.707 832.623 630.464 868.384 543.215 869.394C454.92 870.667 369.828 836.362 307.098 774.2C244.406 712.295 209.055 627.903 208.913 539.793C202.293 539.43 194.316 539.651 187.686 539.803C187.67 547.239 187.633 556.248 188.27 563.553C193.733 643.554 226.454 719.258 280.965 778.055C344.699 847.285 433.556 888.016 527.593 891.109C720.451 899.113 884.44 742.172 889.859 549.422C895.132 361.914 746.388 196.262 557.327 188.924Z" fill="#FFE500"/>
<path d="M548.909 250.448C545.944 250.204 541.674 250.285 538.609 250.264C538.525 257.497 538.598 264.83 538.609 272.072C609.921 273.392 672.572 297.159 724.376 346.935C831.519 449.885 833.851 619.846 730.529 726.558C681.076 777.534 613.34 806.68 542.332 807.537C471.194 808.547 402.597 781.094 351.792 731.28C299.137 679.983 271.774 612.988 270.87 539.793C264.124 539.472 256.215 539.682 249.369 539.719C249.148 549.622 250.189 560.182 251.015 570.101C256.079 628.45 283.368 687.304 321.874 731.081C372.073 788.231 442.795 823.261 518.67 828.573C596.038 833.974 672.324 807.984 730.313 756.471C787.182 706.274 822.02 635.707 827.296 560.029C832.089 480.021 807.235 406.413 753.828 346.392C711.685 299.342 655.273 267.42 593.246 255.523C577.628 252.531 564.815 251.387 548.909 250.448Z" fill="#757575"/>
<path d="M547.658 312.511C544.861 312.333 541.454 312.361 538.604 312.316C538.567 319.569 538.572 326.821 538.614 334.074C545.439 334.278 553.24 334.328 559.944 335.063C604.129 339.587 645.649 358.344 678.253 388.511C719.409 426.474 743.361 479.545 744.604 535.527C745.65 589.575 725.433 641.871 688.305 681.151C650.984 720.768 599.483 743.965 545.092 745.659C490.087 747.289 436.722 726.821 396.902 688.829C354.227 648.271 334.357 598.079 332.832 539.808C325.754 539.509 318.498 539.682 311.405 539.745C311.378 549.543 311.973 559.33 313.177 569.049C319.807 614.576 337.038 654.582 367.567 689.381C407.318 734.941 463.533 762.84 523.849 766.942C584.567 770.797 644.305 750.192 689.746 709.729C734.885 669.581 762.225 613.141 765.749 552.825C769.167 492.748 748.64 433.764 708.663 388.792C665.935 340.842 611.267 316.226 547.658 312.511Z" fill="#FFE500"/>
<path d="M549.725 374.559C546.475 374.297 541.958 374.369 538.604 374.333L538.598 395.788C575.974 396.911 607.085 407.81 635.218 432.995C694.416 485.989 698.655 578.373 645.086 636.759C619.05 665.479 582.478 682.403 543.741 683.654C505.335 684.995 467.997 670.912 440.04 644.548C409.848 616.091 395.866 580.666 394.578 539.803C388.063 539.409 379.887 539.656 373.346 539.808C373.335 551.215 374.008 557.253 375.733 568.418C379.792 596.706 395.209 626.841 413.896 648.329C442.706 681.603 483.593 702.014 527.498 705.033C571.145 707.978 614.177 693.489 647.154 664.738C680.744 635.608 701.188 594.177 703.873 549.79C706.523 506.199 691.817 463.33 662.968 430.548C634.151 397.585 593.408 377.442 549.725 374.559Z" fill="#757575"/>
</g>
</g>
<defs>
<clipPath id="clip0_53_6">
<rect width="1078" height="1077" fill="white" transform="matrix(0 -1 -1 0 1077 1078)"/>
</clipPath>
</defs>
</svg>
