<svg width="404" height="410" viewBox="0 0 404 410" fill="none" xmlns="http://www.w3.org/2000/svg">
<path d="M196.986 12.209C200.134 10.5971 203.866 10.5971 207.014 12.209C241.903 30.0737 266.78 63.1876 268.565 102.356C286.838 93.6656 306.611 89.499 326.145 89.499C347.496 89.4991 368.493 94.4636 386.947 103.757C390.678 105.635 393.023 109.465 393 113.642C392.801 149.905 372.633 184.553 337.317 205C372.633 225.447 392.801 260.095 393 296.358C393.023 300.535 390.678 304.365 386.947 306.243C368.486 315.54 347.302 320.501 326.145 320.501C306.611 320.501 286.838 316.334 268.565 307.643C266.78 346.812 241.903 379.926 207.014 397.791C203.866 399.403 200.134 399.403 196.986 397.791C162.049 379.902 137.15 346.721 135.426 307.481C117.156 316.17 97.3864 320.338 77.8555 320.338C56.5041 320.338 35.5066 315.372 17.0527 306.079C13.3222 304.2 10.9771 300.371 11 296.194C11.1988 259.936 31.3609 225.292 66.667 204.844C31.1926 184.4 11 149.735 11 113.418C11.0001 109.263 13.3417 105.463 17.0527 103.594C35.5139 94.2968 56.698 89.335 77.8555 89.335C97.3914 89.335 117.166 93.5035 135.44 102.196C137.286 63.0973 162.144 30.0494 196.986 12.209ZM195.391 294.397C195.382 294.444 195.374 294.491 195.365 294.537C194.716 297.968 194.443 300.7 194.443 303.123C194.443 311.905 197.091 320.692 202.01 328.571C206.92 320.732 209.557 311.999 209.557 303.123C209.557 300.83 209.276 297.978 208.67 295.043C208.652 294.956 208.635 294.869 208.619 294.782L206.175 281.298C204.8 281.372 203.406 281.416 202 281.416C200.538 281.416 199.102 281.372 197.693 281.297L195.391 294.397ZM277.352 240.356C276.478 241.831 275.554 243.269 274.584 244.671L286.541 253.467C288.97 255.177 291.219 256.647 293.575 257.845L294.054 258.083L294.292 258.203C303.034 262.75 312.917 265.285 322.983 265.724C317.904 259.243 311.183 253.653 303.012 249.495C300.543 248.275 297.548 247.023 294.024 245.894C293.988 245.882 293.951 245.87 293.915 245.857L277.352 240.356ZM110.406 245.648C106.318 247.124 103.492 248.197 101.104 249.436C101.092 249.441 101.081 249.447 101.07 249.453C93.0292 253.587 86.3142 259.131 81.2129 265.539C91.245 265.036 101.059 262.412 109.819 257.982C109.993 257.895 110.169 257.811 110.348 257.732C112.293 256.875 114.732 255.421 118.416 252.793L118.484 252.744L129.738 244.845C128.695 243.341 127.707 241.795 126.779 240.212L110.406 245.648ZM322.785 144.297C312.754 144.8 302.941 147.424 294.181 151.854C294.007 151.941 293.83 152.025 293.652 152.104C291.707 152.961 289.268 154.415 285.584 157.043C285.561 157.059 285.539 157.076 285.516 157.092L274.188 165.042C275.224 166.544 276.206 168.081 277.132 169.653L293.562 164.197C297.667 162.717 300.502 161.642 302.896 160.4L302.93 160.383C310.97 156.249 317.684 150.704 322.785 144.297ZM81.0576 144.113C86.0826 150.437 92.8175 155.939 101.166 160.173C103.632 161.392 106.703 162.687 110.308 164.053L126.775 169.521C127.62 168.107 128.511 166.718 129.448 165.354L117.357 156.458C117.279 156.4 117.201 156.341 117.124 156.281C114.708 154.403 112.2 152.952 109.648 151.603C100.933 147.081 91.0872 144.556 81.0576 144.113ZM201.989 81.4277C197.079 89.2674 194.443 98.0006 194.443 106.877C194.443 108.884 194.659 111.318 195.118 113.861L195.33 114.957L195.381 115.218L197.824 128.701C199.2 128.627 200.594 128.584 202 128.584C203.468 128.584 204.923 128.631 206.359 128.711L208.772 115.399C209.274 112.133 209.557 109.182 209.557 106.877C209.557 98.0943 206.909 89.3072 201.989 81.4277Z" fill="black" stroke="#808080" stroke-width="22" stroke-linejoin="round"/>
<path d="M304.589 209.309C300.302 207.185 295.861 205.46 291.421 204C295.861 202.54 300.302 200.814 304.589 198.691C333.988 183.958 350.371 157.279 350.525 129.804C336.591 122.902 320.667 119.186 304.436 119.186C288.818 119.186 273.047 122.637 258.654 129.804C254.366 131.928 250.385 134.45 246.71 136.971C247.476 132.857 247.935 128.609 247.935 124.362C247.935 94.8961 229.408 69.2792 202 55.4753C174.592 69.2792 156.065 94.8961 156.065 124.362C156.065 128.609 156.524 132.857 157.289 136.971C153.615 134.317 149.634 131.795 145.346 129.671C130.953 122.504 115.182 119.053 99.564 119.053C83.4866 119.053 67.4092 122.769 53.4754 129.671C53.4754 157.146 69.859 183.825 99.4108 198.558C103.698 200.682 108.139 202.407 112.579 203.867C108.139 205.327 103.698 207.053 99.4108 209.176C70.0122 223.909 53.6285 250.588 53.4754 278.063C67.4092 284.965 83.3334 288.682 99.564 288.682C115.182 288.682 130.953 285.231 145.346 278.063C149.634 275.939 153.615 273.418 157.289 270.896C156.524 275.143 156.065 279.39 156.065 283.638C156.065 313.104 174.592 338.721 202 352.525C229.408 338.721 247.935 313.104 247.935 283.638C247.935 279.39 247.476 275.143 246.71 271.028C250.385 273.683 254.366 276.072 258.654 278.196C273.047 285.363 288.818 288.814 304.436 288.814C320.513 288.814 336.591 285.098 350.525 278.196C350.371 250.721 333.988 224.042 304.589 209.309V209.309ZM265.697 157.81C268.913 155.554 271.516 153.961 273.966 152.899C283.306 148.253 293.871 145.732 304.589 145.732C308.723 145.732 312.704 146.13 316.685 146.793C311.939 158.872 302.292 169.225 289.43 175.729C286.827 177.056 283.918 178.118 280.55 179.312L259.419 186.214C256.816 180.109 253.141 174.667 248.395 169.756L265.697 157.81ZM202 89.4542C211.646 99.0107 217.312 111.487 217.312 124.362C217.312 126.884 217.006 129.804 216.546 132.724L213.024 151.837C209.35 151.306 205.675 150.908 202 150.908C198.325 150.908 194.65 151.306 191.129 151.837L187.607 132.724C186.994 129.804 186.688 126.884 186.688 124.362C186.688 111.355 192.354 99.0107 202 89.4542ZM87.3145 146.661C91.2956 145.864 95.4298 145.599 99.564 145.599C110.129 145.599 120.694 147.988 130.034 152.766C132.331 153.961 134.934 155.421 137.537 157.412L155.146 170.154C150.552 174.932 147.031 180.241 144.428 186.081L123.297 179.179C120.082 177.985 117.173 176.79 114.723 175.596C101.401 168.959 91.9081 158.739 87.3145 146.661V146.661ZM138.303 250.057C135.087 252.314 132.484 253.906 130.034 254.968C120.694 259.614 110.129 262.136 99.4108 262.136C95.2767 262.136 91.2956 261.737 87.3145 261.074C92.0612 248.995 101.708 238.642 114.57 232.139C117.173 230.811 120.082 229.75 123.45 228.555L144.581 221.653C147.031 227.759 150.859 233.333 155.605 238.111L138.303 250.057V250.057ZM202 318.546C192.354 308.989 186.688 296.513 186.688 283.638C186.688 280.983 186.994 278.196 187.607 275.01L190.975 256.163C194.497 256.694 198.172 257.092 202 257.092C205.675 257.092 209.35 256.694 212.871 256.163L216.393 275.276C217.006 278.196 217.312 281.116 217.312 283.638C217.312 296.645 211.646 308.989 202 318.546V318.546ZM304.436 262.268C293.871 262.268 283.306 259.879 273.966 255.101C271.209 253.774 268.759 252.181 266.463 250.588L248.854 237.846C253.448 233.068 257.123 227.759 259.572 221.786L280.703 228.688C284.071 229.75 286.981 230.944 289.43 232.139C302.445 238.642 311.939 248.995 316.685 261.074C312.551 262.003 308.417 262.268 304.436 262.268V262.268Z" fill="#FFCF10"/>
<circle cx="205.5" cy="207.5" r="29.5" fill="#808080"/>
</svg>
