<svg width="366" height="366" viewBox="0 0 366 366" fill="none" xmlns="http://www.w3.org/2000/svg">
<path d="M309.402 189.542C304.12 186.925 298.648 184.799 293.177 183C298.648 181.201 304.12 179.075 309.402 176.458C345.625 158.306 365.811 125.434 366 91.5818C348.832 83.0777 329.211 78.4987 309.213 78.4987C289.97 78.4987 270.538 82.7507 252.804 91.5818C247.522 94.1984 242.616 97.3056 238.089 100.413C239.032 95.3432 239.598 90.1099 239.598 84.8767C239.598 48.571 216.77 17.008 183 0C149.23 17.008 126.402 48.571 126.402 84.8767C126.402 90.1099 126.968 95.3432 127.911 100.413C123.383 97.1421 118.478 94.0349 113.196 91.4182C95.4618 82.5871 76.0299 78.3351 56.7866 78.3351C36.9773 78.3351 17.168 82.9142 0 91.4182C0 125.271 20.1866 158.142 56.5979 176.295C61.8804 178.912 67.3515 181.038 72.8227 182.836C67.3515 184.635 61.8804 186.761 56.5979 189.378C20.3753 207.531 0.18866 240.402 0 274.255C17.168 282.759 36.7887 287.338 56.7866 287.338C76.0299 287.338 95.4618 283.086 113.196 274.255C118.478 271.638 123.383 268.531 127.911 265.424C126.968 270.657 126.402 275.89 126.402 281.123C126.402 317.429 149.23 348.992 183 366C216.77 348.992 239.598 317.429 239.598 281.123C239.598 275.89 239.032 270.657 238.089 265.587C242.616 268.858 247.522 271.802 252.804 274.418C270.538 283.249 289.97 287.501 309.213 287.501C329.023 287.501 348.832 282.922 366 274.418C365.811 240.566 345.625 207.694 309.402 189.542V189.542ZM261.482 126.088C265.444 123.308 268.652 121.346 271.67 120.038C283.178 114.314 296.196 111.206 309.402 111.206C314.496 111.206 319.401 111.697 324.306 112.515C318.458 127.397 306.572 140.153 290.725 148.166C287.517 149.802 283.933 151.11 279.782 152.582L253.747 161.086C250.54 153.563 246.012 146.858 240.164 140.807L261.482 126.088ZM183 41.866C194.886 53.6408 201.866 69.0134 201.866 84.8767C201.866 87.9839 201.489 91.5818 200.923 95.1796L196.583 118.729C192.056 118.075 187.528 117.584 183 117.584C178.472 117.584 173.944 118.075 169.605 118.729L165.266 95.1796C164.511 91.5818 164.134 87.9839 164.134 84.8767C164.134 68.8499 171.114 53.6408 183 41.866ZM41.6938 112.351C46.599 111.37 51.6928 111.043 56.7866 111.043C69.8041 111.043 82.8216 113.987 94.3299 119.874C97.1598 121.346 100.367 123.145 103.574 125.598L125.27 141.298C119.61 147.185 115.271 153.727 112.064 160.922L86.0289 152.418C82.067 150.946 78.4825 149.475 75.4639 148.003C59.0505 139.826 47.3536 127.233 41.6938 112.351V112.351ZM104.518 239.748C100.556 242.528 97.3484 244.491 94.3299 245.799C82.8216 251.523 69.8041 254.63 56.5979 254.63C51.5041 254.63 46.599 254.139 41.6938 253.322C47.5423 238.44 59.4278 225.684 75.2753 217.67C78.4825 216.035 82.067 214.727 86.2175 213.255L112.253 204.751C115.271 212.273 119.988 219.142 125.836 225.029L104.518 239.748V239.748ZM183 324.134C171.114 312.359 164.134 296.987 164.134 281.123C164.134 277.853 164.511 274.418 165.266 270.493L169.416 247.271C173.756 247.925 178.283 248.416 183 248.416C187.528 248.416 192.056 247.925 196.395 247.271L200.734 270.82C201.489 274.418 201.866 278.016 201.866 281.123C201.866 297.15 194.886 312.359 183 324.134V324.134ZM309.213 254.794C296.196 254.794 283.178 251.85 271.67 245.962C268.274 244.327 265.256 242.365 262.426 240.402L240.73 224.702C246.39 218.815 250.918 212.273 253.936 204.914L279.971 213.418C284.122 214.727 287.706 216.198 290.725 217.67C306.761 225.684 318.458 238.44 324.306 253.322C319.212 254.466 314.119 254.794 309.213 254.794V254.794Z" fill="#FFCF10"/>
<path d="M294.897 188.791C290.221 186.475 285.377 184.592 280.534 183C285.377 181.407 290.221 179.525 294.897 177.209C326.963 161.139 344.833 132.04 345 102.072C329.802 94.5442 312.433 90.4906 294.73 90.4906C277.695 90.4906 260.493 94.2547 244.794 102.072C240.117 104.389 235.775 107.139 231.767 109.89C232.602 105.402 233.103 100.769 233.103 96.1367C233.103 63.9973 212.895 36.0563 183 21C153.105 36.0563 132.897 63.9973 132.897 96.1367C132.897 100.769 133.398 105.402 134.233 109.89C130.225 106.995 125.882 104.244 121.206 101.928C105.507 94.1099 88.3051 90.3458 71.2701 90.3458C53.734 90.3458 36.1979 94.3995 21 101.928C21 131.895 38.8701 160.995 71.1031 177.064C75.7794 179.381 80.6227 181.263 85.466 182.855C80.6227 184.448 75.7794 186.33 71.1031 188.646C39.0371 204.716 21.167 233.815 21 263.783C36.1979 271.311 53.567 275.365 71.2701 275.365C88.3051 275.365 105.507 271.601 121.206 263.783C125.882 261.466 130.225 258.716 134.233 255.965C133.398 260.598 132.897 265.231 132.897 269.863C132.897 302.003 153.105 329.944 183 345C212.895 329.944 233.103 302.003 233.103 269.863C233.103 265.231 232.602 260.598 231.767 256.11C235.775 259.005 240.117 261.611 244.794 263.928C260.493 271.745 277.695 275.509 294.73 275.509C312.266 275.509 329.802 271.456 345 263.928C344.833 233.96 326.963 204.861 294.897 188.791V188.791ZM252.476 132.619C255.983 130.158 258.823 128.421 261.495 127.263C271.682 122.196 283.206 119.445 294.897 119.445C299.406 119.445 303.748 119.879 308.091 120.603C302.913 133.777 292.392 145.07 278.363 152.164C275.524 153.611 272.35 154.769 268.676 156.072L245.629 163.601C242.79 156.941 238.781 151.005 233.604 145.649L252.476 132.619ZM183 58.0617C193.522 68.4853 199.701 82.0938 199.701 96.1367C199.701 98.8874 199.367 102.072 198.866 105.257L195.025 126.105C191.016 125.525 187.008 125.091 183 125.091C178.992 125.091 174.983 125.525 171.142 126.105L167.301 105.257C166.633 102.072 166.299 98.8874 166.299 96.1367C166.299 81.9491 172.478 68.4853 183 58.0617ZM57.9093 120.458C62.2515 119.59 66.7608 119.3 71.2701 119.3C82.7938 119.3 94.3175 121.906 104.505 127.118C107.01 128.421 109.849 130.013 112.689 132.185L131.895 146.083C126.885 151.295 123.043 157.086 120.204 163.456L97.1567 155.928C93.6495 154.625 90.4763 153.322 87.8041 152.019C73.2742 144.78 62.9196 133.633 57.9093 120.458V120.458ZM113.524 233.236C110.016 235.697 107.177 237.434 104.505 238.592C94.3175 243.66 82.7938 246.41 71.1031 246.41C66.5938 246.41 62.2515 245.976 57.9093 245.252C63.0866 232.078 73.6082 220.786 87.6371 213.692C90.4763 212.244 93.6495 211.086 97.3237 209.783L120.371 202.255C123.043 208.914 127.219 214.995 132.396 220.206L113.524 233.236V233.236ZM183 307.938C172.478 297.515 166.299 283.906 166.299 269.863C166.299 266.968 166.633 263.928 167.301 260.453L170.975 239.895C174.816 240.475 178.825 240.909 183 240.909C187.008 240.909 191.016 240.475 194.858 239.895L198.699 260.743C199.367 263.928 199.701 267.113 199.701 269.863C199.701 284.051 193.522 297.515 183 307.938V307.938ZM294.73 246.555C283.206 246.555 271.682 243.949 261.495 238.737C258.489 237.29 255.816 235.552 253.311 233.815L234.105 219.917C239.115 214.705 243.124 208.914 245.796 202.399L268.843 209.928C272.517 211.086 275.691 212.389 278.363 213.692C292.559 220.786 302.913 232.078 308.091 245.252C303.581 246.265 299.072 246.555 294.73 246.555V246.555Z" fill="black"/>
<circle cx="183.5" cy="182.5" r="29.5" fill="#FFCF10"/>
</svg>
