<svg width="134" height="134" viewBox="0 0 134 134" fill="none" xmlns="http://www.w3.org/2000/svg">
<path fill-rule="evenodd" clip-rule="evenodd" d="M61.6068 4.27597C65.0096 3.98301 68.5387 3.97129 71.9993 4.23986C73.1097 4.34912 74.0833 3.49433 74.1699 2.38141C74.2569 1.26723 73.4259 0.293665 72.3134 0.206887C68.6361 -0.0816348 64.8853 -0.0670671 61.2596 0.242358C60.1483 0.337371 59.3239 1.316 59.4184 2.4286C59.5087 3.48388 60.391 4.28072 61.6068 4.27597ZM92.9039 9.42122C93.6836 9.42122 94.4258 8.96706 94.7574 8.20569C95.2024 7.18114 94.7343 5.98905 93.7112 5.54375C90.3332 4.07011 86.8065 2.87104 83.2311 1.97951C82.1458 1.70714 81.0531 2.36969 80.7837 3.45506C80.5141 4.53883 81.1735 5.63718 82.2557 5.90702C85.6139 6.74345 88.9264 7.86966 92.0993 9.25242L92.9121 9.42439L92.9039 9.42122ZM41.5325 9.42439C44.7032 8.0106 48.0063 6.86475 51.3554 6.00615C52.4365 5.72966 53.0886 4.62719 52.8115 3.54437C52.5348 2.46185 51.4322 1.80595 50.3547 2.08624C46.7885 3.00026 43.2725 4.21991 39.9035 5.71351C38.8831 6.16672 38.4223 7.36134 38.874 8.38337C39.2082 9.13808 39.947 9.58718 40.7221 9.58718L41.5325 9.42439ZM112.339 20.4307C113.083 19.6066 113.026 18.3261 112.203 17.5727C109.486 15.0837 106.543 12.8021 103.456 10.7926C102.52 10.1839 101.269 10.4486 100.661 11.3864C100.054 12.3232 100.319 13.5768 101.254 14.1852C104.156 16.0737 106.923 18.2181 109.477 20.5573L110.841 21.0793L112.339 20.4307ZM24.2306 20.8158C26.7805 18.4645 29.5334 16.3043 32.4208 14.3999C33.3527 13.7848 33.6104 12.5307 32.9968 11.5973C32.3821 10.6634 31.1297 10.4065 30.1988 11.0203C27.1269 13.0472 24.1993 15.3456 21.4952 17.852C20.6766 18.6108 20.6274 19.8907 21.3849 20.71L22.8748 21.3631L24.2306 20.8158ZM125.007 37.6799C125.989 37.1434 126.348 35.9143 125.813 34.935C124.048 31.7052 121.999 28.5942 119.723 25.6915C119.034 24.813 117.763 24.66 116.888 25.3501C116.01 26.0405 115.857 27.3128 116.546 28.1913C118.686 30.9188 120.611 33.8414 122.269 36.8758C122.636 37.5488 123.328 37.9282 124.043 37.9282L125.007 37.6799ZM67.7585 108.38C67.8327 108.3 69.6947 106.249 73.2634 106.249C89.6449 106.249 96.6166 103.019 101.947 92.9618C107.649 82.2143 104.916 74.3935 102.51 67.4892C101.387 64.2705 100.327 61.2329 100.327 58.2749C100.327 51.7342 105.166 44.3821 105.214 44.3083L105.722 43.5378L88.8649 24.971L88.1363 25.5994C84.3958 28.7563 81.2004 30.2287 78.0681 30.2287C74.9887 30.2287 71.9564 28.8748 67.5985 25.5582L66.4027 25.5588C62.047 28.8748 59.0149 30.2287 55.9326 30.2287C52.8005 30.2287 49.6051 28.7563 45.8735 25.5927L45.1345 24.971L28.2778 43.5378L28.7837 44.308C28.8371 44.3821 33.6761 51.7184 33.6761 58.2749C33.6761 61.2329 32.6161 64.2705 31.4906 67.4917C29.0816 74.3935 26.3546 82.2143 32.0534 92.9618C37.3869 103.019 44.3562 106.249 60.7399 106.249C64.3087 106.249 66.1706 108.3 66.2495 108.385L66.9896 109.231L67.7585 108.38ZM9.76395 38.2864C10.4828 38.2864 11.1789 37.9022 11.5438 37.2238C13.185 34.1762 15.0929 31.2403 17.2165 28.4979C17.8997 27.6155 17.7392 26.3446 16.8583 25.6595C15.9772 24.9761 14.7088 25.1357 14.0238 26.0193C11.7654 28.9368 9.73454 32.0605 7.98823 35.3036C7.45908 36.2873 7.82586 37.5136 8.80747 38.0441L9.76173 38.288L9.76395 38.2864ZM38.0519 88.7182C33.6842 80.4759 35.9853 74.3751 38.2127 68.477C39.3674 65.4135 40.4584 62.5184 40.4584 59.5525C40.4584 54.3236 37.3975 47.2559 36.3402 44.9671L46.2677 33.8895C52.7637 38.9635 59.843 38.9243 66.9991 33.7559C74.1707 38.9372 81.0874 38.9556 87.5726 33.8822L88.8244 35.2678L38.4364 89.3871L38.0519 88.7182ZM61.6472 99.0151C54.4915 99.0201 49.4606 98.2828 45.6973 96.4624L95.6642 42.7878L97.6676 44.9769C96.6007 47.2664 93.5448 54.3287 93.5448 59.5525C93.5448 62.5134 94.6312 65.4186 95.7855 68.4957C98.0184 74.4435 100.325 80.594 95.9486 88.8446C91.9145 96.4522 85.9605 99.0201 72.3482 99.0201C69.7445 99.0201 67.9405 100.074 66.9991 100.811C66.0579 100.074 64.2561 99.0201 61.6472 99.0151ZM131.401 58.1114C132.498 57.9341 133.238 56.8893 133.051 55.7881C132.433 52.1488 131.508 48.5389 130.299 45.058C129.931 44.0002 128.781 43.4443 127.728 43.8108C126.675 44.1781 126.117 45.3303 126.483 46.3869C127.619 49.6559 128.488 53.0476 129.069 56.4652C129.236 57.453 130.091 58.1498 131.057 58.1498L131.401 58.1114ZM2.87575 58.5605C3.84756 58.5605 4.70475 57.8559 4.86664 56.8639C5.42408 53.4425 6.27227 50.0455 7.38667 46.7672C7.7465 45.7097 7.18178 44.561 6.12555 44.2003C5.07122 43.8396 3.9225 44.4059 3.56283 45.4633C2.37633 48.9525 1.47361 52.5693 0.879646 56.2112C0.700366 57.3146 1.44642 58.3534 2.54786 58.5342L2.87575 58.5605ZM131.108 79.8358C132.078 79.8358 132.934 79.1336 133.098 78.1433C133.696 74.5252 134 70.8121 134 67.1069C133.991 65.7033 133.089 64.8076 131.98 64.8076C130.849 64.8155 129.952 65.7283 129.96 66.845C129.961 70.591 129.675 74.0812 129.112 77.482C128.93 78.5841 129.675 79.6261 130.775 79.8079L131.108 79.8358ZM3.24569 79.9416C4.35172 79.762 5.0943 78.7184 4.91012 77.6163C4.34003 74.2129 4.04676 70.7212 4.03965 67.2403L2.01983 65.2212C3.13361 65.2212 4.0368 66.1235 4.03965 67.2403L2.01129 65.226C0.900198 65.2241 -0.00252534 66.1311 5.30776e-06 67.2479C0.00791068 70.9505 0.319515 74.6646 0.925651 78.2855C1.09149 79.2746 1.94695 79.9739 2.91512 79.9739L3.24569 79.9416ZM124.168 100.094C124.885 100.094 125.579 99.7105 125.946 99.0347C127.702 95.7894 129.198 92.3743 130.393 88.8851C130.754 87.8289 130.192 86.678 129.138 86.3157C128.076 85.9495 126.932 86.5158 126.571 87.5736C125.449 90.8506 124.044 94.0573 122.394 97.1066C121.863 98.089 122.226 99.3166 123.207 99.8486L124.177 100.089L124.168 100.094ZM10.8545 99.9677C11.8391 99.4274 12.2008 98.1998 11.6674 97.2187C10.0126 94.1732 8.60179 90.9716 7.47426 87.7013C7.10922 86.645 5.95686 86.0851 4.90553 86.4487C3.85072 86.8135 3.29138 87.966 3.65563 89.0223C4.85668 92.5035 6.35843 95.9119 8.11976 99.1519C8.48607 99.8265 9.17947 100.208 9.89564 100.208L10.8545 99.9677ZM112.399 116.467C115.109 113.959 117.629 111.216 119.89 108.309C120.575 107.427 120.417 106.155 119.538 105.469C118.658 104.784 117.388 104.939 116.703 105.822C114.577 108.556 112.209 111.134 109.663 113.485C108.843 114.242 108.791 115.521 109.547 116.343L111.023 116.994L112.399 116.467ZM24.5544 116.426C25.302 115.601 25.2481 114.322 24.4263 113.566C21.8765 111.22 19.5031 108.647 17.3723 105.918C16.6847 105.036 15.4143 104.88 14.5373 105.57C13.658 106.259 13.5029 107.53 14.1901 108.41C16.4569 111.314 18.9818 114.051 21.6938 116.545L23.0569 117.075L24.5544 116.426ZM93.9644 128.568C97.3313 127.076 100.601 125.297 103.684 123.275C104.617 122.662 104.877 121.408 104.266 120.473C103.655 119.538 102.403 119.277 101.469 119.89C98.5725 121.792 95.5009 123.462 92.3404 124.855C91.3196 125.305 90.8559 126.499 91.3049 127.522C91.6375 128.28 92.3777 128.73 93.1549 128.73L93.9644 128.568ZM40.9681 128.783C41.7465 128.783 42.4874 128.331 42.8197 127.571C43.2673 126.548 42.801 125.354 41.7794 124.906C38.6125 123.518 35.5355 121.852 32.6338 119.956C31.7018 119.346 30.4488 119.608 29.8393 120.543C29.2291 121.479 29.4921 122.733 30.4262 123.343C33.5136 125.362 36.7884 127.135 40.1594 128.613L40.9659 128.791L40.9681 128.783ZM72.595 133.98C76.2786 133.679 79.9486 133.067 83.5081 132.164C84.5896 131.889 85.2445 130.789 84.9702 129.706C84.6965 128.623 83.6012 127.969 82.5167 128.241C79.1721 129.089 75.723 129.665 72.266 129.952C71.1549 130.044 70.3277 131.022 70.4199 132.136C70.5072 133.192 71.3909 133.992 72.595 133.98ZM61.7079 134C62.7512 134.002 63.6348 133.2 63.7203 132.141C63.8096 131.028 62.9814 130.052 61.8695 129.963C58.4094 129.683 54.9597 129.114 51.6169 128.273C50.5343 128.008 49.4375 128.659 49.1659 129.743C48.8939 130.825 49.5506 131.925 50.6321 132.198C54.1911 133.093 57.8629 133.698 61.7079 134Z" fill="#FFCF10"/>
</svg>
