<svg width="134" height="134" viewBox="0 0 134 134" fill="none" xmlns="http://www.w3.org/2000/svg">
<path fill-rule="evenodd" clip-rule="evenodd" d="M76.9451 2.31333C77.05 1.45157 76.4411 0.656367 75.5748 0.546915L67 0C65.9639 0.00439178 65.2566 0.713795 65.2566 1.58501C65.2566 2.46129 65.9639 3.1663 66.8368 3.1663L75.1723 3.67538C76.1599 3.6943 76.8409 3.1136 76.9451 2.31333ZM50.3311 5.36173L58.5034 3.71862C59.3787 3.60883 59.986 2.81836 59.8719 1.95187C59.7575 1.08539 58.9593 0.475974 58.0951 0.590155L49.5095 2.31333C48.6633 2.53763 48.1637 3.40885 48.3925 4.25168C48.5817 4.95636 49.2207 5.42287 49.9152 5.42287L50.3311 5.36173ZM93.3546 7.09132C93.6776 6.27551 93.2923 5.35159 92.4821 5.01851L84.1662 2.22685C83.3303 1.99916 82.4651 2.50419 82.2403 3.34703C82.0167 4.19459 82.5215 5.05635 83.3644 5.27998L91.2791 7.93449C92.5018 8.0605 93.092 7.69397 93.3546 7.09132ZM34.9593 11.7828L42.4398 8.06421C43.2404 7.72775 43.6203 6.80317 43.2825 5.99952C42.9472 5.19451 42.0203 4.81279 41.2153 5.14654L33.3811 9.03711C32.6195 9.4793 32.3621 10.4512 32.8024 11.2031C33.0983 11.7082 33.6257 11.9889 34.17 11.9889L34.9593 11.7828ZM107.948 15.9555C108.472 15.2548 108.338 14.2651 107.646 13.7317L100.359 8.88577C99.5933 8.44628 98.6295 8.70335 98.197 9.46545C97.7578 10.2174 98.0206 11.1839 98.7768 11.6227L105.721 16.2365L106.694 16.5608L107.948 15.9555ZM21.7712 21.9442L28.041 16.4311C28.7315 15.898 28.8576 14.9072 28.3237 14.2124C27.7939 13.5222 26.7985 13.3939 26.108 13.9316L19.5444 19.7173C18.9179 20.3355 18.9233 21.3398 19.5425 21.9546L20.647 22.4198L21.7712 21.9442ZM119.752 28.2788C120.448 27.7444 120.574 26.7543 120.042 26.0587L114.239 19.5011C113.628 18.8782 112.629 18.8836 112.012 19.5025C111.395 20.1217 111.399 21.1209 112.018 21.7357L117.547 27.9977L118.801 28.6031L119.752 28.2788ZM11.0694 35.7809L16.2798 28.2356C16.814 27.5447 16.6799 26.5543 15.9857 26.0209C15.2954 25.4875 14.3039 25.6209 13.7717 26.3158L8.90739 33.5973C8.4733 34.3631 8.73375 35.3296 9.49129 35.7674L10.2694 35.9755L11.0694 35.7809ZM66.2433 45.6612C67.8943 43.7657 69.3471 34.3854 82.3153 38.8638C82.3153 38.8638 73.175 17.96 62.2717 36.9781C56.1385 49.1677 64.5922 47.5387 66.2433 45.6612ZM102.348 36.97C92.9634 18.7728 82.3954 38.8367 82.3954 38.8367C95.2817 34.3854 96.5245 39.5151 98.9768 41.1193C101.071 42.4922 105.89 44.569 102.348 36.97ZM127.99 43.2181C128.793 42.8952 129.174 41.9669 128.836 41.1622L124.941 33.3162C124.498 32.5727 123.529 32.3156 122.775 32.7534C122.02 33.196 121.766 34.1624 122.204 34.9154L125.914 42.375C126.175 42.9904 126.76 43.3526 127.38 43.3526L127.99 43.2181ZM66.7279 70.4213C80.7926 70.4213 79.4696 40.0339 82.231 39.031C82.231 39.031 62.9277 47.8732 61.5286 56.4502C60.9501 60.0222 60.3531 70.4213 66.7279 70.4213ZM108.164 52.2336C104.73 43.7117 82.7595 39.0705 82.7595 39.0705C85.5971 39.4171 100.645 68.8897 106.043 67.8587C113.281 66.4727 109.592 55.786 108.164 52.2336ZM90.7602 52.4714C87.814 46.1497 82.6149 38.9874 82.3928 39.3407C81.7735 40.3434 87.7063 54.7452 88.5807 69.2708C89.3477 82.0062 88.8346 84.3371 88.8346 84.3371C88.8346 84.3371 102.692 82.7491 107.386 94.9136C99.7195 75.576 95.7419 63.1814 90.7602 52.4714ZM5.29687 50.5905L7.95611 42.6776C8.2973 41.8713 7.9122 40.9477 7.10585 40.6143C6.30118 40.2819 5.37372 40.6623 5.04132 41.4717L2.24847 49.7906C2.01453 50.6229 2.51703 51.4898 3.36206 51.7137C4.46805 51.7658 5.10736 51.2996 5.29687 50.5905ZM132.054 59.8222C132.917 59.6986 133.524 58.903 133.411 58.0369L131.687 49.4447C131.452 48.6089 130.586 48.1086 129.741 48.3373C128.898 48.5664 128.401 49.4328 128.627 50.2757L130.281 58.4601C130.382 59.251 131.06 59.8269 132.054 59.8222ZM1.58703 68.6928C2.4574 68.6928 3.16782 67.9881 3.16782 67.1169L3.697 58.7844C3.80273 57.9132 3.19147 57.1228 2.32481 57.013C1.46221 56.8984 0.665317 57.5126 0.55384 58.3797L0 67C0.00523581 67.9881 0.710077 68.6928 1.58703 68.6928ZM131.874 77.1157C132.655 77.1157 133.336 76.5347 133.44 75.7392L134 67C134.003 65.9072 133.298 65.2025 132.422 65.2025C131.55 65.2025 130.84 65.9072 130.84 66.7791L130.303 75.3453C130.191 76.202 130.802 76.9924 131.874 77.1157ZM4.2375 85.5715C5.07695 85.3377 5.57658 84.4675 5.35295 83.625L3.71862 75.4534C3.60545 74.5778 2.81008 73.9731 1.94342 74.0835C1.07964 74.1927 0.468206 74.9869 0.583737 75.8587L2.29171 84.4472C2.48645 85.1539 3.12424 85.6144 3.8225 85.6144L4.2375 85.5715ZM85.7228 85.312C85.7169 85.3144 80.0929 78.0231 67.1224 77.2316C36.2305 75.3446 22.7944 106.869 22.7944 106.869L66.2433 106.867C74.9053 89.6117 85.7169 85.3144 85.7228 85.312ZM128.919 92.6412L131.752 84.3391C131.965 83.4922 131.462 82.6241 130.619 82.4001C129.777 82.1772 128.91 82.6764 128.684 83.5206L126.001 91.4305C125.67 92.2338 126.05 93.1621 126.86 93.4958C128.084 93.6141 128.669 93.2475 128.919 92.6412ZM93.2249 87.4308C79.1488 87.4288 70.2991 106.869 70.2991 106.869L111.213 106.867C111.213 106.867 106.5 87.4288 93.2249 87.4308ZM11.1775 101.159C11.933 100.718 12.188 99.7524 11.7504 98.9947L8.04259 91.5169C7.70951 90.719 6.78121 90.3373 5.97638 90.6717C5.17171 91.0095 4.7915 91.9338 5.12678 92.7385L9.01549 100.576C9.30972 101.089 9.83839 101.375 10.3851 101.375L11.1775 101.159ZM120.163 107.775L125.049 100.489C125.479 99.7416 125.222 98.7755 124.466 98.3377C123.708 97.9036 122.744 98.161 122.304 98.9136L117.655 105.851C117.128 106.545 117.261 107.542 117.954 108.071L118.909 108.402L120.163 107.775ZM21.9226 114.434C22.5328 113.812 22.5328 112.813 21.9134 112.193L16.4095 105.937C15.8659 105.237 14.8758 105.108 14.1801 105.637C13.4898 106.169 13.3624 107.166 13.8947 107.855L19.6741 114.434L20.7983 114.888L21.9226 114.434ZM107.818 120.142L114.391 114.369C115.008 113.75 115.008 112.75 114.392 112.131C113.774 111.513 112.773 111.513 112.154 112.131L105.894 117.634C105.191 118.17 105.062 119.164 105.595 119.855L106.845 120.466L107.818 120.142ZM35.1323 125.071C36.1527 123.734 35.8925 122.769 35.1375 122.33L28.1923 117.699C27.5006 117.165 26.508 117.294 25.9793 117.988C25.4468 118.678 25.5795 119.674 26.27 120.202L33.554 125.071L34.354 125.287L35.1323 125.071ZM92.6844 128.898L100.532 125.028C101.291 124.583 101.549 123.616 101.111 122.858C100.677 122.106 99.7051 121.845 98.953 122.282L91.4737 125.979C90.6679 126.315 90.2876 127.244 90.6204 128.048C90.8726 128.659 91.4632 129.026 92.0824 129.026L92.6844 128.898ZM51.6499 130.627C51.886 129.787 51.3827 128.92 50.5385 128.697L42.6344 126.022C41.8201 125.687 40.8972 126.072 40.5631 126.882C40.2305 127.687 40.6129 128.61 41.4205 128.944L49.7257 131.752C50.8342 131.805 51.4719 131.34 51.6499 130.627ZM84.3824 131.73C85.2355 131.496 85.7351 130.63 85.5118 129.787C85.2828 128.944 84.4165 128.444 83.5733 128.668L75.3885 130.303C74.5225 130.41 73.9126 131.206 74.0271 132.068C74.1322 132.863 74.8109 133.444 75.7993 133.438L84.3824 131.73ZM68.6215 132.422C68.6134 131.547 67.8759 130.839 67.0039 130.839L58.7196 130.303C57.8624 130.201 57.0697 130.806 56.9579 131.672C56.8434 132.539 57.4548 133.333 58.3242 133.444L67 134C67.9325 134.001 68.6134 133.296 68.6215 132.422Z" fill="#FFCF10"/>
</svg>
