<svg width="134" height="134" viewBox="0 0 134 134" fill="none" xmlns="http://www.w3.org/2000/svg">
<path fill-rule="evenodd" clip-rule="evenodd" d="M75.3725 3.689C76.1538 3.69344 76.8348 3.11006 76.9351 2.31291C77.044 1.44735 76.4351 0.654632 75.5687 0.544736L67 0C65.9565 0.000949574 65.249 0.709106 65.249 1.58163C65.249 2.4567 65.9565 3.16264 66.8298 3.16264L75.1698 3.689H75.3725ZM50.3159 5.37135L58.5059 3.72954C59.3678 3.60761 59.9782 2.81236 59.8639 1.94711C59.747 1.08061 58.9538 0.473793 58.087 0.590342L49.505 2.31069C48.6541 2.53746 48.1546 3.40523 48.3831 4.24831C48.5725 4.95298 49.2117 5.41854 49.9059 5.41854L50.3159 5.37135ZM91.8781 8.05956C92.4977 8.05956 93.088 7.69059 93.3406 7.07967C93.6733 6.27302 93.288 5.34823 92.478 5.01632L84.1707 2.22962C83.3246 1.99969 82.4596 2.50198 82.2347 3.34474C82.0112 4.19003 82.5161 5.05464 83.359 5.27761L91.266 7.94555L91.8781 8.05956ZM34.9495 11.7764L42.43 8.06716C43.2308 7.72607 43.6106 6.80097 43.2729 5.99431C42.9375 5.19083 42.0103 4.80983 41.2053 5.14586L33.3683 9.04008C32.6089 9.47936 32.351 10.4459 32.7915 11.2019C33.0875 11.7061 33.6149 11.9886 34.1594 11.9886L34.9495 11.7764ZM107.95 15.9519C108.469 15.2551 108.335 14.2623 107.643 13.7311L100.348 8.87793C99.59 8.44151 98.6259 8.70437 98.1932 9.4594C97.7539 10.2163 98.017 11.1842 98.7732 11.6174L105.72 16.2357L106.693 16.56L107.95 15.9519ZM21.7725 21.9516L28.0367 16.4384C28.7199 15.8968 28.8465 14.9049 28.3124 14.2129C27.7822 13.5221 26.7869 13.3961 26.0964 13.9275L19.5223 19.722C18.9054 20.3364 18.9108 21.3372 19.5302 21.9538L20.6373 22.4178L21.7725 21.9516ZM119.769 28.2756C120.447 27.7413 120.573 26.7484 120.042 26.0583L114.255 19.499C113.626 18.877 112.626 18.8783 112.009 19.4971C111.393 20.1163 111.397 21.1168 112.016 21.7324L117.539 27.9918L118.796 28.5999L119.769 28.2756ZM10.2655 35.9709C10.8112 35.9709 11.3437 35.6878 11.6343 35.1811L16.2585 28.2351C16.8014 27.5399 16.6672 26.5489 15.9729 26.0175C15.2824 25.487 14.2911 25.6178 13.7582 26.3126L8.89963 33.6064C8.45982 34.3592 8.72019 35.3236 9.47787 35.7594L10.2579 35.9779L10.2655 35.9709ZM127.979 43.2343C128.795 42.8891 129.174 41.9605 128.836 41.1558L124.938 33.3226C124.498 32.567 123.528 32.3117 122.773 32.7504C122.018 33.1903 121.765 34.1572 122.203 34.9119L125.932 42.383C126.174 42.9841 126.762 43.349 127.379 43.349L127.979 43.2343ZM34.686 87.9483V78.1582H100.693L100.875 88.7185C100.881 91.3206 102.985 93.4248 105.581 93.4248C108.179 93.4248 110.281 91.3206 110.281 88.7242V57.3822C110.281 54.7897 108.179 52.6852 105.581 52.6852C102.985 52.6852 100.881 54.7897 100.881 57.3848L100.875 69.9492L34.686 69.9289V46.0315C34.68 43.0129 32.2248 40.5575 29.196 40.5575C26.1677 40.5575 23.7136 43.0129 23.7136 46.0413L23.7187 87.9483C23.7136 90.9845 26.1677 93.4403 29.196 93.4403C32.2248 93.4403 34.68 90.9845 34.686 87.9483ZM3.75332 51.7616C4.45414 51.7616 5.09319 51.2948 5.28261 50.5854L7.94683 42.6668C8.2837 41.8677 7.89853 40.9423 7.09239 40.6107C6.28735 40.2801 5.36021 40.6607 5.02746 41.468L2.23004 49.7813C2.00008 50.619 2.50261 51.4855 3.34803 51.7094L3.75332 51.7616ZM44.4721 57.3993C47.9347 57.3993 50.7423 54.5933 50.7423 51.133C50.7423 47.6717 47.9347 44.866 44.4721 44.866C41.0135 44.866 38.2058 47.6717 38.2058 51.133C38.2058 54.5933 41.0135 57.3993 44.4721 57.3993ZM132.054 59.8146C132.917 59.6942 133.524 58.899 133.411 58.035L131.669 49.4367C131.45 48.6025 130.584 48.103 129.741 48.3336C128.898 48.5623 128.398 49.4291 128.627 50.2712L130.27 58.4565C130.381 59.2486 131.06 59.8253 132.054 59.8146ZM96.9625 56.9566C96.9636 52.44 93.3064 48.7833 88.7943 48.7833L70.6693 48.7881C66.1499 48.7833 62.4914 52.44 62.4914 56.9512L62.4996 65.2872H96.9625V56.9566ZM58.9722 63.2806V62.4901V51.5244C58.9656 50.2285 57.9136 49.1751 56.6157 49.1751C55.3189 49.1751 54.2656 50.2285 54.2656 51.5251L54.269 60.9294H40.9501C39.651 60.9268 38.5963 61.9796 38.5963 63.2781C38.5963 64.575 39.651 65.629 40.949 65.629L56.6206 65.6318C57.9136 65.629 58.9656 64.575 58.9722 63.2806ZM1.57278 68.6899C2.44338 68.6899 3.1537 67.9834 3.1537 67.1096L3.66938 58.7808C3.78863 57.9105 3.17698 57.1184 2.31066 57.006C1.44386 56.8942 0.650865 57.5061 0.53905 58.3729L9.18805e-05 66.9899C-0.00925478 67.9834 0.695684 68.6899 1.57278 68.6899ZM131.871 77.1042C132.655 77.1131 133.336 76.5319 133.44 75.737L134 66.9899C134.003 65.9023 133.298 65.1929 132.422 65.1929C131.55 65.1929 130.84 65.9023 130.84 66.7764L130.31 75.3205C130.191 76.194 130.802 76.987 131.871 77.1042ZM4.21673 85.5565C5.06294 85.3304 5.56531 84.462 5.33915 83.6192L3.70992 75.4421C3.59146 74.5702 2.79593 73.9634 1.92929 74.0778C1.06518 74.1892 0.453842 74.9842 0.5693 75.8507L2.29086 84.4417C2.4749 85.1476 3.11268 85.6119 3.8097 85.6119L4.21673 85.5565ZM127.464 93.6103C128.084 93.6103 128.669 93.2417 128.921 92.632L131.75 84.3403C131.965 83.4884 131.462 82.6219 130.619 82.3958C129.774 82.1696 128.91 82.6719 128.683 83.5166L125.992 91.4143C125.669 92.2298 126.049 93.1533 126.859 93.4891L127.464 93.6103ZM11.1701 101.144C11.9197 100.712 12.175 99.7456 11.737 98.9912L8.02792 91.5157C7.6958 90.7137 6.7674 90.3305 5.96237 90.6681C5.15765 91.002 4.77755 91.9274 5.11299 92.7347L9.00099 100.576C9.29621 101.083 9.82503 101.367 10.3719 101.367L11.1701 101.144ZM120.174 107.772L125.04 100.495C125.478 99.7361 125.221 98.7695 124.465 98.3315C123.707 97.8954 122.743 98.1551 122.302 98.9101L117.661 105.846C117.126 106.538 117.259 107.534 117.952 108.067L118.917 108.4L120.174 107.772ZM21.8942 114.42C22.5207 113.804 22.5207 112.8 21.9011 112.185L16.3801 105.927C15.8559 105.229 14.863 105.1 14.1673 105.629C13.4769 106.167 13.3507 107.157 13.8844 107.848L19.6642 114.42L20.7792 114.886L21.8942 114.42ZM107.808 120.136L114.397 114.359C115.007 113.742 115.007 112.743 114.39 112.123C113.772 111.509 112.773 111.509 112.154 112.123L105.882 117.622C105.188 118.166 105.059 119.156 105.592 119.851L106.835 120.46L107.808 120.136ZM34.3355 125.274C34.8824 125.274 35.4152 124.988 35.7056 124.484C36.145 123.727 35.8821 122.76 35.1271 122.327L28.1786 117.683C27.4915 117.156 26.4963 117.285 25.9676 117.98C25.435 118.675 25.5679 119.666 26.2583 120.199L33.5507 125.061L34.3414 125.264L34.3355 125.274ZM92.685 128.892L100.53 125.021C101.288 124.574 101.545 123.608 101.109 122.851C100.673 122.098 99.7069 121.841 98.9493 122.274L91.4687 125.973C90.6656 126.312 90.2826 127.236 90.6209 128.041C90.8708 128.65 91.4586 129.016 92.078 129.016L92.685 128.892ZM50.1256 131.797C50.8253 131.797 51.4629 131.33 51.6509 130.626C51.8774 129.783 51.3737 128.917 50.5294 128.693L42.6125 126.014C41.8157 125.684 40.8871 126.064 40.5529 126.873C40.2205 127.679 40.6031 128.602 41.4104 128.936L49.7078 131.75L50.1256 131.797ZM75.7982 133.432L84.3937 131.71C85.2304 131.492 85.7301 130.626 85.5064 129.778C85.2804 128.936 84.4111 128.436 83.5682 128.664L75.3928 130.291C74.5165 130.402 73.9062 131.197 74.0208 132.059C74.1258 132.858 74.8046 133.435 75.7982 133.432ZM67.0609 134C67.9253 133.997 68.6065 133.287 68.6065 132.416C68.6065 131.54 67.8689 130.835 66.9969 130.835L58.7289 130.311C57.8544 130.193 57.0614 130.802 56.9496 131.668C56.8351 132.535 57.4464 133.325 58.3161 133.435L67 134H67.0609Z" fill="#FFCF10"/>
</svg>
