<svg width="134" height="134" viewBox="0 0 134 134" fill="none" xmlns="http://www.w3.org/2000/svg">
<path fill-rule="evenodd" clip-rule="evenodd" d="M75.389 3.69115L75.5568 0.559265L67 0L66.8322 3.18781L75.1653 3.69115H75.389ZM50.3339 5.36895L58.4992 3.74708L58.1077 0.615192L49.495 2.34891L48.3765 4.25042L50.3339 5.36895ZM93.3414 7.10267L92.4466 5.03339L84.1694 2.23706L82.212 3.35559L83.3305 5.31302L91.2721 7.94157L93.3414 7.10267ZM34.9541 11.8005L42.4482 8.05342L43.2871 5.98414L41.2179 5.14524L33.3881 9.0601L32.773 11.2412L34.9541 11.8005ZM107.938 15.9391L107.603 13.7579L100.332 8.89232L98.207 9.45159L98.7663 11.6327L105.701 16.2746L107.938 15.9391ZM21.7554 21.9791L28.0192 16.4424L28.2988 14.2053L26.1177 13.9257L19.5184 19.7421V21.9791H21.7554ZM119.739 28.2988L120.018 26.0618L114.202 19.5184H112.021V21.7554L117.502 28.0192L119.739 28.2988ZM52.571 112.077C54.3138 112.078 56.5749 112.329 57.9556 110.948L62.3581 105.198L64.8748 101.786L68.6219 101.507C70.5059 101.532 73.8956 102.159 73.8956 99.5239C73.8956 97.3882 71.5106 97.6399 70.006 97.3882L74.5501 88.6995H78.6886C80.5521 88.7275 83.5656 89.354 83.5656 86.7176C83.5656 84.4587 81.0513 84.7112 79.6713 84.4587L87.3573 72.0334L95.6344 71.6419L104.023 70.9149C106.033 70.6492 112.562 70.1485 112.562 67.1346C112.562 63.4941 105.66 63.2424 103.146 62.8667L90.0977 61.9666H87.3573L78.0175 49.6628L80.4224 49.4391C82.0563 49.1839 83.5656 49.1839 83.5656 47.174C83.5656 44.4118 79.4187 45.2909 77.9146 45.1659L74.5501 45.1886L68.3982 36.7437L70.8589 36.3523C72.3917 36.2526 73.8956 36.3776 73.8956 34.3704C73.8956 31.8589 70.2586 32.4863 68.626 32.3614L64.8748 32.1018L62.3581 28.8581L57.7162 22.818C56.4489 21.6908 54.0624 21.9416 52.5583 21.9416L50.1661 21.9232L60.5684 45.4124L63.0851 54.4725L63.98 59.1144C63.9795 62.8667 59.2096 62.3642 56.7008 62.3642L37.2471 63.98L27.8514 51.5643L21.4199 50.5576L25.5584 65.49L21.4199 66.7763L25.5584 68.3982L21.4199 83.3305L27.8514 82.4357L37.2471 70.02L39.6519 70.2997L56.7095 71.53C59.2096 71.655 63.9795 71.1508 63.9795 74.7921L63.0851 79.4157L61.5751 85.7354L50.1661 112.077H52.571ZM11.6327 35.1778L16.2746 28.2429L15.995 26.0058L13.7579 26.3414L8.89232 33.6119L9.50751 35.793L11.6327 35.1778ZM127.96 43.2312L128.799 41.1619L124.94 33.3322L122.759 32.773L122.199 34.8982L125.891 42.3923L127.96 43.2312ZM5.31302 50.6135L7.94157 42.672L7.10267 40.6027L5.03339 41.4975L2.23706 49.7746L3.35559 51.7321L5.31302 50.6135ZM132.043 59.8414L131.651 49.4391L129.694 48.3205L128.631 50.278L130.253 58.4432L132.043 59.8414ZM3.18781 67.1119L3.69115 58.7788L0.559265 58.3873L0 67L3.18781 67.1119ZM131.875 77.1227L134 67L130.812 66.7763L130.309 75.3331L131.875 77.1227ZM4.25042 85.5676L5.36895 83.6102L3.69115 75.4449L0.559265 75.8364L2.29299 84.4491L4.25042 85.5676ZM128.911 92.6144L131.707 84.3372L130.588 82.3798L128.687 83.4983L126.003 91.4399L126.841 93.5092L128.911 92.6144ZM11.1853 101.171L11.7446 98.99L8.05342 91.4958L5.98414 90.6569L5.14524 92.7262L9.00417 100.556L11.1853 101.171ZM120.13 107.77L124.996 100.5L124.437 98.3189L122.311 98.9341L117.669 105.869L117.949 108.05L120.13 107.77ZM21.9232 114.426V112.189L16.3865 105.925L14.1494 105.645L13.8698 107.826L19.6861 114.426H21.9232ZM107.77 120.13L114.37 114.37V112.133H112.133L105.869 117.614L105.589 119.851L107.77 120.13ZM35.7371 124.492L35.1219 122.311L28.187 117.669L25.9499 118.005L26.2855 120.186L33.5559 125.052L35.7371 124.492ZM92.6703 128.911L100.5 124.996L101.115 122.871L98.9341 122.255L91.4399 126.003L90.601 128.016L92.6703 128.911ZM51.6761 130.644L50.5576 128.687L42.616 126.003L40.5467 126.897L41.3856 128.911L49.7187 131.763L51.6761 130.644ZM75.7805 133.441L84.3932 131.707L85.5117 129.806L83.5543 128.687L75.389 130.309L75.5568 133.441H75.7805ZM67.0559 134L67 130.812L58.7229 130.309L58.3314 133.441L67 134H67.0559Z" fill="#FFCF10"/>
</svg>
