<svg width="132" height="132" viewBox="0 0 132 132" fill="none" xmlns="http://www.w3.org/2000/svg">
<path fill-rule="evenodd" clip-rule="evenodd" d="M122.7 100.157C141.367 69.3013 131.036 29.2673 99.738 10.9285L93.1741 12.5006L94.8746 19.0558C121.604 34.7292 130.438 68.9511 114.535 95.3387C98.6366 121.726 63.9331 130.437 37.1746 114.759C10.4173 99.0784 1.58234 64.8565 17.4842 38.4689C22.6357 29.9176 30.0419 22.9051 38.7984 18.1459L35.0497 24.8488L42.6244 24.239L52.5179 9.60411L39.2235 -3.02692e-05L28.8662 1.52443L37.8322 8.07964C25.9846 13.5487 15.9782 22.4787 9.25067 33.6431C-9.34857 64.5087 0.986942 104.538 32.2852 122.877C63.5817 141.218 104.173 131.03 122.7 100.157ZM64.2665 83.5408H39.0689C39.3298 80.468 43.3973 77.6454 48.6726 74.8227C57.6368 69.9897 64.3438 66.2047 64.3438 56.4696C64.3438 48.9639 58.92 40.9414 46.8641 40.9414C34.8854 40.9414 28.6325 49.7834 28.6325 59.2208L38.6052 59.1493C38.6541 53.9447 41.7391 50.0049 46.9395 50.0049C52.213 50.0049 54.3983 52.9823 54.3983 56.3981C54.3983 59.4423 53.4189 61.8195 43.7011 66.9479C35.7127 71.1783 28.6325 81.0969 28.6325 92.6876H64.2665V83.5408ZM97.1934 82.3212H102.913V73.6317H97.1934V41.1606H85.5994L65.194 73.6317V82.3212H88.0728V92.6876H97.1934V82.3212ZM88.0728 53.2039V73.6317H75.0875L88.0728 53.2039Z" fill="#FFE500"/>
</svg>
