<svg width="350" height="350" viewBox="0 0 350 350" fill="none" xmlns="http://www.w3.org/2000/svg">
<path d="M328.125 158.973H234.832L315.624 112.321L299.602 84.5542L218.8 131.206L265.436 50.4073L237.679 34.3802L191.032 115.159V21.875H158.968V115.169L112.321 34.3802L84.5537 50.4073L131.19 131.186L50.408 84.5542L34.376 112.321L115.168 158.973H21.875V191.037H115.158L34.376 237.689L50.3978 265.456L131.2 218.804L84.5537 299.603L112.311 315.63L158.968 234.841V328.125H191.032V232.84L238.536 315.12L264.569 300.093L217.055 217.793L299.582 265.446L315.614 237.679L234.832 191.027H328.115V158.973H328.125V158.973ZM175 218.59C169.276 218.59 163.609 217.463 158.32 215.273C153.032 213.082 148.227 209.871 144.179 205.823C140.131 201.775 136.92 196.969 134.729 191.679C132.538 186.39 131.41 180.72 131.41 174.995C131.409 169.269 132.536 163.6 134.725 158.31C136.915 153.02 140.125 148.213 144.172 144.164C148.219 140.115 153.023 136.902 158.311 134.711C163.599 132.519 169.266 131.391 174.99 131.39C186.549 131.389 197.636 135.981 205.811 144.156C213.985 152.332 218.579 163.421 218.58 174.985C218.581 186.548 213.991 197.638 205.818 205.816C197.645 213.993 186.56 218.588 175 218.59V218.59Z" fill="white"/>
</svg>
