<svg width="422" height="510" viewBox="0 0 422 510" fill="none" xmlns="http://www.w3.org/2000/svg">
<g clip-path="url(#clip0_52_272)">
<path fill-rule="evenodd" clip-rule="evenodd" d="M116.115 468.288C117.436 455.917 111.102 323.89 51.8864 372.379C31.2229 389.3 36.8101 407.505 46.4961 418.392C30.6713 409.677 -3.67472 437.735 2.62271 471.497C11.469 518.926 128.639 492.821 128.639 492.821L116.115 468.288Z" fill="url(#paint0_linear_52_272)"/>
<path d="M50.8839 371.382C66.8926 357.638 81.3135 359.06 90.1369 364.464C94.4586 367.11 97.8008 371.545 100.392 376.98C102.986 382.422 104.876 388.965 106.244 395.966C111.591 423.337 109.11 458.596 108.451 465.49L119.409 487.992L120.166 489.547L118.507 489.936L118.206 488.602L118.506 489.937L118.502 489.938C118.499 489.938 118.493 489.94 118.486 489.942C118.473 489.945 118.453 489.949 118.427 489.955C118.374 489.967 118.298 489.985 118.197 490.008C117.995 490.055 117.694 490.122 117.305 490.208C116.526 490.379 124.63 492.914 123.175 493.21C113.147 494.841 82.1893 499.308 66.6893 499.344C54.1894 499.374 36.8096 496.083 25.6069 492.106C14.3818 488.123 5.81435 481.097 3.72865 469.379C0.824716 453.065 8.38686 438.405 18.344 428.919C23.3292 424.169 28.9743 420.655 34.3291 418.85C37.8017 417.679 41.2419 417.203 44.3196 417.651C41.076 413.219 38.3343 407.978 38.107 401.919C37.8111 394.029 39.3616 381.275 50.8839 371.382Z" stroke="#F3F3F3" stroke-opacity="0.92" stroke-width="3"/>
<path fill-rule="evenodd" clip-rule="evenodd" d="M135.457 399.056C132.371 384.864 101.856 359.76 75.0789 375.246C60.021 383.954 51.5576 401.95 71.1532 432.28C29.7141 427.139 10.645 451.49 27.4426 478.46C43.0887 503.581 145.69 499.438 145.69 499.438L135.457 399.056Z" fill="#26FC00" stroke="white"/>
<path d="M108.421 386.745C113.3 386.168 107.486 390.487 111.582 392.592C119.748 396.79 126.336 405.406 131.394 414.833C136.461 424.277 140.033 434.612 142.133 442.348C143.181 446.216 143.865 449.447 144.183 451.599C144.34 452.666 144.412 453.501 144.383 454.022C144.376 454.154 144.362 454.282 144.336 454.396C144.32 454.462 144.292 454.549 144.244 454.638L162.866 489.236L163.167 489.795L162.536 489.949L162.406 489.465L162.534 489.949L162.531 489.95C162.528 489.951 162.524 489.952 162.518 489.953C162.506 489.956 162.488 489.96 162.465 489.966C162.417 489.977 162.348 489.994 162.256 490.017C162.072 490.06 161.798 490.126 161.442 490.209C160.728 490.377 159.68 490.617 158.342 490.914C155.664 491.508 151.822 492.324 147.163 493.215C137.845 494.998 125.252 497.083 112.157 498.287C99.069 499.489 85.4502 499.814 74.093 498.067C62.7656 496.323 48.7384 487.089 44.6427 479.834C38.4142 468.8 40.8846 457.234 49.3475 450.058C57.4797 443.161 69.8951 439.293 83.549 439.488C75.5845 428.823 75.2452 428.259 73.5722 423.673C71.8991 419.086 71.3894 413.021 71.9769 410.332C73.4969 403.373 74.9516 398.679 82.4372 392.662C89.9229 386.644 87.43 390.65 91.4208 386.785C95.4116 382.921 104.937 393.744 108.431 391.227C111.925 388.711 103.546 387.321 108.421 386.745ZM143.859 454.081L143.908 454.049C143.898 454.041 143.882 454.032 143.863 454.022C143.862 454.042 143.86 454.062 143.859 454.081Z" fill="url(#paint1_linear_52_272)" stroke="white" stroke-width="2"/>
<path fill-rule="evenodd" clip-rule="evenodd" d="M88.2682 3.47701L89.2037 395.516C89.2037 395.516 83.9763 504.303 152.117 504.141C220.258 503.978 287.701 503.817 322.701 503.734C357.7 503.65 419.09 456.458 418.913 382.159C418.735 307.863 418.007 2.69018 418.007 2.69018L348.862 45.1469L170.808 45.5717L88.2682 3.47701Z" fill="black" fill-opacity="0.41"/>
<path fill-rule="evenodd" clip-rule="evenodd" d="M88.2682 3.47701L89.2037 395.516C89.2037 395.516 83.9763 504.303 152.117 504.141C220.258 503.978 287.701 503.817 322.701 503.734C357.7 503.65 419.09 456.458 418.913 382.159C418.735 307.863 418.007 2.69018 418.007 2.69018L348.862 45.1469L170.808 45.5717L88.2682 3.47701Z" fill="url(#paint2_linear_52_272)" fill-opacity="0.57"/>
<path fill-rule="evenodd" clip-rule="evenodd" d="M88.2682 3.47701L89.2037 395.516C89.2037 395.516 83.9763 504.303 152.117 504.141C220.258 503.978 287.701 503.817 322.701 503.734C357.7 503.65 419.09 456.458 418.913 382.159C418.735 307.863 418.007 2.69018 418.007 2.69018L348.862 45.1469L170.808 45.5717L88.2682 3.47701Z" fill="black" fill-opacity="0.13"/>
<path fill-rule="evenodd" clip-rule="evenodd" d="M88.2682 3.47701L89.2037 395.516C89.2037 395.516 83.9763 504.303 152.117 504.141C220.258 503.978 287.701 503.817 322.701 503.734C357.7 503.65 419.09 456.458 418.913 382.159C418.735 307.863 418.007 2.69018 418.007 2.69018L348.862 45.1469L170.808 45.5717L88.2682 3.47701Z" stroke="white" stroke-width="3"/>
<path d="M239.19 194.242C239.268 226.999 214.006 253.614 182.769 253.689C151.529 253.763 126.14 227.269 126.062 194.512C125.984 161.752 151.246 135.14 182.486 135.065C213.723 134.991 239.112 161.482 239.19 194.242Z" fill="#26FC00"/>
<path d="M382.458 193.9C382.537 226.657 357.275 253.272 326.033 253.347C294.796 253.421 269.409 226.927 269.331 194.17C269.253 161.41 294.513 134.798 325.75 134.723C356.992 134.649 382.38 161.14 382.458 193.9Z" fill="#26FC00"/>
<path d="M158.338 143.625C171.592 143.593 182.361 154.835 182.394 168.73C182.427 182.625 171.712 193.918 158.458 193.95C145.2 193.981 134.434 182.74 134.401 168.844C134.368 154.949 145.08 143.656 158.338 143.625Z" fill="black"/>
<path d="M158.338 143.625C171.592 143.593 182.361 154.835 182.394 168.73C182.427 182.625 171.712 193.918 158.458 193.95C145.2 193.981 134.434 182.74 134.401 168.844C134.368 154.949 145.08 143.656 158.338 143.625Z" stroke="black"/>
<path d="M325.831 168.872C325.865 182.768 315.155 194.061 301.9 194.092C288.642 194.124 277.877 182.883 277.844 168.987C277.81 155.092 288.522 143.799 301.78 143.768C315.034 143.736 325.798 154.977 325.831 168.872Z" fill="black"/>
<path fill-rule="evenodd" clip-rule="evenodd" d="M255.742 310.393L244.681 285.419L233.62 260.445L255.623 260.393L277.62 260.34L266.679 285.366L255.742 310.393Z" fill="#26FC00" stroke="white"/>
</g>
<defs>
<linearGradient id="paint0_linear_52_272" x1="101.181" y1="311.421" x2="25.8963" y2="569.694" gradientUnits="userSpaceOnUse">
<stop stop-color="#845454"/>
<stop offset="0.245192" stop-color="#6B4444"/>
<stop offset="0.413462" stop-color="#1E1313"/>
<stop offset="0.610577" stop-color="#714949"/>
<stop offset="0.759615" stop-color="#1E1313"/>
<stop offset="0.971154" stop-color="#6F4848"/>
</linearGradient>
<linearGradient id="paint1_linear_52_272" x1="13.2923" y1="507.677" x2="105.629" y2="499.093" gradientUnits="userSpaceOnUse">
<stop stop-color="#4C4C4C"/>
<stop offset="0.177885"/>
<stop offset="0.298077" stop-color="#4D4545"/>
<stop offset="0.542445" stop-color="#2F2A2A"/>
<stop offset="0.929225"/>
<stop offset="1" stop-color="#B2B2B2"/>
</linearGradient>
<linearGradient id="paint2_linear_52_272" x1="2.99865" y1="419.496" x2="509.422" y2="177.287" gradientUnits="userSpaceOnUse">
<stop offset="0.0336538" stop-color="#231D1D"/>
<stop offset="0.0337538"/>
<stop offset="0.177885"/>
<stop offset="0.216346" stop-color="#313135"/>
<stop offset="0.293269"/>
<stop offset="0.341346" stop-color="#5F5F60"/>
<stop offset="0.447115"/>
<stop offset="0.447215" stop-color="#010101"/>
<stop offset="0.447315" stop-color="#252424"/>
<stop offset="0.538462" stop-color="#020202"/>
<stop offset="0.591346" stop-color="#6E6A6A"/>
<stop offset="0.668269" stop-color="#1F1B1C"/>
<stop offset="0.706731" stop-color="#1A1819"/>
<stop offset="0.75"/>
<stop offset="0.899038" stop-color="#3F3F46"/>
</linearGradient>
<clipPath id="clip0_52_272">
<rect width="420" height="509" fill="white" transform="translate(0 1.00221) rotate(-0.136721)"/>
</clipPath>
</defs>
</svg>
