<svg width="349" height="544" viewBox="0 0 349 544" fill="none" xmlns="http://www.w3.org/2000/svg">
<g clip-path="url(#clip0_52_206)">
<path d="M106.804 69.0693C147.602 -45.1584 339.869 16.738 340 16.7803C318.622 26.4636 287.807 98.44 306.965 154.286C321.116 195.549 353.796 374.344 333.343 446.168C292.529 589.486 5 526.5 5 526.5C72.2438 532.005 65.9971 183.336 106.804 69.0693Z" fill="url(#paint0_linear_52_206)" fill-opacity="0.91"/>
<path d="M106.804 69.0693C147.602 -45.1584 339.869 16.738 340 16.7803C318.622 26.4636 287.807 98.44 306.965 154.286C321.116 195.549 353.796 374.344 333.343 446.168C292.529 589.486 5 526.5 5 526.5C72.2438 532.005 65.9971 183.336 106.804 69.0693Z" stroke="black"/>
<path fill-rule="evenodd" clip-rule="evenodd" d="M339.845 16.6127C339.845 16.6127 148.158 -44.7455 107.494 68.379C66.8349 181.503 90.0677 505.53 1 528.546C1 528.546 292.547 583.59 333.212 441.705C370.848 310.378 321.03 193.593 306.93 152.743C287.841 97.4557 318.544 26.1992 339.845 16.6127Z" stroke="#FDF5F5" stroke-width="4"/>
<path fill-rule="evenodd" clip-rule="evenodd" d="M245.322 49.1901C245.322 58.4443 237.994 65.9437 228.961 65.9437C219.924 65.9437 212.596 58.4443 212.596 49.1901C212.596 39.936 219.924 32.4368 228.961 32.4368C237.994 32.4368 245.322 39.936 245.322 49.1901Z" fill="#8FFF00"/>
<path fill-rule="evenodd" clip-rule="evenodd" d="M246.569 49.977C246.569 56.6816 242.46 62.1148 237.397 62.1148C232.33 62.1148 225.729 53.4779 225.729 46.7733C225.729 40.0686 232.33 37.8392 237.397 37.8392C242.46 37.8392 246.569 43.2723 246.569 49.977Z" fill="black"/>
<path fill-rule="evenodd" clip-rule="evenodd" d="M320 194.5C320 194.5 191.941 304.112 241.395 520.577C241.395 520.577 245.501 523.112 284.31 504.962C314.247 490.96 351 435 345 343C343.2 244.744 320 194.5 320 194.5Z" fill="#26FB00"/>
<path fill-rule="evenodd" clip-rule="evenodd" d="M122.356 405.338C122.356 405.338 223.641 349.619 194.277 216.89C194.277 216.89 112.903 222.826 106.766 309.912C103.941 368.933 122.356 405.338 122.356 405.338Z" fill="#8FFF00" stroke="white" stroke-width="3"/>
</g>
<defs>
<linearGradient id="paint0_linear_52_206" x1="78.7096" y1="537.493" x2="313.033" y2="82.0028" gradientUnits="userSpaceOnUse">
<stop offset="0.0211774" stop-opacity="0.82"/>
<stop offset="0.219259" stop-color="#010C11" stop-opacity="0.826323"/>
<stop offset="0.246631"/>
<stop offset="0.373337" stop-color="#23272A"/>
<stop offset="0.380774" stop-color="#202020"/>
<stop offset="0.552885" stop-color="#616364"/>
<stop offset="0.62029" stop-color="#0D0D0D"/>
<stop offset="0.674903" stop-color="#383737"/>
<stop offset="0.725962"/>
<stop offset="0.836538" stop-color="#353535"/>
<stop offset="0.908522" stop-color="#2A2828"/>
<stop offset="0.971154"/>
</linearGradient>
<clipPath id="clip0_52_206">
<rect width="349" height="544" fill="white"/>
</clipPath>
</defs>
</svg>
