<svg width="1024" height="800" viewBox="0 0 1024 800" fill="none" xmlns="http://www.w3.org/2000/svg">
<g clip-path="url(#clip0_50_5)">
<path d="M63.3451 222.255C100.081 219.181 132.339 246.501 135.354 283.243C138.368 319.984 110.995 352.197 74.2491 355.152C37.5873 358.101 5.46281 330.804 2.45516 294.147C-0.552514 257.49 26.6929 225.322 63.3451 222.255ZM72.7501 327.258C94.0886 325.128 109.641 306.074 107.455 284.741C105.269 263.408 86.1741 247.906 64.8466 250.149C43.5992 252.383 28.1672 271.391 30.3456 292.645C32.5239 313.898 51.4911 329.38 72.7501 327.258Z" fill="#808080"/>
<path d="M507.14 222.261C543.875 219.126 576.175 246.397 579.25 283.136C582.32 319.874 554.99 352.131 518.25 355.138C481.595 358.138 449.434 330.893 446.37 294.245C443.307 257.596 470.497 225.388 507.14 222.261ZM516.745 327.242C538.035 325.069 553.535 306.05 551.365 284.759C549.195 263.468 530.18 247.967 508.885 250.135C487.592 252.302 472.087 271.324 474.258 292.619C476.428 313.914 495.452 329.416 516.745 327.242Z" fill="#808080"/>
<path d="M283.467 444.246C320.217 441.027 352.596 468.263 355.717 505.02C358.838 541.78 331.516 574.085 294.749 577.11C258.121 580.12 225.963 552.925 222.854 516.305C219.744 479.684 246.856 447.454 283.467 444.246ZM293.256 549.22C314.639 547.01 330.142 527.825 327.805 506.455C325.467 485.083 306.184 469.699 284.829 472.168C263.658 474.615 248.436 493.695 250.753 514.88C253.07 536.065 272.057 551.405 293.256 549.22Z" fill="#808080"/>
<path d="M951.72 222.201C967.505 220.043 986.995 227.294 999.055 237.258C1012.87 248.578 1021.53 264.991 1023.08 282.782C1024.68 300.353 1019.2 317.834 1007.85 331.35C996.605 344.919 980.425 353.461 962.88 355.098C962.505 355.153 962.13 355.202 961.75 355.244C945.875 357.103 927.375 350.704 915 340.712C901 329.457 892.125 313.037 890.375 295.16C888.68 277.3 894.19 259.502 905.675 245.722C917.355 231.643 933.635 223.825 951.72 222.201ZM960.75 327.227C982.065 324.982 997.51 305.866 995.225 284.557C992.94 263.248 973.8 247.837 952.495 250.159C931.24 252.475 915.88 271.56 918.155 292.815C920.435 314.069 939.49 329.466 960.75 327.227Z" fill="#808080"/>
<path d="M727.335 444.254C764.06 441.04 796.42 468.236 799.575 504.96C802.73 541.69 775.48 574.005 738.75 577.1C702.1 580.19 669.875 553.02 666.725 516.375C663.575 479.732 690.7 447.46 727.335 444.254ZM737.255 549.2C758.58 546.93 774.005 527.775 771.68 506.46C769.35 485.14 750.155 469.765 728.845 472.15C707.615 474.526 692.31 493.633 694.625 514.87C696.945 536.105 716.01 551.46 737.255 549.2Z" fill="#808080"/>
<path d="M507.09 666.19C524.27 664.985 539.98 669.415 553.7 679.99C567.605 690.745 576.675 706.585 578.905 724.025C581.22 741.62 576.385 759.405 565.485 773.41C553.71 788.58 538.405 796.515 519.625 798.975C502.465 800.735 485.298 795.77 471.726 785.13C457.652 774.11 448.6 757.895 446.607 740.13C444.61 722.465 449.737 704.73 460.851 690.855C472.733 675.97 488.394 668.31 507.09 666.19ZM517.255 771.135C538.545 768.675 553.8 749.4 551.3 728.11C548.795 706.825 529.485 691.61 508.2 694.16C486.985 696.705 471.83 715.94 474.326 737.165C476.821 758.385 496.025 773.58 517.255 771.135Z" fill="#808080"/>
<path d="M63.2784 666.195C79.9564 665.01 95.2419 669.2 108.743 679.215C122.883 689.71 132.267 705.405 134.826 722.825C137.493 740.555 132.862 758.61 121.991 772.87C110.438 788.13 94.8619 796.43 76.1229 798.93C58.2144 800.53 41.7347 796.135 27.5415 784.92C13.5532 773.845 4.5923 757.62 2.6662 739.88C0.738684 722.115 5.99404 704.315 17.2624 690.445C29.0174 675.925 44.8774 668.13 63.2784 666.195ZM72.7539 771.205C94.1984 769.06 109.773 749.83 107.417 728.405C105.061 706.985 85.6809 691.6 64.2824 694.165C43.1778 696.695 28.0494 715.75 30.3728 736.88C32.6961 758.005 51.6039 773.32 72.7539 771.205Z" fill="#808080"/>
<path d="M951.22 666.2C966.405 663.96 985.52 670.705 997.46 679.91C1011.44 690.67 1020.56 706.56 1022.79 724.065C1025.1 741.715 1020.22 759.555 1009.24 773.565C997.575 788.49 982.23 796.655 963.625 798.94C946.145 800.785 928.65 795.64 914.96 784.62C900.995 773.38 892.14 757 890.38 739.165C888.645 721.175 894.235 703.245 905.88 689.43C917.335 675.73 933.535 667.8 951.22 666.2ZM961.255 771.12C982.5 768.605 997.685 749.35 995.185 728.1C992.685 706.855 973.44 691.655 952.19 694.14C930.92 696.63 915.705 715.9 918.205 737.165C920.71 758.43 939.99 773.64 961.255 771.12Z" fill="#808080"/>
<path d="M731.355 222.099C745.27 220.998 752.31 228.719 752.12 242.294C751.99 251.912 752.035 261.745 752.03 271.374C762.04 270.551 778.71 270.816 788.14 271.963C805.22 274.041 805.745 301.721 789.74 305.08C779.865 307.151 762.145 306.053 752.055 305.995C751.725 323.284 757.885 348.783 738.645 355.259C737.175 355.47 734.97 355.599 733.495 355.528C729.24 355.282 725.245 353.398 722.35 350.272C714.97 342.26 716.9 316.94 717.37 305.97C705.645 306.049 681.825 308.965 672.84 300.789C666.415 295.194 666.555 282.104 672.805 276.54C681.98 268.372 705.265 271.265 717.425 271.365C717.315 269.1 717.15 265.817 717.305 263.613C718.395 248.165 711.725 227.751 731.355 222.099Z" fill="#FFE500"/>
<path d="M63.8605 444.105C65.6275 443.948 67.985 443.939 69.758 444.142C74.1485 444.643 78.1555 446.88 80.886 450.354C85.369 456.046 85.1605 464.667 84.9145 471.56C84.6695 478.437 85.3145 486.609 84.5455 493.322C91.122 493.209 97.7695 493.177 104.343 493.186C112.94 493.199 122.761 492.067 129.448 498.611C135.742 504.77 135.538 516.745 129.274 522.885C122.665 529.355 113.289 527.915 104.873 528.05C98.2715 528.085 91.577 527.98 84.957 527.93C84.4885 536.12 84.9595 545.085 84.8885 553.34C84.795 564.25 83.965 572.615 72.381 576.78C66.041 578.31 60.1395 577.52 55.3555 572.705C48.8284 566.14 50.008 556.65 49.9708 548.18C49.9412 541.445 50.0276 534.665 50.0671 527.915C43.1581 527.96 19.0113 528.63 13.5433 527.24C10.4803 526.485 7.67015 524.935 5.3958 522.75C-7.1232 510.495 4.95771 490.699 22.7448 493.19C28.8928 494.051 43.1615 493.317 50.043 493.376C50.0535 484.66 50.0241 475.733 49.9174 467.029C49.7793 455.766 51.8096 447.389 63.8605 444.105Z" fill="#FFE500"/>
<path d="M507.895 444.093C517.025 443.377 526.51 447.565 527.93 456.889C529.58 467.72 528.61 482.287 528.695 493.393C534.905 492.885 560.5 492.805 565.485 494.049C568.125 494.735 570.55 496.076 572.535 497.949C575.905 501.1 577.87 505.465 578 510.08C578.51 526.755 563.645 528.765 550.905 528.04C543.95 527.645 535.805 527.98 528.73 527.935C528.685 536.025 528.65 544.265 528.755 552.345C528.9 563.38 528.3 572.315 516.505 576.72C510.17 578.27 504.115 577.61 499.321 572.735C497.002 570.355 495.381 567.385 494.633 564.145C493.411 559.04 493.983 534.665 494.022 527.92C484.16 527.99 474.309 528.05 464.437 528.065C457.445 528.07 449.688 525.55 446.361 518.815C441.162 509.55 446.752 495.589 457.681 493.997C468.466 492.426 482.883 493.286 494.003 493.394C494.019 484.597 493.995 475.558 493.872 466.772C493.718 455.731 495.921 447.067 507.895 444.093Z" fill="#FFE500"/>
<path d="M287.928 222.093C288.72 222.053 289.511 222.025 290.304 222.009C308.015 221.701 308.871 237.577 308.116 250.641C307.738 257.172 308.064 264.754 308.07 271.382C318.573 270.876 344.737 268.967 352.47 276.17C355.819 279.339 357.714 283.746 357.712 288.356C357.772 293.099 355.933 297.67 352.604 301.049C350.511 303.132 347.896 304.613 345.032 305.336C339.904 306.607 315.124 306.037 308.1 305.999C307.938 314.173 308.067 322.855 308.154 331.031C308.285 343.343 307.438 350.868 294.516 355.312C290.222 355.882 285.78 355.442 282 353.161C272.001 347.127 273.34 335.508 273.391 325.497C273.424 318.966 273.397 312.478 273.378 305.975L246.467 306.105C234.49 306.109 224.588 302.655 224.17 288.41C223.969 281.579 229.597 273.3 236.526 272.195C247.985 270.368 261.648 271.267 273.466 271.366C273.344 255.13 267.943 226.489 287.928 222.093Z" fill="#FFE500"/>
<path d="M952.105 444.066C953.105 444.023 954.105 444 955.11 443.999C959.785 444.009 964.185 445.55 967.49 448.934C969.63 451.168 971.14 453.925 971.875 456.929C973.215 462.264 972.595 486.734 972.56 493.363C972.865 493.341 973.175 493.323 973.48 493.308C983.16 492.917 999.335 492.619 1008.61 493.986C1021.52 495.889 1026.58 513.315 1016.87 523.1C1014.99 525.025 1012.62 526.405 1010.01 527.085C1004.12 528.65 980.125 527.98 972.58 527.93C972.605 536.02 972.55 544.255 972.675 552.325C972.845 563.555 971.98 572.725 959.91 576.895C953.87 578.345 947.75 577.435 943.265 572.785C940.955 570.35 939.335 567.335 938.585 564.06C937.39 559.035 937.955 534.58 937.995 527.91C927.625 527.99 909.065 529.185 899.88 526.94C884.565 523.2 884.255 496.405 901.875 493.963C913.545 492.347 926.315 493.281 937.98 493.398C937.95 483.175 935.9 459.006 941.025 451.193C943.66 447.18 947.49 445.028 952.105 444.066Z" fill="#FFE500"/>
<path d="M281.738 0H296.406C307.327 2.87018 312.382 2.84081 323.158 9.2361C338.562 18.3897 349.676 33.3118 354.034 50.6915C358.293 67.8605 355.512 86.019 346.309 101.126C336.988 116.414 321.996 127.394 304.607 131.667C287.288 135.754 269.053 132.71 254 123.221C238.809 113.674 228.057 98.457 224.131 80.95C220.382 63.6355 223.652 45.5408 233.224 30.634C245.569 11.3497 260.72 4.70976 281.738 0ZM293.253 105.229C314.604 103.029 330.101 83.8945 327.815 62.552C325.53 41.2096 306.333 25.7897 285 28.1604C263.787 30.5178 248.473 49.5826 250.746 70.8045C253.018 92.0265 272.022 107.417 293.253 105.229Z" fill="#808080"/>
<path d="M725.735 0H740.415C743.705 0.907545 747.235 1.48464 750.605 2.38206C773.62 8.5109 791.97 27.0784 797.83 50.4025C802.185 67.61 799.45 85.8435 790.24 101.018C780.935 116.372 765.905 127.395 748.465 131.658C731.195 135.711 713.025 132.719 697.975 123.342C683.365 114.229 672.155 98.957 668.3 82.1275C664.13 64.4765 667.305 45.8899 677.1 30.6238C689.49 11.2061 704.705 4.72566 725.735 0ZM737.25 105.216C758.575 102.948 774.005 83.794 771.68 62.4765C769.35 41.159 750.155 25.7828 728.845 28.1665C707.615 30.541 692.31 49.6476 694.625 70.884C696.945 92.12 716.01 107.476 737.25 105.216Z" fill="#808080"/>
<path d="M64.1175 0H70.9545C86.86 4.33528 85.0645 19.5508 84.8995 32.5212C84.8315 37.8592 85.14 44.1182 84.5455 49.32C96.2165 49.0878 120.157 46.5407 129.212 54.3905C135.72 59.6905 135.476 73.4595 129.338 78.8755C120.308 86.8415 96.8675 84.013 84.957 83.932C84.395 95.911 87.7155 118.779 80.1765 127.98C71.6395 138.4 51.865 133.232 50.44 119.184C49.306 108.007 49.9916 95.3785 50.0665 83.9175C43.337 83.963 19.1697 84.637 13.6427 83.274C10.7529 82.575 8.07888 81.1775 5.85533 79.2035C-7.13812 67.5565 4.21117 46.8811 22.2944 49.187C28.851 50.023 42.8195 49.3127 50.043 49.376C50.0615 40.5223 50.004 31.4726 49.9184 22.6276C49.8052 10.9559 52.1045 3.65117 64.1175 0Z" fill="#FFE500"/>
<path d="M717.44 715.38C717.32 709.435 717.26 703.49 717.265 697.545C717.23 688.51 715.93 677.79 722.66 670.75C729.115 664.005 740.56 664.555 747.06 670.845C751.48 675.12 752.08 680.05 752.09 685.92C752.115 695.725 752.01 705.55 752.015 715.36C757.925 715.26 763.835 715.205 769.75 715.205C778.195 715.17 790.27 714.01 796.46 720.28C807.35 731.315 800.04 749.78 784.17 749.93C773.185 750.035 762.755 749.995 752.06 749.93C752.025 756.795 752.615 781.83 751.39 786.56C750.625 789.595 749.045 792.36 746.825 794.57C743.245 798.12 740.065 798.97 735.32 800H733.745C710.445 793.625 718.815 775.06 717.275 756.295C717.13 754.55 717.315 751.69 717.415 749.905C710.775 749.955 685.725 750.575 680.835 749.305C677.865 748.51 675.15 746.96 672.955 744.805C663.32 735.48 668.81 717.645 681.32 715.94C691.7 714.525 706.745 715.175 717.44 715.38Z" fill="#FFE500"/>
<path d="M273.465 715.365C273.401 704.285 272.54 689.63 274.259 678.905C276.264 666.4 294.3 661.35 303.358 671.02C305.441 673.285 306.88 676.065 307.527 679.07C308.659 684.115 308.005 708.615 308.054 715.35C314.837 715.19 338.581 714.695 344.084 716.05C347.541 716.87 350.727 718.57 353.333 720.985C362.701 729.76 356.031 747.92 344.797 749.35C333.895 750.74 319.266 749.975 308.1 749.94C308.053 756.81 308.61 781.715 307.496 786.375C306.758 789.555 305.126 792.46 302.794 794.75C299.274 798.155 295.964 799.015 291.33 800H289.721C277.499 796.415 273.355 790.775 273.312 777.89C273.281 768.62 273.48 759.18 273.419 749.905C266.96 749.955 241.998 750.54 237.25 749.395C234.088 748.625 231.196 747.005 228.887 744.71C222.556 738.405 222.425 726.715 229.03 720.485C231.436 718.245 234.389 716.68 237.592 715.95C242.978 714.675 266.628 715.305 273.465 715.365Z" fill="#FFE500"/>
<path d="M508.155 0H514.305C517.93 1.01999 521.04 2.42332 523.68 5.16055C525.75 7.3157 527.22 9.97315 527.945 12.8705C529.345 18.2392 528.665 42.4659 528.615 49.4089C540.36 49.3651 563.845 46.6115 572.92 54.339C579.62 59.691 579.535 73.2425 573.305 78.845C564.345 86.897 540.68 84.075 528.735 84.002C528.725 95.1055 529.5 108.959 528.03 119.89C525.61 137.925 497.259 137.811 494.607 120.143C493.049 109.765 493.95 94.952 494.017 83.9755C487.363 84.0225 462.89 84.607 457.901 83.417C454.766 82.696 451.875 81.1645 449.518 78.976C436.812 67.0185 448.364 46.9986 466.014 49.2897C472.662 50.153 486.668 49.404 494.001 49.4636C494.026 40.6865 493.969 31.6742 493.872 22.9074C493.74 10.9637 495.88 3.77581 508.155 0Z" fill="#FFE500"/>
<path d="M952.1 0H958.32C961.81 0.91689 964.965 2.513 967.495 5.11755C969.525 7.21175 971.005 9.77755 971.795 12.5842C973.305 17.9802 972.595 42.6348 972.555 49.3933C979.34 49.4004 1003.43 48.7866 1008.6 50.034C1011.67 50.7445 1014.5 52.223 1016.84 54.3305C1029.34 65.824 1018.44 86.459 1000.49 84.1185C994.025 83.276 979.75 84.042 972.565 83.997C972.615 95.8955 975.525 120.261 967.01 129.124C961.235 135.137 948.955 135.001 943.09 128.697C936.63 121.751 937.995 113.506 937.88 104.753C937.85 97.855 937.95 90.883 937.99 83.9705C931.355 84.0445 906.675 84.58 901.685 83.347C898.54 82.591 895.64 81.05 893.255 78.8685C886.325 72.441 886.95 60.8675 893.42 54.413C895.525 52.311 898.16 50.8175 901.045 50.091C906.125 48.7724 931.145 49.4126 937.98 49.4664C937.94 40.5338 937.975 31.3877 937.84 22.4711C937.655 10.6897 940.085 3.56386 952.1 0Z" fill="#FFE500"/>
</g>
<defs>
<clipPath id="clip0_50_5">
<rect width="1024" height="800" fill="white"/>
</clipPath>
</defs>
</svg>
