<svg width="350" height="350" viewBox="0 0 350 350" fill="none" xmlns="http://www.w3.org/2000/svg">
<path d="M334.898 198.089C327.904 194.549 318.98 198.84 318.98 198.84C316.417 200.084 312.631 201.211 310.571 201.361C308.48 201.5 304.726 200.578 302.173 199.28L258.582 177.14H303.385C306.216 177.14 309.992 177.998 311.773 179.092C313.575 180.133 316.417 182.879 318.133 185.121C318.133 185.121 324.15 193.015 331.991 193.015C341.934 193.015 350 184.949 350 175.006C350 165.051 341.934 156.985 331.991 156.985C324.15 156.985 318.133 164.858 318.133 164.858C316.417 167.121 313.575 169.867 311.773 170.94C309.992 172.002 306.216 172.86 303.385 172.86H258.582L302.173 150.72C304.726 149.422 308.48 148.5 310.571 148.65C312.631 148.811 316.417 149.948 318.98 151.16C318.98 151.16 327.904 155.451 334.898 151.911C343.779 147.406 347.297 136.561 342.792 127.69C338.287 118.83 327.443 115.29 318.562 119.795C311.579 123.357 309.799 133.096 309.799 133.096C309.273 135.885 307.976 139.618 306.871 141.377C305.777 143.136 302.806 145.625 300.264 146.923L249.197 172.86H213.372C210.519 172.86 205.918 172.506 203.129 172.045C200.362 171.584 194.773 171.208 191.942 171.208H184.144L189.635 165.695C191.652 163.71 194.688 160.192 196.382 157.907C196.382 157.907 195.331 159.495 196.994 157.188C198.624 154.914 201.616 151.385 203.633 149.38L228.957 124.032L283.424 106.258C286.127 105.379 289.977 105.046 292.015 105.529C294.043 105.99 297.625 107.706 299.953 109.305C299.953 109.305 308.104 114.936 315.537 112.501C324.987 109.422 330.168 99.2429 327.078 89.7929C324 80.3426 313.843 75.1723 304.393 78.2507C296.938 80.686 293.667 90.0503 293.667 90.0503C292.723 92.7106 290.846 96.2073 289.505 97.7734C288.143 99.3501 284.829 101.356 282.126 102.214L235.618 117.414L267.27 85.706C269.287 83.7003 272.591 81.6512 274.607 81.147C276.613 80.6644 280.581 80.5572 283.381 80.9324C283.381 80.9324 293.206 82.2521 298.741 76.7278C305.777 69.6803 305.777 58.2886 298.741 51.2516C291.704 44.2045 280.302 44.2045 273.266 51.2516C267.732 56.776 269.051 66.6017 269.051 66.6017C269.448 69.4123 269.351 73.3702 268.847 75.3867C268.343 77.4144 266.294 80.707 264.278 82.7132L232.604 114.389L247.77 67.8783C248.65 65.1752 250.656 61.8498 252.211 60.509C253.799 59.1252 257.285 57.259 259.945 56.3363C259.945 56.3363 269.308 53.0537 271.754 45.6097C274.811 36.138 269.662 25.9798 260.191 22.9015C250.72 19.8229 240.563 24.9717 237.506 34.4434C235.049 41.8767 240.691 50.0504 240.691 50.0504C242.3 52.3783 243.995 55.9611 244.478 57.9668C244.939 59.9836 244.585 63.8558 243.727 66.5589L225.965 121.029L200.608 146.387C198.602 148.371 195.106 151.375 192.8 153.026C190.515 154.678 186.3 158.347 184.294 160.353L178.781 165.867V158.079C178.781 155.225 178.448 150.613 178.03 147.802C178.03 147.802 178.427 149.648 177.966 146.869C177.505 144.102 177.129 139.49 177.129 136.636V100.798L203.086 49.7183C204.362 47.1865 206.851 44.2045 208.621 43.1209C210.401 42.0269 214.123 40.7076 216.912 40.1822C216.912 40.1822 226.651 38.4014 230.191 31.4078C234.695 22.5689 231.177 11.7134 222.318 7.18662C213.437 2.68177 202.603 6.22116 198.077 15.103C194.537 22.086 198.828 31.0105 198.828 31.0105C200.093 33.5638 201.198 37.3609 201.348 39.431C201.488 41.5011 200.576 45.2772 199.289 47.787L177.129 91.4127V46.5965C177.129 43.7645 178.009 39.9781 179.081 38.2188C180.143 36.4384 182.867 33.5638 185.131 31.8475C185.131 31.8475 193.004 25.8296 193.004 17.9993C193.004 8.04488 184.959 0 174.995 0C165.062 0 156.996 8.04488 156.996 17.9993C156.996 25.8296 164.869 31.8475 164.869 31.8475C167.111 33.5638 169.857 36.4384 170.93 38.2188C171.991 39.9781 172.882 43.7645 172.882 46.5965V91.4127L150.711 47.787C149.435 45.2772 148.491 41.5011 148.662 39.431C148.802 37.3609 149.939 33.5638 151.172 31.0105C151.172 31.0105 155.463 22.086 151.902 15.103C147.407 6.22116 136.574 2.68177 127.715 7.18662C118.844 11.7134 115.304 22.5689 119.809 31.4078C123.349 38.4014 133.099 40.1822 133.099 40.1822C135.898 40.7076 139.61 42.0269 141.39 43.1209C143.149 44.2045 145.638 47.1865 146.946 49.7183L172.882 100.798V136.636C172.882 139.49 172.517 144.102 172.056 146.869C171.573 149.648 171.219 155.225 171.219 158.079V165.867L165.717 160.353C163.7 158.347 160.182 155.333 157.919 153.627C157.919 153.627 159.485 154.678 157.211 153.026C154.905 151.375 151.387 148.371 149.37 146.387L124.046 121.029L106.284 66.5589C105.404 63.8558 105.061 59.9836 105.522 57.9668C106.005 55.9611 107.7 52.3783 109.319 50.0504C109.319 50.0504 114.929 41.8767 112.526 34.4434C109.437 24.9717 99.2584 19.8229 89.8089 22.9015C80.3484 25.9798 75.1892 36.138 78.2676 45.6097C80.7024 53.0537 90.0663 56.3363 90.0663 56.3363C92.7263 57.259 96.2013 59.1252 97.7781 60.509C99.3654 61.8498 101.361 65.1752 102.24 67.8783L117.407 114.389L85.7329 82.7132C83.7163 80.707 81.6676 77.4144 81.1636 75.3867C80.681 73.3702 80.5735 69.4123 80.9491 66.6017C80.9491 66.6017 82.2684 56.776 76.7445 51.2516C69.6975 44.2045 58.2851 44.2045 51.2703 51.2516C44.2234 58.2886 44.2234 69.6803 51.2703 76.7278C56.8156 82.2521 66.6191 80.9324 66.6191 80.9324C69.4507 80.5572 73.3872 80.6644 75.4037 81.147C77.4094 81.6512 80.7024 83.7003 82.7082 85.706L114.403 117.414L67.8956 102.214C65.1926 101.356 61.8674 99.3501 60.5053 97.7734C59.1645 96.2073 57.2767 92.7106 56.3329 90.0503C56.3329 90.0503 53.0722 80.686 45.6284 78.2507C36.1574 75.1723 25.9998 80.3426 22.9214 89.7929C19.8429 99.2429 24.9916 109.422 34.4413 112.501C41.9064 114.936 50.0475 109.305 50.0475 109.305C52.3964 107.706 55.9789 105.99 57.9955 105.529C60.0012 105.046 63.8734 105.379 66.5763 106.258L121.032 124.032L146.378 149.38C148.383 151.385 151.387 154.914 153.038 157.188C154.669 159.495 158.359 163.71 160.354 165.695L165.856 171.208H158.09C155.237 171.208 150.604 171.562 147.804 171.98C147.804 171.98 149.649 171.584 146.882 172.045C144.072 172.506 139.481 172.86 136.66 172.86H100.814L49.7364 146.923C47.2052 145.625 44.2447 143.136 43.14 141.377C42.0245 139.618 40.7266 135.885 40.201 133.096C40.201 133.096 38.4206 123.357 31.4272 119.795C22.5676 115.29 11.7341 118.83 7.20784 127.69C2.70293 136.561 6.2426 147.406 15.1129 151.911C22.0847 155.451 31.0303 151.16 31.0303 151.16C33.583 149.948 37.4016 148.811 39.4287 148.65C41.5205 148.5 45.2744 149.422 47.8057 150.72L91.4284 172.86H46.6366C43.7835 172.86 40.0187 172.002 38.2383 170.94C36.4363 169.867 33.583 167.121 31.8668 164.858C31.8668 164.858 25.8497 156.985 17.9981 156.985C8.06595 156.985 0 165.051 0 175.006C0 184.949 8.06595 193.015 17.9981 193.015C25.8497 193.015 31.8668 185.121 31.8668 185.121C33.583 182.879 36.4363 180.133 38.2383 179.092C40.0187 177.998 43.7835 177.14 46.6366 177.14H91.4284L47.8057 199.28C45.2744 200.578 41.5205 201.5 39.4287 201.361C37.4016 201.211 33.583 200.084 31.0303 198.84C31.0303 198.84 22.0847 194.549 15.1129 198.089C6.2426 202.594 2.70293 213.428 7.20784 222.31C11.7341 231.17 22.5676 234.71 31.4272 230.205C38.4206 226.644 40.201 216.904 40.201 216.904C40.7266 214.115 42.0245 210.382 43.14 208.623C44.2447 206.842 47.2052 204.375 49.7364 203.077L100.814 177.14H136.66C139.481 177.14 144.072 177.494 146.882 177.955C149.649 178.416 155.237 178.792 158.09 178.792H165.856L160.354 184.306C158.359 186.29 155.323 189.819 153.628 192.093C153.628 192.093 154.669 190.505 153.038 192.812C151.387 195.096 148.383 198.615 146.356 200.621L121.032 225.978L66.5763 243.742C63.8734 244.6 60.0012 244.954 57.9955 244.471C55.9789 244.01 52.3964 242.315 50.0475 240.685C50.0475 240.685 41.9064 235.064 34.4413 237.499C24.9916 240.578 19.8429 250.736 22.8999 260.207C25.9998 269.657 36.1574 274.828 45.6284 271.749C53.0722 269.325 56.3329 259.96 56.3329 259.96C57.2767 257.279 59.1645 253.793 60.5053 252.227C61.8674 250.65 65.1926 248.665 67.8956 247.764L114.403 232.597L82.7082 264.273C80.7024 266.3 77.4094 268.338 75.4037 268.842C73.3872 269.346 69.4507 269.443 66.6191 269.046C66.6191 269.046 56.8156 267.727 51.2703 273.283C44.2234 280.32 44.2234 291.722 51.2703 298.759C58.2851 305.774 69.6975 305.774 76.7445 298.759C82.2684 293.224 80.9491 283.398 80.9491 283.398C80.5735 280.567 80.681 276.63 81.1636 274.603C81.6676 272.586 83.7163 269.303 85.7329 267.287L117.407 235.611L102.24 282.122C101.361 284.825 99.3654 288.14 97.7781 289.491C96.2013 290.853 92.7263 292.72 90.0663 293.664C90.0663 293.664 80.7024 296.936 78.2676 304.39C75.1892 313.862 80.3484 324.02 89.8089 327.098C99.2584 330.177 109.437 325.007 112.526 315.557C114.929 308.102 109.319 299.95 109.319 299.95C107.7 297.622 106.005 294.061 105.522 292.012C105.061 289.995 105.404 286.144 106.284 283.441L124.046 228.993L149.37 203.624C151.387 201.607 154.905 198.636 157.211 196.995C159.485 195.343 163.7 191.653 165.717 189.647L171.219 184.155V191.932C171.219 194.775 171.573 199.387 171.981 202.198C171.981 202.198 171.573 200.353 172.056 203.141C172.517 205.909 172.882 210.532 172.882 213.364V249.212L146.946 300.282C145.638 302.824 143.149 305.774 141.39 306.868C139.61 307.973 135.898 309.292 133.099 309.797C133.099 309.797 123.349 311.599 119.809 318.571C115.304 327.442 118.844 338.287 127.715 342.792C136.574 347.297 147.407 343.757 151.902 334.897C155.463 327.924 151.172 318.989 151.172 318.989C149.939 316.437 148.802 312.65 148.662 310.569C148.491 308.499 149.435 304.723 150.711 302.191L172.882 258.598V303.382C172.882 306.214 171.991 310.011 170.93 311.792C169.857 313.573 167.111 316.437 164.869 318.153C164.869 318.153 156.996 324.149 156.996 331.98C156.996 341.933 165.062 350 174.995 350C184.948 350 193.004 341.933 193.004 331.98C193.004 324.149 185.131 318.153 185.131 318.153C182.867 316.437 180.143 313.573 179.081 311.792C178.009 310.011 177.129 306.214 177.129 303.382V258.598L199.289 302.191C200.576 304.723 201.488 308.499 201.348 310.569C201.198 312.65 200.093 316.437 198.828 318.989C198.828 318.989 194.537 327.924 198.077 334.897C202.603 343.757 213.437 347.297 222.318 342.792C231.177 338.287 234.695 327.442 230.191 318.571C226.651 311.599 216.912 309.797 216.912 309.797C214.123 309.292 210.401 307.973 208.621 306.868C206.851 305.774 204.362 302.824 203.086 300.282L177.129 249.212V213.364C177.129 210.532 177.505 205.909 177.966 203.141C178.427 200.353 178.781 194.775 178.781 191.932V184.155L184.294 189.647C186.3 191.653 189.829 194.678 192.092 196.373C192.092 196.373 190.515 195.343 192.8 196.995C195.106 198.636 198.602 201.607 200.608 203.624L225.965 228.993L243.727 283.441C244.606 286.144 244.939 289.995 244.478 292.012C243.995 294.061 242.3 297.622 240.691 299.95C240.691 299.95 235.049 308.102 237.506 315.557C240.563 325.007 250.72 330.177 260.191 327.098C269.662 324.02 274.811 313.862 271.754 304.39C269.308 296.936 259.945 293.664 259.945 293.664C257.285 292.72 253.799 290.853 252.211 289.491C250.656 288.14 248.65 284.825 247.77 282.122L232.604 235.611L264.278 267.287C266.294 269.303 268.343 272.586 268.826 274.603C269.351 276.63 269.448 280.567 269.051 283.398C269.051 283.398 267.732 293.224 273.266 298.759C280.302 305.774 291.704 305.774 298.741 298.759C305.777 291.722 305.777 280.32 298.741 273.283C293.206 267.727 283.381 269.046 283.381 269.046C280.581 269.443 276.613 269.346 274.607 268.842C272.591 268.338 269.287 266.3 267.27 264.294L235.618 232.597L282.126 247.764C284.829 248.665 288.143 250.65 289.505 252.227C290.846 253.793 292.723 257.279 293.667 259.96C293.667 259.96 296.938 269.325 304.393 271.749C313.843 274.828 324 269.657 327.078 260.207C330.168 250.736 324.987 240.578 315.537 237.499C308.104 235.064 299.953 240.685 299.953 240.685C297.625 242.315 294.043 244.01 292.015 244.471C289.977 244.954 286.127 244.6 283.424 243.742L228.957 225.978L203.633 200.621C201.616 198.615 198.624 195.096 196.994 192.812C195.331 190.505 191.652 186.29 189.635 184.306L184.144 178.792H191.942C194.773 178.792 199.396 178.438 202.185 178.02C202.185 178.02 200.362 178.416 203.129 177.955C205.918 177.494 210.519 177.14 213.372 177.14H249.197L300.264 203.077C302.806 204.375 305.777 206.842 306.871 208.623C307.976 210.382 309.273 214.115 309.799 216.904C309.799 216.904 311.579 226.644 318.562 230.205C327.443 234.71 338.287 231.17 342.792 222.31C347.297 213.428 343.779 202.594 334.898 198.089Z" fill="#FFE500"/>
</svg>
